<svg width="275" height="70" viewBox="0 0 275 70" fill="none" xmlns="http://www.w3.org/2000/svg">
<path d="M15.708 41.44C11.5133 41.44 8.228 40.428 5.852 38.404C3.50533 36.3507 2.25867 33.388 2.112 29.516C2.08267 28.724 2.068 27.4333 2.068 25.644C2.068 23.8253 2.08267 22.5053 2.112 21.684C2.25867 17.8707 3.53467 14.9373 5.94 12.884C8.34533 10.8013 11.6013 9.76 15.708 9.76C18.2893 9.76 20.6067 10.2 22.66 11.08C24.7133 11.9307 26.3267 13.1627 27.5 14.776C28.7027 16.36 29.3187 18.2227 29.348 20.364V20.452C29.348 20.6867 29.2453 20.892 29.04 21.068C28.864 21.2147 28.6587 21.288 28.424 21.288H22.484C22.1027 21.288 21.8093 21.2147 21.604 21.068C21.3987 20.892 21.2227 20.584 21.076 20.144C20.6653 18.648 20.02 17.6067 19.14 17.02C18.26 16.404 17.1013 16.096 15.664 16.096C12.2027 16.096 10.4133 18.032 10.296 21.904C10.2667 22.696 10.252 23.9133 10.252 25.556C10.252 27.1987 10.2667 28.4453 10.296 29.296C10.4133 33.168 12.2027 35.104 15.664 35.104C17.1013 35.104 18.2747 34.796 19.184 34.18C20.0933 33.5347 20.724 32.4933 21.076 31.056C21.1933 30.616 21.3547 30.3227 21.56 30.176C21.7653 30 22.0733 29.912 22.484 29.912H28.424C28.688 29.912 28.908 30 29.084 30.176C29.2893 30.352 29.3773 30.572 29.348 30.836C29.3187 32.9773 28.7027 34.8547 27.5 36.468C26.3267 38.052 24.7133 39.284 22.66 40.164C20.6067 41.0147 18.2893 41.44 15.708 41.44ZM44.8425 41.44C40.6479 41.44 37.3625 40.428 34.9865 38.404C32.6399 36.3507 31.3932 33.388 31.2465 29.516C31.2172 28.724 31.2025 27.4333 31.2025 25.644C31.2025 23.8253 31.2172 22.5053 31.2465 21.684C31.3932 17.8707 32.6692 14.9373 35.0745 12.884C37.4799 10.8013 40.7359 9.76 44.8425 9.76C47.4239 9.76 49.7412 10.2 51.7945 11.08C53.8479 11.9307 55.4612 13.1627 56.6345 14.776C57.8372 16.36 58.4532 18.2227 58.4825 20.364V20.452C58.4825 20.6867 58.3799 20.892 58.1745 21.068C57.9985 21.2147 57.7932 21.288 57.5585 21.288H51.6185C51.2372 21.288 50.9439 21.2147 50.7385 21.068C50.5332 20.892 50.3572 20.584 50.2105 20.144C49.7999 18.648 49.1545 17.6067 48.2745 17.02C47.3945 16.404 46.2359 16.096 44.7985 16.096C41.3372 16.096 39.5479 18.032 39.4305 21.904C39.4012 22.696 39.3865 23.9133 39.3865 25.556C39.3865 27.1987 39.4012 28.4453 39.4305 29.296C39.5479 33.168 41.3372 35.104 44.7985 35.104C46.2359 35.104 47.4092 34.796 48.3185 34.18C49.2279 33.5347 49.8585 32.4933 50.2105 31.056C50.3279 30.616 50.4892 30.3227 50.6945 30.176C50.8999 30 51.2079 29.912 51.6185 29.912H57.5585C57.8225 29.912 58.0425 30 58.2185 30.176C58.4239 30.352 58.5119 30.572 58.4825 30.836C58.4532 32.9773 57.8372 34.8547 56.6345 36.468C55.4612 38.052 53.8479 39.284 51.7945 40.164C49.7412 41.0147 47.4239 41.44 44.8425 41.44ZM87.9691 39.504C88.0571 39.6213 88.1011 39.7827 88.1011 39.988C88.1011 40.2813 87.9984 40.5307 87.7931 40.736C87.6171 40.912 87.3824 41 87.0891 41H80.5771C80.1664 41 79.8584 40.9267 79.6531 40.78C79.4771 40.6333 79.2717 40.428 79.0371 40.164L72.3051 28.944H69.2691V39.9C69.2691 40.2227 69.1517 40.4867 68.9171 40.692C68.7117 40.8973 68.4477 41 68.1251 41H62.4491C62.1264 41 61.8624 40.8973 61.6571 40.692C61.4517 40.4867 61.3491 40.2227 61.3491 39.9V11.3C61.3491 10.9773 61.4517 10.7133 61.6571 10.508C61.8917 10.3027 62.1557 10.2 62.4491 10.2H68.1251C68.4477 10.2 68.7117 10.3027 68.9171 10.508C69.1517 10.7133 69.2691 10.9773 69.2691 11.3V21.904L71.9531 21.948L78.4211 11.036C78.7437 10.4787 79.2864 10.2 80.0491 10.2H86.4291C86.6931 10.2 86.9131 10.288 87.0891 10.464C87.2651 10.64 87.3531 10.86 87.3531 11.124C87.3531 11.2413 87.2944 11.4173 87.1771 11.652L78.9931 25.028L87.9691 39.504Z" fill="#C0C233"/>
<path d="M99.1478 41C98.8545 41 98.5905 40.8973 98.3558 40.692C98.1505 40.4573 98.0478 40.1933 98.0478 39.9V11.3C98.0478 10.9773 98.1505 10.7133 98.3558 10.508C98.5905 10.3027 98.8545 10.2 99.1478 10.2H120.268C120.59 10.2 120.854 10.3027 121.06 10.508C121.265 10.7133 121.368 10.9773 121.368 11.3V15.7C121.368 16.0227 121.265 16.3013 121.06 16.536C120.854 16.7413 120.59 16.844 120.268 16.844H105.968V22.036H112.084C115.604 22.036 118.376 22.872 120.4 24.544C122.424 26.216 123.436 28.504 123.436 31.408C123.436 33.2267 122.996 34.8693 122.116 36.336C121.236 37.7733 119.945 38.9173 118.244 39.768C116.542 40.5893 114.489 41 112.084 41H99.1478ZM111.38 35.28C112.582 35.28 113.521 34.8987 114.196 34.136C114.9 33.3733 115.252 32.4493 115.252 31.364C115.252 30.2787 114.914 29.384 114.24 28.68C113.565 27.976 112.612 27.624 111.38 27.624H105.968V35.28H111.38ZM149.802 10.2C150.066 10.2 150.286 10.3027 150.462 10.508C150.667 10.684 150.77 10.8893 150.77 11.124C150.77 11.2707 150.696 11.5347 150.55 11.916L141.794 32.024C140.767 34.4 139.784 36.2187 138.846 37.48C137.936 38.712 136.822 39.6067 135.502 40.164C134.211 40.7213 132.48 41 130.31 41H127.978C127.684 41 127.42 40.8973 127.186 40.692C126.98 40.4573 126.878 40.1933 126.878 39.9V35.236C126.878 34.9133 126.98 34.6493 127.186 34.444C127.42 34.2387 127.684 34.136 127.978 34.136H129.65C130.5 34.136 131.234 33.96 131.85 33.608C132.466 33.2267 133.023 32.6253 133.522 31.804L122.61 11.564C122.551 11.4467 122.522 11.3147 122.522 11.168C122.522 10.9333 122.624 10.7133 122.83 10.508C123.035 10.3027 123.284 10.2 123.578 10.2H129.65C130.207 10.2 130.632 10.508 130.926 11.124L137.306 23.532L142.718 11.124C142.952 10.508 143.392 10.2 144.038 10.2H149.802ZM170.937 41C170.644 41 170.38 40.8973 170.145 40.692C169.94 40.4573 169.837 40.1933 169.837 39.9V17.24H161.653V21.244C161.653 26.2013 161.331 30.0733 160.685 32.86C160.04 35.6173 158.852 37.656 157.121 38.976C155.42 40.2667 152.941 40.9413 149.685 41C149.363 41 149.084 40.8973 148.849 40.692C148.615 40.4573 148.497 40.1787 148.497 39.856V35.236C148.497 34.62 148.864 34.2387 149.597 34.092C151.181 33.828 152.311 32.5373 152.985 30.22C153.66 27.8733 153.997 24.544 153.997 20.232V11.3C153.997 10.9773 154.1 10.7133 154.305 10.508C154.54 10.3027 154.819 10.2 155.141 10.2H176.613C176.936 10.2 177.2 10.3027 177.405 10.508C177.64 10.7133 177.757 10.9773 177.757 11.3V39.9C177.757 40.2227 177.64 40.4867 177.405 40.692C177.2 40.8973 176.936 41 176.613 41H170.937ZM180.34 41C180.105 41 179.885 40.912 179.68 40.736C179.504 40.5307 179.416 40.3107 179.416 40.076C179.416 39.9 179.431 39.768 179.46 39.68L189.8 11.432C189.888 11.08 190.079 10.7867 190.372 10.552C190.665 10.3173 191.047 10.2 191.516 10.2H198.028C198.497 10.2 198.879 10.3173 199.172 10.552C199.465 10.7867 199.656 11.08 199.744 11.432L210.04 39.68L210.128 40.076C210.128 40.3107 210.025 40.5307 209.82 40.736C209.644 40.912 209.424 41 209.16 41H203.748C203.044 41 202.575 40.692 202.34 40.076L200.624 35.588H188.876L187.204 40.076C186.969 40.692 186.485 41 185.752 41H180.34ZM198.864 29.252L194.772 17.636L190.68 29.252H198.864ZM219.712 41C219.419 41 219.155 40.8973 218.92 40.692C218.715 40.4573 218.612 40.1933 218.612 39.9V17.108H210.78C210.487 17.108 210.223 17.0053 209.988 16.8C209.783 16.5653 209.68 16.3013 209.68 16.008V11.3C209.68 10.9773 209.783 10.7133 209.988 10.508C210.223 10.3027 210.487 10.2 210.78 10.2H234.452C234.775 10.2 235.039 10.3027 235.244 10.508C235.449 10.7133 235.552 10.9773 235.552 11.3V16.008C235.552 16.3307 235.449 16.5947 235.244 16.8C235.039 17.0053 234.775 17.108 234.452 17.108H226.62V39.9C226.62 40.1933 226.517 40.4573 226.312 40.692C226.107 40.8973 225.843 41 225.52 41H219.712Z" fill="white"/>
<path d="M6.176 67.12C5.072 67.12 4.216 66.836 3.608 66.268C3.008 65.7 2.688 64.9 2.648 63.868C2.64 63.652 2.636 63.3 2.636 62.812C2.636 62.316 2.64 61.956 2.648 61.732C2.688 60.708 3.012 59.912 3.62 59.344C4.236 58.768 5.088 58.48 6.176 58.48C6.888 58.48 7.508 58.604 8.036 58.852C8.564 59.092 8.972 59.424 9.26 59.848C9.548 60.264 9.7 60.736 9.716 61.264V61.288C9.716 61.352 9.688 61.408 9.632 61.456C9.584 61.496 9.528 61.516 9.464 61.516H8.324C8.228 61.516 8.156 61.496 8.108 61.456C8.06 61.416 8.02 61.34 7.988 61.228C7.86 60.724 7.648 60.372 7.352 60.172C7.056 59.964 6.66 59.86 6.164 59.86C5.012 59.86 4.412 60.504 4.364 61.792C4.356 62.008 4.352 62.34 4.352 62.788C4.352 63.236 4.356 63.576 4.364 63.808C4.412 65.096 5.012 65.74 6.164 65.74C6.66 65.74 7.056 65.636 7.352 65.428C7.656 65.22 7.868 64.868 7.988 64.372C8.012 64.26 8.048 64.184 8.096 64.144C8.152 64.104 8.228 64.084 8.324 64.084H9.464C9.536 64.084 9.596 64.108 9.644 64.156C9.7 64.204 9.724 64.264 9.716 64.336C9.7 64.864 9.548 65.34 9.26 65.764C8.972 66.18 8.564 66.512 8.036 66.76C7.508 67 6.888 67.12 6.176 67.12ZM12.4471 67C12.3671 67 12.2991 66.972 12.2431 66.916C12.1871 66.86 12.1591 66.792 12.1591 66.712V58.9C12.1591 58.812 12.1831 58.74 12.2311 58.684C12.2871 58.628 12.3591 58.6 12.4471 58.6H18.7351C18.8231 58.6 18.8951 58.628 18.9511 58.684C19.0071 58.74 19.0351 58.812 19.0351 58.9V66.712C19.0351 66.8 19.0071 66.872 18.9511 66.928C18.8951 66.976 18.8231 67 18.7351 67H17.6551C17.5751 67 17.5071 66.972 17.4511 66.916C17.3951 66.86 17.3671 66.792 17.3671 66.712V60.1H13.8271V66.712C13.8271 66.792 13.7991 66.86 13.7431 66.916C13.6951 66.972 13.6271 67 13.5391 67H12.4471ZM25.1493 67.12C24.0613 67.12 23.2133 66.844 22.6053 66.292C21.9973 65.74 21.6773 64.92 21.6453 63.832C21.6373 63.6 21.6333 63.26 21.6333 62.812C21.6333 62.356 21.6373 62.012 21.6453 61.78C21.6773 60.716 22.0053 59.9 22.6293 59.332C23.2533 58.764 24.0933 58.48 25.1493 58.48C26.2053 58.48 27.0453 58.764 27.6693 59.332C28.3013 59.9 28.6333 60.716 28.6653 61.78C28.6813 62.244 28.6893 62.588 28.6893 62.812C28.6893 63.028 28.6813 63.368 28.6653 63.832C28.6253 64.92 28.3013 65.74 27.6933 66.292C27.0853 66.844 26.2373 67.12 25.1493 67.12ZM25.1493 65.74C25.6853 65.74 26.1133 65.58 26.4333 65.26C26.7533 64.932 26.9253 64.436 26.9493 63.772C26.9653 63.292 26.9733 62.968 26.9733 62.8C26.9733 62.616 26.9653 62.292 26.9493 61.828C26.9253 61.164 26.7533 60.672 26.4333 60.352C26.1133 60.024 25.6853 59.86 25.1493 59.86C24.6213 59.86 24.1973 60.024 23.8773 60.352C23.5573 60.672 23.3853 61.164 23.3613 61.828C23.3533 62.06 23.3493 62.384 23.3493 62.8C23.3493 63.208 23.3533 63.532 23.3613 63.772C23.3853 64.436 23.5533 64.932 23.8653 65.26C24.1853 65.58 24.6133 65.74 25.1493 65.74ZM31.5731 67C31.4931 67 31.4251 66.972 31.3691 66.916C31.3131 66.86 31.2851 66.792 31.2851 66.712V58.9C31.2851 58.812 31.3091 58.74 31.3571 58.684C31.4131 58.628 31.4851 58.6 31.5731 58.6H34.7891C35.7491 58.6 36.5051 58.828 37.0571 59.284C37.6091 59.732 37.8851 60.392 37.8851 61.264C37.8851 62.136 37.6091 62.796 37.0571 63.244C36.5131 63.684 35.7571 63.904 34.7891 63.904H33.0011V66.712C33.0011 66.792 32.9731 66.86 32.9171 66.916C32.8691 66.972 32.8011 67 32.7131 67H31.5731ZM34.7291 62.572C35.1931 62.572 35.5491 62.464 35.7971 62.248C36.0451 62.024 36.1691 61.696 36.1691 61.264C36.1691 60.848 36.0491 60.524 35.8091 60.292C35.5691 60.052 35.2091 59.932 34.7291 59.932H32.9771V62.572H34.7291ZM42.3512 67C42.2712 67 42.2032 66.972 42.1472 66.916C42.0912 66.86 42.0632 66.792 42.0632 66.712V60.076H39.8432C39.7632 60.076 39.6952 60.048 39.6392 59.992C39.5832 59.936 39.5552 59.868 39.5552 59.788V58.9C39.5552 58.812 39.5792 58.74 39.6272 58.684C39.6832 58.628 39.7552 58.6 39.8432 58.6H45.9632C46.0512 58.6 46.1232 58.628 46.1792 58.684C46.2352 58.74 46.2632 58.812 46.2632 58.9V59.788C46.2632 59.868 46.2352 59.936 46.1792 59.992C46.1232 60.048 46.0512 60.076 45.9632 60.076H43.7552V66.712C43.7552 66.792 43.7272 66.86 43.6712 66.916C43.6152 66.972 43.5432 67 43.4552 67H42.3512ZM48.7888 67C48.7008 67 48.6288 66.972 48.5728 66.916C48.5248 66.86 48.5008 66.788 48.5008 66.7V58.9C48.5008 58.812 48.5288 58.74 48.5848 58.684C48.6408 58.628 48.7128 58.6 48.8008 58.6H49.8808C49.9688 58.6 50.0368 58.628 50.0848 58.684C50.1408 58.74 50.1688 58.812 50.1688 58.9V64.408L54.1168 58.792C54.2048 58.664 54.3208 58.6 54.4648 58.6H55.4608C55.5488 58.6 55.6168 58.628 55.6648 58.684C55.7208 58.74 55.7488 58.812 55.7488 58.9V66.712C55.7488 66.792 55.7208 66.86 55.6648 66.916C55.6168 66.972 55.5488 67 55.4608 67H54.3808C54.2928 67 54.2208 66.976 54.1648 66.928C54.1088 66.872 54.0808 66.8 54.0808 66.712V61.312L50.1448 66.808C50.0968 66.872 50.0488 66.92 50.0008 66.952C49.9528 66.984 49.8848 67 49.7968 67H48.7888ZM58.926 67C58.846 67 58.778 66.972 58.722 66.916C58.666 66.86 58.638 66.792 58.638 66.712V58.9C58.638 58.812 58.662 58.74 58.71 58.684C58.766 58.628 58.838 58.6 58.926 58.6H62.406C63.342 58.6 64.038 58.808 64.494 59.224C64.958 59.632 65.19 60.192 65.19 60.904C65.19 61.32 65.086 61.676 64.878 61.972C64.678 62.26 64.442 62.468 64.17 62.596C64.506 62.748 64.786 62.996 65.01 63.34C65.242 63.684 65.358 64.076 65.358 64.516C65.358 65.26 65.106 65.86 64.602 66.316C64.106 66.772 63.406 67 62.502 67H58.926ZM62.19 62.044C62.606 62.044 62.922 61.944 63.138 61.744C63.354 61.544 63.462 61.276 63.462 60.94C63.462 60.596 63.354 60.332 63.138 60.148C62.922 59.956 62.606 59.86 62.19 59.86H60.306V62.044H62.19ZM62.31 65.728C62.726 65.728 63.05 65.616 63.282 65.392C63.514 65.16 63.63 64.868 63.63 64.516C63.63 64.156 63.514 63.864 63.282 63.64C63.05 63.408 62.726 63.292 62.31 63.292H60.306V65.728H62.31ZM68.1726 67C68.0926 67 68.0246 66.972 67.9686 66.916C67.9126 66.86 67.8846 66.792 67.8846 66.712V58.9C67.8846 58.812 67.9086 58.74 67.9566 58.684C68.0126 58.628 68.0846 58.6 68.1726 58.6H69.2646C69.3526 58.6 69.4206 58.628 69.4686 58.684C69.5246 58.74 69.5526 58.812 69.5526 58.9V61.996H73.0926V58.9C73.0926 58.812 73.1166 58.74 73.1646 58.684C73.2206 58.628 73.2926 58.6 73.3806 58.6H74.4606C74.5486 58.6 74.6206 58.628 74.6766 58.684C74.7326 58.74 74.7606 58.812 74.7606 58.9V66.712C74.7606 66.8 74.7326 66.872 74.6766 66.928C74.6206 66.976 74.5486 67 74.4606 67H73.3806C73.3006 67 73.2326 66.972 73.1766 66.916C73.1206 66.86 73.0926 66.792 73.0926 66.712V63.496H69.5526V66.712C69.5526 66.792 69.5246 66.86 69.4686 66.916C69.4206 66.972 69.3526 67 69.2646 67H68.1726ZM80.8748 67.12C79.7868 67.12 78.9388 66.844 78.3308 66.292C77.7228 65.74 77.4028 64.92 77.3708 63.832C77.3628 63.6 77.3588 63.26 77.3588 62.812C77.3588 62.356 77.3628 62.012 77.3708 61.78C77.4028 60.716 77.7308 59.9 78.3548 59.332C78.9788 58.764 79.8188 58.48 80.8748 58.48C81.9308 58.48 82.7708 58.764 83.3948 59.332C84.0268 59.9 84.3588 60.716 84.3908 61.78C84.4068 62.244 84.4148 62.588 84.4148 62.812C84.4148 63.028 84.4068 63.368 84.3908 63.832C84.3508 64.92 84.0268 65.74 83.4188 66.292C82.8108 66.844 81.9628 67.12 80.8748 67.12ZM80.8748 65.74C81.4108 65.74 81.8388 65.58 82.1588 65.26C82.4788 64.932 82.6508 64.436 82.6748 63.772C82.6908 63.292 82.6988 62.968 82.6988 62.8C82.6988 62.616 82.6908 62.292 82.6748 61.828C82.6508 61.164 82.4788 60.672 82.1588 60.352C81.8388 60.024 81.4108 59.86 80.8748 59.86C80.3468 59.86 79.9228 60.024 79.6028 60.352C79.2828 60.672 79.1108 61.164 79.0868 61.828C79.0788 62.06 79.0748 62.384 79.0748 62.8C79.0748 63.208 79.0788 63.532 79.0868 63.772C79.1108 64.436 79.2788 64.932 79.5908 65.26C79.9108 65.58 80.3388 65.74 80.8748 65.74ZM94.0127 67.12C92.9087 67.12 92.0527 66.836 91.4447 66.268C90.8447 65.7 90.5247 64.9 90.4847 63.868C90.4767 63.652 90.4727 63.3 90.4727 62.812C90.4727 62.316 90.4767 61.956 90.4847 61.732C90.5247 60.708 90.8487 59.912 91.4567 59.344C92.0727 58.768 92.9247 58.48 94.0127 58.48C94.7247 58.48 95.3447 58.604 95.8727 58.852C96.4007 59.092 96.8087 59.424 97.0967 59.848C97.3847 60.264 97.5367 60.736 97.5527 61.264V61.288C97.5527 61.352 97.5247 61.408 97.4687 61.456C97.4207 61.496 97.3647 61.516 97.3007 61.516H96.1607C96.0647 61.516 95.9927 61.496 95.9447 61.456C95.8967 61.416 95.8567 61.34 95.8247 61.228C95.6967 60.724 95.4847 60.372 95.1887 60.172C94.8927 59.964 94.4967 59.86 94.0007 59.86C92.8487 59.86 92.2487 60.504 92.2007 61.792C92.1927 62.008 92.1887 62.34 92.1887 62.788C92.1887 63.236 92.1927 63.576 92.2007 63.808C92.2487 65.096 92.8487 65.74 94.0007 65.74C94.4967 65.74 94.8927 65.636 95.1887 65.428C95.4927 65.22 95.7047 64.868 95.8247 64.372C95.8487 64.26 95.8847 64.184 95.9327 64.144C95.9887 64.104 96.0647 64.084 96.1607 64.084H97.3007C97.3727 64.084 97.4327 64.108 97.4807 64.156C97.5367 64.204 97.5607 64.264 97.5527 64.336C97.5367 64.864 97.3847 65.34 97.0967 65.764C96.8087 66.18 96.4007 66.512 95.8727 66.76C95.3447 67 94.7247 67.12 94.0127 67.12ZM102.132 67C102.052 67 101.984 66.972 101.928 66.916C101.872 66.86 101.844 66.792 101.844 66.712V60.076H99.6238C99.5438 60.076 99.4758 60.048 99.4198 59.992C99.3638 59.936 99.3358 59.868 99.3358 59.788V58.9C99.3358 58.812 99.3598 58.74 99.4078 58.684C99.4638 58.628 99.5358 58.6 99.6238 58.6H105.744C105.832 58.6 105.904 58.628 105.96 58.684C106.016 58.74 106.044 58.812 106.044 58.9V59.788C106.044 59.868 106.016 59.936 105.96 59.992C105.904 60.048 105.832 60.076 105.744 60.076H103.536V66.712C103.536 66.792 103.508 66.86 103.452 66.916C103.396 66.972 103.324 67 103.236 67H102.132ZM108.569 67C108.489 67 108.421 66.972 108.365 66.916C108.309 66.86 108.281 66.792 108.281 66.712V58.9C108.281 58.812 108.305 58.74 108.353 58.684C108.409 58.628 108.481 58.6 108.569 58.6H111.785C112.745 58.6 113.501 58.828 114.053 59.284C114.605 59.732 114.881 60.392 114.881 61.264C114.881 62.136 114.605 62.796 114.053 63.244C113.509 63.684 112.753 63.904 111.785 63.904H109.997V66.712C109.997 66.792 109.969 66.86 109.913 66.916C109.865 66.972 109.797 67 109.709 67H108.569ZM111.725 62.572C112.189 62.572 112.545 62.464 112.793 62.248C113.041 62.024 113.165 61.696 113.165 61.264C113.165 60.848 113.045 60.524 112.805 60.292C112.565 60.052 112.205 59.932 111.725 59.932H109.973V62.572H111.725ZM117.5 67C117.42 67 117.352 66.972 117.296 66.916C117.24 66.86 117.212 66.792 117.212 66.712V58.888C117.212 58.8 117.24 58.732 117.296 58.684C117.352 58.628 117.42 58.6 117.5 58.6H118.628C118.716 58.6 118.784 58.628 118.832 58.684C118.888 58.732 118.916 58.8 118.916 58.888V66.712C118.916 66.792 118.888 66.86 118.832 66.916C118.784 66.972 118.716 67 118.628 67H117.5ZM127.374 67C127.294 67 127.226 66.972 127.17 66.916C127.114 66.86 127.086 66.792 127.086 66.712V60.1H124.482V61.612C124.482 62.932 124.39 63.976 124.206 64.744C124.03 65.504 123.726 66.064 123.294 66.424C122.862 66.776 122.262 66.964 121.494 66.988C121.414 66.996 121.342 66.972 121.278 66.916C121.222 66.86 121.194 66.788 121.194 66.7V65.8C121.194 65.72 121.218 65.656 121.266 65.608C121.314 65.56 121.382 65.528 121.47 65.512C121.942 65.432 122.29 65.06 122.514 64.396C122.746 63.724 122.862 62.724 122.862 61.396V58.888C122.862 58.8 122.89 58.732 122.946 58.684C123.002 58.628 123.07 58.6 123.15 58.6H128.454C128.542 58.6 128.614 58.628 128.67 58.684C128.726 58.74 128.754 58.812 128.754 58.9V66.712C128.754 66.8 128.726 66.872 128.67 66.928C128.614 66.976 128.542 67 128.454 67H127.374ZM131.938 67C131.858 67 131.79 66.972 131.734 66.916C131.678 66.86 131.65 66.792 131.65 66.712V58.9C131.65 58.812 131.674 58.74 131.722 58.684C131.778 58.628 131.85 58.6 131.938 58.6H137.218C137.306 58.6 137.378 58.628 137.434 58.684C137.49 58.74 137.518 58.812 137.518 58.9V59.692C137.518 59.78 137.49 59.852 137.434 59.908C137.378 59.956 137.306 59.98 137.218 59.98H133.27V62.104H136.954C137.042 62.104 137.114 62.132 137.17 62.188C137.226 62.236 137.254 62.304 137.254 62.392V63.136C137.254 63.224 137.226 63.296 137.17 63.352C137.114 63.4 137.042 63.424 136.954 63.424H133.27V65.62H137.314C137.402 65.62 137.474 65.648 137.53 65.704C137.586 65.76 137.614 65.832 137.614 65.92V66.712C137.614 66.8 137.586 66.872 137.53 66.928C137.474 66.976 137.402 67 137.314 67H131.938ZM146.507 68.68C146.427 68.68 146.359 68.652 146.303 68.596C146.247 68.548 146.219 68.48 146.219 68.392V67H140.423C140.335 67 140.263 66.972 140.207 66.916C140.159 66.86 140.135 66.788 140.135 66.7V58.888C140.135 58.8 140.163 58.732 140.219 58.684C140.275 58.628 140.343 58.6 140.423 58.6H141.515C141.603 58.6 141.671 58.628 141.719 58.684C141.775 58.732 141.803 58.8 141.803 58.888V65.5H145.343V58.888C145.343 58.8 145.371 58.732 145.427 58.684C145.483 58.628 145.551 58.6 145.631 58.6H146.711C146.799 58.6 146.871 58.628 146.927 58.684C146.983 58.732 147.011 58.8 147.011 58.888V65.5H147.587C147.675 65.5 147.747 65.528 147.803 65.584C147.859 65.64 147.887 65.708 147.887 65.788V68.392C147.887 68.472 147.859 68.54 147.803 68.596C147.747 68.652 147.675 68.68 147.587 68.68H146.507ZM150.525 67C150.445 67 150.377 66.972 150.321 66.916C150.265 66.86 150.237 66.792 150.237 66.712V58.888C150.237 58.8 150.265 58.732 150.321 58.684C150.377 58.628 150.445 58.6 150.525 58.6H151.617C151.705 58.6 151.773 58.628 151.821 58.684C151.877 58.732 151.905 58.8 151.905 58.888V61.636H153.453C154.413 61.636 155.149 61.86 155.661 62.308C156.181 62.756 156.441 63.412 156.441 64.276C156.441 64.796 156.325 65.264 156.093 65.68C155.869 66.088 155.533 66.412 155.085 66.652C154.637 66.884 154.093 67 153.453 67H150.525ZM153.381 65.668C153.805 65.668 154.133 65.54 154.365 65.284C154.605 65.028 154.725 64.688 154.725 64.264C154.725 63.4 154.277 62.968 153.381 62.968H151.905V65.668H153.381ZM165.535 66.592C165.559 66.624 165.571 66.668 165.571 66.724C165.571 66.796 165.543 66.86 165.487 66.916C165.439 66.972 165.375 67 165.295 67H164.059C163.963 67 163.891 66.984 163.843 66.952C163.795 66.912 163.747 66.86 163.699 66.796L161.635 63.496H160.495V66.712C160.495 66.792 160.467 66.86 160.411 66.916C160.363 66.972 160.295 67 160.207 67H159.115C159.035 67 158.967 66.972 158.911 66.916C158.855 66.86 158.827 66.792 158.827 66.712V58.9C158.827 58.812 158.851 58.74 158.899 58.684C158.955 58.628 159.027 58.6 159.115 58.6H160.207C160.295 58.6 160.363 58.628 160.411 58.684C160.467 58.74 160.495 58.812 160.495 58.9V61.996L161.551 62.008L163.495 58.816C163.575 58.672 163.719 58.6 163.927 58.6H165.115C165.195 58.6 165.255 58.624 165.295 58.672C165.343 58.72 165.367 58.78 165.367 58.852C165.367 58.884 165.351 58.932 165.319 58.996L163.051 62.656L165.535 66.592ZM168.174 67C168.086 67 168.014 66.972 167.958 66.916C167.91 66.86 167.886 66.788 167.886 66.7V58.9C167.886 58.812 167.914 58.74 167.97 58.684C168.026 58.628 168.098 58.6 168.186 58.6H169.266C169.354 58.6 169.422 58.628 169.47 58.684C169.526 58.74 169.554 58.812 169.554 58.9V64.408L173.502 58.792C173.59 58.664 173.706 58.6 173.85 58.6H174.846C174.934 58.6 175.002 58.628 175.05 58.684C175.106 58.74 175.134 58.812 175.134 58.9V66.712C175.134 66.792 175.106 66.86 175.05 66.916C175.002 66.972 174.934 67 174.846 67H173.766C173.678 67 173.606 66.976 173.55 66.928C173.494 66.872 173.466 66.8 173.466 66.712V61.312L169.53 66.808C169.482 66.872 169.434 66.92 169.386 66.952C169.338 66.984 169.27 67 169.182 67H168.174ZM178.311 67C178.223 67 178.151 66.972 178.095 66.916C178.047 66.86 178.023 66.788 178.023 66.7V58.9C178.023 58.812 178.051 58.74 178.107 58.684C178.163 58.628 178.235 58.6 178.323 58.6H179.403C179.491 58.6 179.559 58.628 179.607 58.684C179.663 58.74 179.691 58.812 179.691 58.9V64.408L183.639 58.792C183.727 58.664 183.843 58.6 183.987 58.6H184.983C185.071 58.6 185.139 58.628 185.187 58.684C185.243 58.74 185.271 58.812 185.271 58.9V66.712C185.271 66.792 185.243 66.86 185.187 66.916C185.139 66.972 185.071 67 184.983 67H183.903C183.815 67 183.743 66.976 183.687 66.928C183.631 66.872 183.603 66.8 183.603 66.712V61.312L179.667 66.808C179.619 66.872 179.571 66.92 179.523 66.952C179.475 66.984 179.407 67 179.319 67H178.311ZM181.671 58.12C180.975 58.12 180.467 57.972 180.147 57.676C179.827 57.372 179.667 56.984 179.667 56.512C179.667 56.448 179.687 56.396 179.727 56.356C179.767 56.308 179.823 56.284 179.895 56.284H180.591C180.663 56.284 180.719 56.308 180.759 56.356C180.799 56.396 180.819 56.448 180.819 56.512C180.819 56.968 181.103 57.196 181.671 57.196C182.231 57.196 182.511 56.968 182.511 56.512C182.511 56.448 182.531 56.396 182.571 56.356C182.611 56.308 182.667 56.284 182.739 56.284H183.435C183.507 56.284 183.563 56.308 183.603 56.356C183.643 56.396 183.663 56.448 183.663 56.512C183.663 56.984 183.503 57.372 183.183 57.676C182.863 57.972 182.359 58.12 181.671 58.12ZM198.631 66.592C198.655 66.624 198.667 66.668 198.667 66.724C198.667 66.796 198.639 66.86 198.583 66.916C198.535 66.972 198.471 67 198.391 67H197.155C197.059 67 196.987 66.984 196.939 66.952C196.891 66.912 196.843 66.86 196.795 66.796L194.731 63.496H193.591V66.712C193.591 66.792 193.563 66.86 193.507 66.916C193.459 66.972 193.391 67 193.303 67H192.211C192.131 67 192.063 66.972 192.007 66.916C191.951 66.86 191.923 66.792 191.923 66.712V58.9C191.923 58.812 191.947 58.74 191.995 58.684C192.051 58.628 192.123 58.6 192.211 58.6H193.303C193.391 58.6 193.459 58.628 193.507 58.684C193.563 58.74 193.591 58.812 193.591 58.9V61.996L194.647 62.008L196.591 58.816C196.671 58.672 196.815 58.6 197.023 58.6H198.211C198.291 58.6 198.351 58.624 198.391 58.672C198.439 58.72 198.463 58.78 198.463 58.852C198.463 58.884 198.447 58.932 198.415 58.996L196.147 62.656L198.631 66.592ZM206.538 67C206.458 67 206.39 66.972 206.334 66.916C206.278 66.86 206.25 66.792 206.25 66.712V60.1H203.646V61.612C203.646 62.932 203.554 63.976 203.37 64.744C203.194 65.504 202.89 66.064 202.458 66.424C202.026 66.776 201.426 66.964 200.658 66.988C200.578 66.996 200.506 66.972 200.442 66.916C200.386 66.86 200.358 66.788 200.358 66.7V65.8C200.358 65.72 200.382 65.656 200.43 65.608C200.478 65.56 200.546 65.528 200.634 65.512C201.106 65.432 201.454 65.06 201.678 64.396C201.91 63.724 202.026 62.724 202.026 61.396V58.888C202.026 58.8 202.054 58.732 202.11 58.684C202.166 58.628 202.234 58.6 202.314 58.6H207.618C207.706 58.6 207.778 58.628 207.834 58.684C207.89 58.74 207.918 58.812 207.918 58.9V66.712C207.918 66.8 207.89 66.872 207.834 66.928C207.778 66.976 207.706 67 207.618 67H206.538ZM217.066 58.6C217.13 58.6 217.186 58.624 217.234 58.672C217.29 58.72 217.318 58.776 217.318 58.84C217.318 58.896 217.302 58.964 217.27 59.044L214.858 64.552C214.578 65.192 214.318 65.68 214.078 66.016C213.846 66.352 213.566 66.6 213.238 66.76C212.91 66.92 212.482 67 211.954 67H211.39C211.31 67 211.242 66.972 211.186 66.916C211.13 66.86 211.102 66.792 211.102 66.712V65.824C211.102 65.736 211.13 65.664 211.186 65.608C211.242 65.552 211.31 65.524 211.39 65.524H211.834C212.106 65.524 212.338 65.452 212.53 65.308C212.722 65.164 212.906 64.924 213.082 64.588L210.046 58.984C210.022 58.936 210.01 58.896 210.01 58.864C210.01 58.792 210.034 58.732 210.082 58.684C210.138 58.628 210.202 58.6 210.274 58.6H211.45C211.586 58.6 211.69 58.676 211.762 58.828L213.886 62.788L215.626 58.828C215.682 58.676 215.79 58.6 215.95 58.6H217.066ZM219.552 67C219.472 67 219.404 66.972 219.348 66.916C219.292 66.86 219.264 66.792 219.264 66.712V58.9C219.264 58.812 219.288 58.74 219.336 58.684C219.392 58.628 219.464 58.6 219.552 58.6H225.048C225.136 58.6 225.204 58.628 225.252 58.684C225.308 58.74 225.336 58.812 225.336 58.9V59.74C225.336 59.82 225.308 59.888 225.252 59.944C225.204 60 225.136 60.028 225.048 60.028H220.932V61.948H222.96C223.864 61.948 224.572 62.172 225.084 62.62C225.596 63.068 225.852 63.676 225.852 64.444C225.852 64.9 225.74 65.324 225.516 65.716C225.3 66.1 224.972 66.412 224.532 66.652C224.1 66.884 223.576 67 222.96 67H219.552ZM222.792 65.728C223.2 65.728 223.524 65.604 223.764 65.356C224.012 65.1 224.136 64.788 224.136 64.42C224.136 64.052 224.02 63.756 223.788 63.532C223.556 63.308 223.224 63.196 222.792 63.196H220.932V65.728H222.792Z" fill="white"/>
<path d="M2.08838 48H226.088V52H2.08838V48Z" fill="#C0C233"/>
</svg>
