<svg width="377" height="88" viewBox="0 0 377 88" fill="none" xmlns="http://www.w3.org/2000/svg">
<path d="M117.708 50.44C113.513 50.44 110.228 49.428 107.852 47.404C105.505 45.3507 104.259 42.388 104.112 38.516C104.083 37.724 104.068 36.4333 104.068 34.644C104.068 32.8253 104.083 31.5053 104.112 30.684C104.259 26.8707 105.535 23.9373 107.94 21.884C110.345 19.8013 113.601 18.76 117.708 18.76C120.289 18.76 122.607 19.2 124.66 20.08C126.713 20.9307 128.327 22.1627 129.5 23.776C130.703 25.36 131.319 27.2227 131.348 29.364V29.452C131.348 29.6867 131.245 29.892 131.04 30.068C130.864 30.2147 130.659 30.288 130.424 30.288H124.484C124.103 30.288 123.809 30.2147 123.604 30.068C123.399 29.892 123.223 29.584 123.076 29.144C122.665 27.648 122.02 26.6067 121.14 26.02C120.26 25.404 119.101 25.096 117.664 25.096C114.203 25.096 112.413 27.032 112.296 30.904C112.267 31.696 112.252 32.9133 112.252 34.556C112.252 36.1987 112.267 37.4453 112.296 38.296C112.413 42.168 114.203 44.104 117.664 44.104C119.101 44.104 120.275 43.796 121.184 43.18C122.093 42.5347 122.724 41.4933 123.076 40.056C123.193 39.616 123.355 39.3227 123.56 39.176C123.765 39 124.073 38.912 124.484 38.912H130.424C130.688 38.912 130.908 39 131.084 39.176C131.289 39.352 131.377 39.572 131.348 39.836C131.319 41.9773 130.703 43.8547 129.5 45.468C128.327 47.052 126.713 48.284 124.66 49.164C122.607 50.0147 120.289 50.44 117.708 50.44ZM146.843 50.44C142.648 50.44 139.363 49.428 136.987 47.404C134.64 45.3507 133.393 42.388 133.247 38.516C133.217 37.724 133.203 36.4333 133.203 34.644C133.203 32.8253 133.217 31.5053 133.247 30.684C133.393 26.8707 134.669 23.9373 137.075 21.884C139.48 19.8013 142.736 18.76 146.843 18.76C149.424 18.76 151.741 19.2 153.795 20.08C155.848 20.9307 157.461 22.1627 158.635 23.776C159.837 25.36 160.453 27.2227 160.483 29.364V29.452C160.483 29.6867 160.38 29.892 160.175 30.068C159.999 30.2147 159.793 30.288 159.559 30.288H153.619C153.237 30.288 152.944 30.2147 152.739 30.068C152.533 29.892 152.357 29.584 152.211 29.144C151.8 27.648 151.155 26.6067 150.275 26.02C149.395 25.404 148.236 25.096 146.799 25.096C143.337 25.096 141.548 27.032 141.431 30.904C141.401 31.696 141.387 32.9133 141.387 34.556C141.387 36.1987 141.401 37.4453 141.431 38.296C141.548 42.168 143.337 44.104 146.799 44.104C148.236 44.104 149.409 43.796 150.319 43.18C151.228 42.5347 151.859 41.4933 152.211 40.056C152.328 39.616 152.489 39.3227 152.695 39.176C152.9 39 153.208 38.912 153.619 38.912H159.559C159.823 38.912 160.043 39 160.219 39.176C160.424 39.352 160.512 39.572 160.483 39.836C160.453 41.9773 159.837 43.8547 158.635 45.468C157.461 47.052 155.848 48.284 153.795 49.164C151.741 50.0147 149.424 50.44 146.843 50.44ZM189.969 48.504C190.057 48.6213 190.101 48.7827 190.101 48.988C190.101 49.2813 189.998 49.5307 189.793 49.736C189.617 49.912 189.382 50 189.089 50H182.577C182.166 50 181.858 49.9267 181.653 49.78C181.477 49.6333 181.272 49.428 181.037 49.164L174.305 37.944H171.269V48.9C171.269 49.2227 171.152 49.4867 170.917 49.692C170.712 49.8973 170.448 50 170.125 50H164.449C164.126 50 163.862 49.8973 163.657 49.692C163.452 49.4867 163.349 49.2227 163.349 48.9V20.3C163.349 19.9773 163.452 19.7133 163.657 19.508C163.892 19.3027 164.156 19.2 164.449 19.2H170.125C170.448 19.2 170.712 19.3027 170.917 19.508C171.152 19.7133 171.269 19.9773 171.269 20.3V30.904L173.953 30.948L180.421 20.036C180.744 19.4787 181.286 19.2 182.049 19.2H188.429C188.693 19.2 188.913 19.288 189.089 19.464C189.265 19.64 189.353 19.86 189.353 20.124C189.353 20.2413 189.294 20.4173 189.177 20.652L180.993 34.028L189.969 48.504Z" fill="#C0C233"/>
<path d="M201.148 50C200.854 50 200.59 49.8973 200.356 49.692C200.15 49.4573 200.048 49.1933 200.048 48.9V20.3C200.048 19.9773 200.15 19.7133 200.356 19.508C200.59 19.3027 200.854 19.2 201.148 19.2H222.268C222.59 19.2 222.854 19.3027 223.06 19.508C223.265 19.7133 223.368 19.9773 223.368 20.3V24.7C223.368 25.0227 223.265 25.3013 223.06 25.536C222.854 25.7413 222.59 25.844 222.268 25.844H207.968V31.036H214.084C217.604 31.036 220.376 31.872 222.4 33.544C224.424 35.216 225.436 37.504 225.436 40.408C225.436 42.2267 224.996 43.8693 224.116 45.336C223.236 46.7733 221.945 47.9173 220.244 48.768C218.542 49.5893 216.489 50 214.084 50H201.148ZM213.38 44.28C214.582 44.28 215.521 43.8987 216.196 43.136C216.9 42.3733 217.252 41.4493 217.252 40.364C217.252 39.2787 216.914 38.384 216.24 37.68C215.565 36.976 214.612 36.624 213.38 36.624H207.968V44.28H213.38ZM251.802 19.2C252.066 19.2 252.286 19.3027 252.462 19.508C252.667 19.684 252.77 19.8893 252.77 20.124C252.77 20.2707 252.696 20.5347 252.55 20.916L243.794 41.024C242.767 43.4 241.784 45.2187 240.846 46.48C239.936 47.712 238.822 48.6067 237.502 49.164C236.211 49.7213 234.48 50 232.31 50H229.978C229.684 50 229.42 49.8973 229.186 49.692C228.98 49.4573 228.878 49.1933 228.878 48.9V44.236C228.878 43.9133 228.98 43.6493 229.186 43.444C229.42 43.2387 229.684 43.136 229.978 43.136H231.65C232.5 43.136 233.234 42.96 233.85 42.608C234.466 42.2267 235.023 41.6253 235.522 40.804L224.61 20.564C224.551 20.4467 224.522 20.3147 224.522 20.168C224.522 19.9333 224.624 19.7133 224.83 19.508C225.035 19.3027 225.284 19.2 225.578 19.2H231.65C232.207 19.2 232.632 19.508 232.926 20.124L239.306 32.532L244.718 20.124C244.952 19.508 245.392 19.2 246.038 19.2H251.802ZM272.937 50C272.644 50 272.38 49.8973 272.145 49.692C271.94 49.4573 271.837 49.1933 271.837 48.9V26.24H263.653V30.244C263.653 35.2013 263.331 39.0733 262.685 41.86C262.04 44.6173 260.852 46.656 259.121 47.976C257.42 49.2667 254.941 49.9413 251.685 50C251.363 50 251.084 49.8973 250.849 49.692C250.615 49.4573 250.497 49.1787 250.497 48.856V44.236C250.497 43.62 250.864 43.2387 251.597 43.092C253.181 42.828 254.311 41.5373 254.985 39.22C255.66 36.8733 255.997 33.544 255.997 29.232V20.3C255.997 19.9773 256.1 19.7133 256.305 19.508C256.54 19.3027 256.819 19.2 257.141 19.2H278.613C278.936 19.2 279.2 19.3027 279.405 19.508C279.64 19.7133 279.757 19.9773 279.757 20.3V48.9C279.757 49.2227 279.64 49.4867 279.405 49.692C279.2 49.8973 278.936 50 278.613 50H272.937ZM282.34 50C282.105 50 281.885 49.912 281.68 49.736C281.504 49.5307 281.416 49.3107 281.416 49.076C281.416 48.9 281.431 48.768 281.46 48.68L291.8 20.432C291.888 20.08 292.079 19.7867 292.372 19.552C292.665 19.3173 293.047 19.2 293.516 19.2H300.028C300.497 19.2 300.879 19.3173 301.172 19.552C301.465 19.7867 301.656 20.08 301.744 20.432L312.04 48.68L312.128 49.076C312.128 49.3107 312.025 49.5307 311.82 49.736C311.644 49.912 311.424 50 311.16 50H305.748C305.044 50 304.575 49.692 304.34 49.076L302.624 44.588H290.876L289.204 49.076C288.969 49.692 288.485 50 287.752 50H282.34ZM300.864 38.252L296.772 26.636L292.68 38.252H300.864ZM321.712 50C321.419 50 321.155 49.8973 320.92 49.692C320.715 49.4573 320.612 49.1933 320.612 48.9V26.108H312.78C312.487 26.108 312.223 26.0053 311.988 25.8C311.783 25.5653 311.68 25.3013 311.68 25.008V20.3C311.68 19.9773 311.783 19.7133 311.988 19.508C312.223 19.3027 312.487 19.2 312.78 19.2H336.452C336.775 19.2 337.039 19.3027 337.244 19.508C337.449 19.7133 337.552 19.9773 337.552 20.3V25.008C337.552 25.3307 337.449 25.5947 337.244 25.8C337.039 26.0053 336.775 26.108 336.452 26.108H328.62V48.9C328.62 49.1933 328.517 49.4573 328.312 49.692C328.107 49.8973 327.843 50 327.52 50H321.712Z" fill="white"/>
<path d="M108.176 76.12C107.072 76.12 106.216 75.836 105.608 75.268C105.008 74.7 104.688 73.9 104.648 72.868C104.64 72.652 104.636 72.3 104.636 71.812C104.636 71.316 104.64 70.956 104.648 70.732C104.688 69.708 105.012 68.912 105.62 68.344C106.236 67.768 107.088 67.48 108.176 67.48C108.888 67.48 109.508 67.604 110.036 67.852C110.564 68.092 110.972 68.424 111.26 68.848C111.548 69.264 111.7 69.736 111.716 70.264V70.288C111.716 70.352 111.688 70.408 111.632 70.456C111.584 70.496 111.528 70.516 111.464 70.516H110.324C110.228 70.516 110.156 70.496 110.108 70.456C110.06 70.416 110.02 70.34 109.988 70.228C109.86 69.724 109.648 69.372 109.352 69.172C109.056 68.964 108.66 68.86 108.164 68.86C107.012 68.86 106.412 69.504 106.364 70.792C106.356 71.008 106.352 71.34 106.352 71.788C106.352 72.236 106.356 72.576 106.364 72.808C106.412 74.096 107.012 74.74 108.164 74.74C108.66 74.74 109.056 74.636 109.352 74.428C109.656 74.22 109.868 73.868 109.988 73.372C110.012 73.26 110.048 73.184 110.096 73.144C110.152 73.104 110.228 73.084 110.324 73.084H111.464C111.536 73.084 111.596 73.108 111.644 73.156C111.7 73.204 111.724 73.264 111.716 73.336C111.7 73.864 111.548 74.34 111.26 74.764C110.972 75.18 110.564 75.512 110.036 75.76C109.508 76 108.888 76.12 108.176 76.12ZM114.447 76C114.367 76 114.299 75.972 114.243 75.916C114.187 75.86 114.159 75.792 114.159 75.712V67.9C114.159 67.812 114.183 67.74 114.231 67.684C114.287 67.628 114.359 67.6 114.447 67.6H120.735C120.823 67.6 120.895 67.628 120.951 67.684C121.007 67.74 121.035 67.812 121.035 67.9V75.712C121.035 75.8 121.007 75.872 120.951 75.928C120.895 75.976 120.823 76 120.735 76H119.655C119.575 76 119.507 75.972 119.451 75.916C119.395 75.86 119.367 75.792 119.367 75.712V69.1H115.827V75.712C115.827 75.792 115.799 75.86 115.743 75.916C115.695 75.972 115.627 76 115.539 76H114.447ZM127.149 76.12C126.061 76.12 125.213 75.844 124.605 75.292C123.997 74.74 123.677 73.92 123.645 72.832C123.637 72.6 123.633 72.26 123.633 71.812C123.633 71.356 123.637 71.012 123.645 70.78C123.677 69.716 124.005 68.9 124.629 68.332C125.253 67.764 126.093 67.48 127.149 67.48C128.205 67.48 129.045 67.764 129.669 68.332C130.301 68.9 130.633 69.716 130.665 70.78C130.681 71.244 130.689 71.588 130.689 71.812C130.689 72.028 130.681 72.368 130.665 72.832C130.625 73.92 130.301 74.74 129.693 75.292C129.085 75.844 128.237 76.12 127.149 76.12ZM127.149 74.74C127.685 74.74 128.113 74.58 128.433 74.26C128.753 73.932 128.925 73.436 128.949 72.772C128.965 72.292 128.973 71.968 128.973 71.8C128.973 71.616 128.965 71.292 128.949 70.828C128.925 70.164 128.753 69.672 128.433 69.352C128.113 69.024 127.685 68.86 127.149 68.86C126.621 68.86 126.197 69.024 125.877 69.352C125.557 69.672 125.385 70.164 125.361 70.828C125.353 71.06 125.349 71.384 125.349 71.8C125.349 72.208 125.353 72.532 125.361 72.772C125.385 73.436 125.553 73.932 125.865 74.26C126.185 74.58 126.613 74.74 127.149 74.74ZM133.573 76C133.493 76 133.425 75.972 133.369 75.916C133.313 75.86 133.285 75.792 133.285 75.712V67.9C133.285 67.812 133.309 67.74 133.357 67.684C133.413 67.628 133.485 67.6 133.573 67.6H136.789C137.749 67.6 138.505 67.828 139.057 68.284C139.609 68.732 139.885 69.392 139.885 70.264C139.885 71.136 139.609 71.796 139.057 72.244C138.513 72.684 137.757 72.904 136.789 72.904H135.001V75.712C135.001 75.792 134.973 75.86 134.917 75.916C134.869 75.972 134.801 76 134.713 76H133.573ZM136.729 71.572C137.193 71.572 137.549 71.464 137.797 71.248C138.045 71.024 138.169 70.696 138.169 70.264C138.169 69.848 138.049 69.524 137.809 69.292C137.569 69.052 137.209 68.932 136.729 68.932H134.977V71.572H136.729ZM144.351 76C144.271 76 144.203 75.972 144.147 75.916C144.091 75.86 144.063 75.792 144.063 75.712V69.076H141.843C141.763 69.076 141.695 69.048 141.639 68.992C141.583 68.936 141.555 68.868 141.555 68.788V67.9C141.555 67.812 141.579 67.74 141.627 67.684C141.683 67.628 141.755 67.6 141.843 67.6H147.963C148.051 67.6 148.123 67.628 148.179 67.684C148.235 67.74 148.263 67.812 148.263 67.9V68.788C148.263 68.868 148.235 68.936 148.179 68.992C148.123 69.048 148.051 69.076 147.963 69.076H145.755V75.712C145.755 75.792 145.727 75.86 145.671 75.916C145.615 75.972 145.543 76 145.455 76H144.351ZM150.789 76C150.701 76 150.629 75.972 150.573 75.916C150.525 75.86 150.501 75.788 150.501 75.7V67.9C150.501 67.812 150.529 67.74 150.585 67.684C150.641 67.628 150.713 67.6 150.801 67.6H151.881C151.969 67.6 152.037 67.628 152.085 67.684C152.141 67.74 152.169 67.812 152.169 67.9V73.408L156.117 67.792C156.205 67.664 156.321 67.6 156.465 67.6H157.461C157.549 67.6 157.617 67.628 157.665 67.684C157.721 67.74 157.749 67.812 157.749 67.9V75.712C157.749 75.792 157.721 75.86 157.665 75.916C157.617 75.972 157.549 76 157.461 76H156.381C156.293 76 156.221 75.976 156.165 75.928C156.109 75.872 156.081 75.8 156.081 75.712V70.312L152.145 75.808C152.097 75.872 152.049 75.92 152.001 75.952C151.953 75.984 151.885 76 151.797 76H150.789ZM160.926 76C160.846 76 160.778 75.972 160.722 75.916C160.666 75.86 160.638 75.792 160.638 75.712V67.9C160.638 67.812 160.662 67.74 160.71 67.684C160.766 67.628 160.838 67.6 160.926 67.6H164.406C165.342 67.6 166.038 67.808 166.494 68.224C166.958 68.632 167.19 69.192 167.19 69.904C167.19 70.32 167.086 70.676 166.878 70.972C166.678 71.26 166.442 71.468 166.17 71.596C166.506 71.748 166.786 71.996 167.01 72.34C167.242 72.684 167.358 73.076 167.358 73.516C167.358 74.26 167.106 74.86 166.602 75.316C166.106 75.772 165.406 76 164.502 76H160.926ZM164.19 71.044C164.606 71.044 164.922 70.944 165.138 70.744C165.354 70.544 165.462 70.276 165.462 69.94C165.462 69.596 165.354 69.332 165.138 69.148C164.922 68.956 164.606 68.86 164.19 68.86H162.306V71.044H164.19ZM164.31 74.728C164.726 74.728 165.05 74.616 165.282 74.392C165.514 74.16 165.63 73.868 165.63 73.516C165.63 73.156 165.514 72.864 165.282 72.64C165.05 72.408 164.726 72.292 164.31 72.292H162.306V74.728H164.31ZM170.173 76C170.093 76 170.025 75.972 169.969 75.916C169.913 75.86 169.885 75.792 169.885 75.712V67.9C169.885 67.812 169.909 67.74 169.957 67.684C170.013 67.628 170.085 67.6 170.173 67.6H171.265C171.353 67.6 171.421 67.628 171.469 67.684C171.525 67.74 171.553 67.812 171.553 67.9V70.996H175.093V67.9C175.093 67.812 175.117 67.74 175.165 67.684C175.221 67.628 175.293 67.6 175.381 67.6H176.461C176.549 67.6 176.621 67.628 176.677 67.684C176.733 67.74 176.761 67.812 176.761 67.9V75.712C176.761 75.8 176.733 75.872 176.677 75.928C176.621 75.976 176.549 76 176.461 76H175.381C175.301 76 175.233 75.972 175.177 75.916C175.121 75.86 175.093 75.792 175.093 75.712V72.496H171.553V75.712C171.553 75.792 171.525 75.86 171.469 75.916C171.421 75.972 171.353 76 171.265 76H170.173ZM182.875 76.12C181.787 76.12 180.939 75.844 180.331 75.292C179.723 74.74 179.403 73.92 179.371 72.832C179.363 72.6 179.359 72.26 179.359 71.812C179.359 71.356 179.363 71.012 179.371 70.78C179.403 69.716 179.731 68.9 180.355 68.332C180.979 67.764 181.819 67.48 182.875 67.48C183.931 67.48 184.771 67.764 185.395 68.332C186.027 68.9 186.359 69.716 186.391 70.78C186.407 71.244 186.415 71.588 186.415 71.812C186.415 72.028 186.407 72.368 186.391 72.832C186.351 73.92 186.027 74.74 185.419 75.292C184.811 75.844 183.963 76.12 182.875 76.12ZM182.875 74.74C183.411 74.74 183.839 74.58 184.159 74.26C184.479 73.932 184.651 73.436 184.675 72.772C184.691 72.292 184.699 71.968 184.699 71.8C184.699 71.616 184.691 71.292 184.675 70.828C184.651 70.164 184.479 69.672 184.159 69.352C183.839 69.024 183.411 68.86 182.875 68.86C182.347 68.86 181.923 69.024 181.603 69.352C181.283 69.672 181.111 70.164 181.087 70.828C181.079 71.06 181.075 71.384 181.075 71.8C181.075 72.208 181.079 72.532 181.087 72.772C181.111 73.436 181.279 73.932 181.591 74.26C181.911 74.58 182.339 74.74 182.875 74.74ZM196.013 76.12C194.909 76.12 194.053 75.836 193.445 75.268C192.845 74.7 192.525 73.9 192.485 72.868C192.477 72.652 192.473 72.3 192.473 71.812C192.473 71.316 192.477 70.956 192.485 70.732C192.525 69.708 192.849 68.912 193.457 68.344C194.073 67.768 194.925 67.48 196.013 67.48C196.725 67.48 197.345 67.604 197.873 67.852C198.401 68.092 198.809 68.424 199.097 68.848C199.385 69.264 199.537 69.736 199.553 70.264V70.288C199.553 70.352 199.525 70.408 199.469 70.456C199.421 70.496 199.365 70.516 199.301 70.516H198.161C198.065 70.516 197.993 70.496 197.945 70.456C197.897 70.416 197.857 70.34 197.825 70.228C197.697 69.724 197.485 69.372 197.189 69.172C196.893 68.964 196.497 68.86 196.001 68.86C194.849 68.86 194.249 69.504 194.201 70.792C194.193 71.008 194.189 71.34 194.189 71.788C194.189 72.236 194.193 72.576 194.201 72.808C194.249 74.096 194.849 74.74 196.001 74.74C196.497 74.74 196.893 74.636 197.189 74.428C197.493 74.22 197.705 73.868 197.825 73.372C197.849 73.26 197.885 73.184 197.933 73.144C197.989 73.104 198.065 73.084 198.161 73.084H199.301C199.373 73.084 199.433 73.108 199.481 73.156C199.537 73.204 199.561 73.264 199.553 73.336C199.537 73.864 199.385 74.34 199.097 74.764C198.809 75.18 198.401 75.512 197.873 75.76C197.345 76 196.725 76.12 196.013 76.12ZM204.132 76C204.052 76 203.984 75.972 203.928 75.916C203.872 75.86 203.844 75.792 203.844 75.712V69.076H201.624C201.544 69.076 201.476 69.048 201.42 68.992C201.364 68.936 201.336 68.868 201.336 68.788V67.9C201.336 67.812 201.36 67.74 201.408 67.684C201.464 67.628 201.536 67.6 201.624 67.6H207.744C207.832 67.6 207.904 67.628 207.96 67.684C208.016 67.74 208.044 67.812 208.044 67.9V68.788C208.044 68.868 208.016 68.936 207.96 68.992C207.904 69.048 207.832 69.076 207.744 69.076H205.536V75.712C205.536 75.792 205.508 75.86 205.452 75.916C205.396 75.972 205.324 76 205.236 76H204.132ZM210.569 76C210.489 76 210.421 75.972 210.365 75.916C210.309 75.86 210.281 75.792 210.281 75.712V67.9C210.281 67.812 210.305 67.74 210.353 67.684C210.409 67.628 210.481 67.6 210.569 67.6H213.785C214.745 67.6 215.501 67.828 216.053 68.284C216.605 68.732 216.881 69.392 216.881 70.264C216.881 71.136 216.605 71.796 216.053 72.244C215.509 72.684 214.753 72.904 213.785 72.904H211.997V75.712C211.997 75.792 211.969 75.86 211.913 75.916C211.865 75.972 211.797 76 211.709 76H210.569ZM213.725 71.572C214.189 71.572 214.545 71.464 214.793 71.248C215.041 71.024 215.165 70.696 215.165 70.264C215.165 69.848 215.045 69.524 214.805 69.292C214.565 69.052 214.205 68.932 213.725 68.932H211.973V71.572H213.725ZM219.5 76C219.42 76 219.352 75.972 219.296 75.916C219.24 75.86 219.212 75.792 219.212 75.712V67.888C219.212 67.8 219.24 67.732 219.296 67.684C219.352 67.628 219.42 67.6 219.5 67.6H220.628C220.716 67.6 220.784 67.628 220.832 67.684C220.888 67.732 220.916 67.8 220.916 67.888V75.712C220.916 75.792 220.888 75.86 220.832 75.916C220.784 75.972 220.716 76 220.628 76H219.5ZM229.374 76C229.294 76 229.226 75.972 229.17 75.916C229.114 75.86 229.086 75.792 229.086 75.712V69.1H226.482V70.612C226.482 71.932 226.39 72.976 226.206 73.744C226.03 74.504 225.726 75.064 225.294 75.424C224.862 75.776 224.262 75.964 223.494 75.988C223.414 75.996 223.342 75.972 223.278 75.916C223.222 75.86 223.194 75.788 223.194 75.7V74.8C223.194 74.72 223.218 74.656 223.266 74.608C223.314 74.56 223.382 74.528 223.47 74.512C223.942 74.432 224.29 74.06 224.514 73.396C224.746 72.724 224.862 71.724 224.862 70.396V67.888C224.862 67.8 224.89 67.732 224.946 67.684C225.002 67.628 225.07 67.6 225.15 67.6H230.454C230.542 67.6 230.614 67.628 230.67 67.684C230.726 67.74 230.754 67.812 230.754 67.9V75.712C230.754 75.8 230.726 75.872 230.67 75.928C230.614 75.976 230.542 76 230.454 76H229.374ZM233.938 76C233.858 76 233.79 75.972 233.734 75.916C233.678 75.86 233.65 75.792 233.65 75.712V67.9C233.65 67.812 233.674 67.74 233.722 67.684C233.778 67.628 233.85 67.6 233.938 67.6H239.218C239.306 67.6 239.378 67.628 239.434 67.684C239.49 67.74 239.518 67.812 239.518 67.9V68.692C239.518 68.78 239.49 68.852 239.434 68.908C239.378 68.956 239.306 68.98 239.218 68.98H235.27V71.104H238.954C239.042 71.104 239.114 71.132 239.17 71.188C239.226 71.236 239.254 71.304 239.254 71.392V72.136C239.254 72.224 239.226 72.296 239.17 72.352C239.114 72.4 239.042 72.424 238.954 72.424H235.27V74.62H239.314C239.402 74.62 239.474 74.648 239.53 74.704C239.586 74.76 239.614 74.832 239.614 74.92V75.712C239.614 75.8 239.586 75.872 239.53 75.928C239.474 75.976 239.402 76 239.314 76H233.938ZM248.507 77.68C248.427 77.68 248.359 77.652 248.303 77.596C248.247 77.548 248.219 77.48 248.219 77.392V76H242.423C242.335 76 242.263 75.972 242.207 75.916C242.159 75.86 242.135 75.788 242.135 75.7V67.888C242.135 67.8 242.163 67.732 242.219 67.684C242.275 67.628 242.343 67.6 242.423 67.6H243.515C243.603 67.6 243.671 67.628 243.719 67.684C243.775 67.732 243.803 67.8 243.803 67.888V74.5H247.343V67.888C247.343 67.8 247.371 67.732 247.427 67.684C247.483 67.628 247.551 67.6 247.631 67.6H248.711C248.799 67.6 248.871 67.628 248.927 67.684C248.983 67.732 249.011 67.8 249.011 67.888V74.5H249.587C249.675 74.5 249.747 74.528 249.803 74.584C249.859 74.64 249.887 74.708 249.887 74.788V77.392C249.887 77.472 249.859 77.54 249.803 77.596C249.747 77.652 249.675 77.68 249.587 77.68H248.507ZM252.525 76C252.445 76 252.377 75.972 252.321 75.916C252.265 75.86 252.237 75.792 252.237 75.712V67.888C252.237 67.8 252.265 67.732 252.321 67.684C252.377 67.628 252.445 67.6 252.525 67.6H253.617C253.705 67.6 253.773 67.628 253.821 67.684C253.877 67.732 253.905 67.8 253.905 67.888V70.636H255.453C256.413 70.636 257.149 70.86 257.661 71.308C258.181 71.756 258.441 72.412 258.441 73.276C258.441 73.796 258.325 74.264 258.093 74.68C257.869 75.088 257.533 75.412 257.085 75.652C256.637 75.884 256.093 76 255.453 76H252.525ZM255.381 74.668C255.805 74.668 256.133 74.54 256.365 74.284C256.605 74.028 256.725 73.688 256.725 73.264C256.725 72.4 256.277 71.968 255.381 71.968H253.905V74.668H255.381ZM267.535 75.592C267.559 75.624 267.571 75.668 267.571 75.724C267.571 75.796 267.543 75.86 267.487 75.916C267.439 75.972 267.375 76 267.295 76H266.059C265.963 76 265.891 75.984 265.843 75.952C265.795 75.912 265.747 75.86 265.699 75.796L263.635 72.496H262.495V75.712C262.495 75.792 262.467 75.86 262.411 75.916C262.363 75.972 262.295 76 262.207 76H261.115C261.035 76 260.967 75.972 260.911 75.916C260.855 75.86 260.827 75.792 260.827 75.712V67.9C260.827 67.812 260.851 67.74 260.899 67.684C260.955 67.628 261.027 67.6 261.115 67.6H262.207C262.295 67.6 262.363 67.628 262.411 67.684C262.467 67.74 262.495 67.812 262.495 67.9V70.996L263.551 71.008L265.495 67.816C265.575 67.672 265.719 67.6 265.927 67.6H267.115C267.195 67.6 267.255 67.624 267.295 67.672C267.343 67.72 267.367 67.78 267.367 67.852C267.367 67.884 267.351 67.932 267.319 67.996L265.051 71.656L267.535 75.592ZM270.174 76C270.086 76 270.014 75.972 269.958 75.916C269.91 75.86 269.886 75.788 269.886 75.7V67.9C269.886 67.812 269.914 67.74 269.97 67.684C270.026 67.628 270.098 67.6 270.186 67.6H271.266C271.354 67.6 271.422 67.628 271.47 67.684C271.526 67.74 271.554 67.812 271.554 67.9V73.408L275.502 67.792C275.59 67.664 275.706 67.6 275.85 67.6H276.846C276.934 67.6 277.002 67.628 277.05 67.684C277.106 67.74 277.134 67.812 277.134 67.9V75.712C277.134 75.792 277.106 75.86 277.05 75.916C277.002 75.972 276.934 76 276.846 76H275.766C275.678 76 275.606 75.976 275.55 75.928C275.494 75.872 275.466 75.8 275.466 75.712V70.312L271.53 75.808C271.482 75.872 271.434 75.92 271.386 75.952C271.338 75.984 271.27 76 271.182 76H270.174ZM280.311 76C280.223 76 280.151 75.972 280.095 75.916C280.047 75.86 280.023 75.788 280.023 75.7V67.9C280.023 67.812 280.051 67.74 280.107 67.684C280.163 67.628 280.235 67.6 280.323 67.6H281.403C281.491 67.6 281.559 67.628 281.607 67.684C281.663 67.74 281.691 67.812 281.691 67.9V73.408L285.639 67.792C285.727 67.664 285.843 67.6 285.987 67.6H286.983C287.071 67.6 287.139 67.628 287.187 67.684C287.243 67.74 287.271 67.812 287.271 67.9V75.712C287.271 75.792 287.243 75.86 287.187 75.916C287.139 75.972 287.071 76 286.983 76H285.903C285.815 76 285.743 75.976 285.687 75.928C285.631 75.872 285.603 75.8 285.603 75.712V70.312L281.667 75.808C281.619 75.872 281.571 75.92 281.523 75.952C281.475 75.984 281.407 76 281.319 76H280.311ZM283.671 67.12C282.975 67.12 282.467 66.972 282.147 66.676C281.827 66.372 281.667 65.984 281.667 65.512C281.667 65.448 281.687 65.396 281.727 65.356C281.767 65.308 281.823 65.284 281.895 65.284H282.591C282.663 65.284 282.719 65.308 282.759 65.356C282.799 65.396 282.819 65.448 282.819 65.512C282.819 65.968 283.103 66.196 283.671 66.196C284.231 66.196 284.511 65.968 284.511 65.512C284.511 65.448 284.531 65.396 284.571 65.356C284.611 65.308 284.667 65.284 284.739 65.284H285.435C285.507 65.284 285.563 65.308 285.603 65.356C285.643 65.396 285.663 65.448 285.663 65.512C285.663 65.984 285.503 66.372 285.183 66.676C284.863 66.972 284.359 67.12 283.671 67.12ZM300.631 75.592C300.655 75.624 300.667 75.668 300.667 75.724C300.667 75.796 300.639 75.86 300.583 75.916C300.535 75.972 300.471 76 300.391 76H299.155C299.059 76 298.987 75.984 298.939 75.952C298.891 75.912 298.843 75.86 298.795 75.796L296.731 72.496H295.591V75.712C295.591 75.792 295.563 75.86 295.507 75.916C295.459 75.972 295.391 76 295.303 76H294.211C294.131 76 294.063 75.972 294.007 75.916C293.951 75.86 293.923 75.792 293.923 75.712V67.9C293.923 67.812 293.947 67.74 293.995 67.684C294.051 67.628 294.123 67.6 294.211 67.6H295.303C295.391 67.6 295.459 67.628 295.507 67.684C295.563 67.74 295.591 67.812 295.591 67.9V70.996L296.647 71.008L298.591 67.816C298.671 67.672 298.815 67.6 299.023 67.6H300.211C300.291 67.6 300.351 67.624 300.391 67.672C300.439 67.72 300.463 67.78 300.463 67.852C300.463 67.884 300.447 67.932 300.415 67.996L298.147 71.656L300.631 75.592ZM308.538 76C308.458 76 308.39 75.972 308.334 75.916C308.278 75.86 308.25 75.792 308.25 75.712V69.1H305.646V70.612C305.646 71.932 305.554 72.976 305.37 73.744C305.194 74.504 304.89 75.064 304.458 75.424C304.026 75.776 303.426 75.964 302.658 75.988C302.578 75.996 302.506 75.972 302.442 75.916C302.386 75.86 302.358 75.788 302.358 75.7V74.8C302.358 74.72 302.382 74.656 302.43 74.608C302.478 74.56 302.546 74.528 302.634 74.512C303.106 74.432 303.454 74.06 303.678 73.396C303.91 72.724 304.026 71.724 304.026 70.396V67.888C304.026 67.8 304.054 67.732 304.11 67.684C304.166 67.628 304.234 67.6 304.314 67.6H309.618C309.706 67.6 309.778 67.628 309.834 67.684C309.89 67.74 309.918 67.812 309.918 67.9V75.712C309.918 75.8 309.89 75.872 309.834 75.928C309.778 75.976 309.706 76 309.618 76H308.538ZM319.066 67.6C319.13 67.6 319.186 67.624 319.234 67.672C319.29 67.72 319.318 67.776 319.318 67.84C319.318 67.896 319.302 67.964 319.27 68.044L316.858 73.552C316.578 74.192 316.318 74.68 316.078 75.016C315.846 75.352 315.566 75.6 315.238 75.76C314.91 75.92 314.482 76 313.954 76H313.39C313.31 76 313.242 75.972 313.186 75.916C313.13 75.86 313.102 75.792 313.102 75.712V74.824C313.102 74.736 313.13 74.664 313.186 74.608C313.242 74.552 313.31 74.524 313.39 74.524H313.834C314.106 74.524 314.338 74.452 314.53 74.308C314.722 74.164 314.906 73.924 315.082 73.588L312.046 67.984C312.022 67.936 312.01 67.896 312.01 67.864C312.01 67.792 312.034 67.732 312.082 67.684C312.138 67.628 312.202 67.6 312.274 67.6H313.45C313.586 67.6 313.69 67.676 313.762 67.828L315.886 71.788L317.626 67.828C317.682 67.676 317.79 67.6 317.95 67.6H319.066ZM321.552 76C321.472 76 321.404 75.972 321.348 75.916C321.292 75.86 321.264 75.792 321.264 75.712V67.9C321.264 67.812 321.288 67.74 321.336 67.684C321.392 67.628 321.464 67.6 321.552 67.6H327.048C327.136 67.6 327.204 67.628 327.252 67.684C327.308 67.74 327.336 67.812 327.336 67.9V68.74C327.336 68.82 327.308 68.888 327.252 68.944C327.204 69 327.136 69.028 327.048 69.028H322.932V70.948H324.96C325.864 70.948 326.572 71.172 327.084 71.62C327.596 72.068 327.852 72.676 327.852 73.444C327.852 73.9 327.74 74.324 327.516 74.716C327.3 75.1 326.972 75.412 326.532 75.652C326.1 75.884 325.576 76 324.96 76H321.552ZM324.792 74.728C325.2 74.728 325.524 74.604 325.764 74.356C326.012 74.1 326.136 73.788 326.136 73.42C326.136 73.052 326.02 72.756 325.788 72.532C325.556 72.308 325.224 72.196 324.792 72.196H322.932V74.728H324.792Z" fill="white"/>
<path d="M104.088 57H328.088V61H104.088V57Z" fill="#C0C233"/>
<path fill-rule="evenodd" clip-rule="evenodd" d="M44 2.31579C20.9784 2.31579 2.31579 20.9784 2.31579 44C2.31579 67.0216 20.9784 85.6842 44 85.6842C67.0216 85.6842 85.6842 67.0216 85.6842 44C85.6842 20.9784 67.0216 2.31579 44 2.31579ZM0 44C0 19.6995 19.6995 0 44 0C68.3005 0 88 19.6995 88 44C88 68.3005 68.3005 88 44 88C19.6995 88 0 68.3005 0 44Z" fill="#C0C233"/>
<path d="M83.7406 44C83.7406 65.948 65.9482 83.7404 44.0002 83.7404C22.0522 83.7404 4.25977 65.948 4.25977 44C4.25977 22.0519 22.0522 4.25955 44.0002 4.25955C65.9482 4.25955 83.7406 22.0519 83.7406 44Z" fill="#C0C233"/>
<path fill-rule="evenodd" clip-rule="evenodd" d="M52.0265 8.22404C49.4735 7.65914 46.82 7.3613 44.097 7.3613C23.9155 7.3613 7.55518 23.7216 7.55518 43.9031H9.57965C9.57965 24.8397 25.0336 9.38577 44.097 9.38577C46.7059 9.38577 49.2473 9.67523 51.6908 10.2238L52.0265 8.22404ZM54.2456 10.9018C59.7749 12.6001 64.7127 15.65 68.6735 19.666L70.117 18.2464C65.8622 13.9318 60.5423 10.6703 54.5837 8.88832L54.2456 10.9018ZM77.9279 37.0199C76.7273 31.0869 74.0052 25.7059 70.1864 21.3016L71.6325 19.8793C75.8061 24.6592 78.7555 30.5358 79.9914 37.0199H77.9279ZM78.3296 39.4492C78.5174 40.9073 78.6143 42.3938 78.6143 43.9031C78.6143 62.9665 63.1603 78.4204 44.097 78.4204C42.5838 78.4204 41.0933 78.323 39.6315 78.1342L39.3003 80.1329C40.87 80.3387 42.4711 80.4449 44.097 80.4449C64.2785 80.4449 80.6388 64.0846 80.6388 43.9031C80.6388 42.3954 80.5475 40.9091 80.3701 39.4492H78.3296ZM38.6294 77.9898L38.2984 79.9874C30.8873 78.8058 24.2193 75.3958 19.0029 70.4661L20.6173 69.2045C25.5133 73.75 31.7307 76.8918 38.6294 77.9898ZM18.1336 66.6491C13.4756 61.3365 10.422 54.582 9.72963 47.1423H7.69678C8.39164 55.0534 11.6075 62.2413 16.5361 67.8977L18.1336 66.6491Z" fill="#565F42"/>
<path d="M39.5519 20.6444C34.7302 24.4955 34.5215 24.6833 33.3839 26.0192C31.8497 27.8143 31.1713 28.9101 30.9313 29.9329C30.7226 30.8618 29.5537 38.5744 28.3743 46.788L28.1238 48.51L28.6457 49.1779L29.1675 49.8459L28.4056 50.5451L27.6438 51.2444L27.9777 51.6514C28.1656 51.8706 28.3117 52.1002 28.3117 52.1628C28.3013 52.215 27.9986 52.622 27.6333 53.0499C27.2576 53.4778 26.955 53.8848 26.955 53.937C26.955 53.9996 27.1637 54.2606 27.4246 54.511C27.6855 54.7615 27.8942 55.012 27.8942 55.0642C27.8942 55.1059 27.5916 55.5129 27.2159 55.9513L26.5271 56.7549L27.1115 57.2872C27.4246 57.5794 27.6855 57.8507 27.6855 57.882C27.6855 57.9238 27.4455 58.3517 27.1637 58.8318C26.8715 59.3223 26.6105 59.7919 26.5792 59.8754C26.5375 59.9798 26.8297 60.2511 27.4768 60.7312C28.4265 61.4305 28.4369 61.4305 28.3743 61.8062C28.343 62.0149 28.3117 62.5472 28.3117 62.9855C28.3117 63.5908 28.2804 63.7996 28.176 63.7996C27.9986 63.7996 26.4018 63.1108 25.2955 62.5576C24.7007 62.255 24.4293 62.161 24.398 62.255C24.3354 62.4637 24.0327 64.9685 24.0327 65.3442C24.0327 65.5738 24.0849 65.6782 24.1893 65.6782C24.2832 65.6782 24.6276 65.8243 24.972 65.9913C29.2927 68.1725 34.9076 69.8423 40.6269 70.646C42.5472 70.9173 45.532 70.9069 47.6298 70.6042C51.1678 70.1033 54.1526 69.4144 57.1688 68.3917C59.4335 67.6298 60.6859 67.1184 62.9924 66.0539C63.4412 65.8451 63.8482 65.6782 63.89 65.6782C63.963 65.6782 63.6499 62.6411 63.5351 62.3698C63.5038 62.255 63.389 62.2758 63.055 62.4428C62.0114 62.9855 59.7884 63.9039 59.7153 63.8309C59.6736 63.7787 59.6214 63.236 59.611 62.5994L59.5797 61.4513L60.4668 60.8043C60.9468 60.4494 61.3539 60.105 61.3747 60.0528C61.3956 60.0007 61.1451 59.4997 60.8216 58.9361L60.2372 57.9238L60.832 57.3811L61.4374 56.8384L60.7381 55.993L60.0389 55.1581L60.5711 54.5736L61.1034 53.9892L60.4146 53.1752C60.0389 52.7368 59.7258 52.3089 59.7258 52.2254C59.7258 52.1419 59.8406 51.9228 59.9867 51.7349C60.1328 51.547 60.2476 51.3488 60.2476 51.2861C60.2476 51.2339 59.9449 50.9104 59.5692 50.5764C59.1935 50.2425 58.8908 49.9294 58.8908 49.8772C58.8908 49.825 59.0996 49.5224 59.3605 49.2093C59.6214 48.8962 59.8301 48.5935 59.8301 48.5204C59.8301 47.9882 57.4193 31.3732 57.1792 30.2147C56.9914 29.2859 56.5009 28.3361 55.5929 27.1359C54.7893 26.0609 53.3282 24.5059 52.5663 23.8901C51.5539 23.0761 47.8803 20.1225 45.9704 18.5884C44.9267 17.7326 44.05 17.0438 44.0396 17.0542C44.0292 17.0542 42.0045 18.6719 39.5519 20.6444ZM44.885 19.0476C48.1203 21.2079 50.2911 22.9404 52.2219 24.8921C54.998 27.6786 55.9895 29.171 56.3861 31.1436C56.5948 32.2081 57.0958 35.4539 57.4297 38.0213C57.8263 40.9539 58.6821 47.9777 58.6821 48.2595C58.6821 48.4996 57.4819 50.0859 55.405 52.5803L55.0502 52.9977L54.7788 52.7473C54.6327 52.6011 54.5075 52.4446 54.5075 52.382C54.5075 52.2672 54.8728 51.7871 56.5426 49.7624C57.0644 49.1258 57.5237 48.5622 57.5654 48.4996C57.6176 48.4056 56.9392 43.2708 56.647 41.6114C56.6052 41.361 56.5009 41.2462 56.1773 41.1C55.5303 40.8078 55.499 40.7243 55.8642 40.119C56.4591 39.0962 56.5322 38.7101 56.4591 36.7793C56.3861 34.8799 56.1565 32.7821 55.9164 31.8219C55.6973 30.987 55.2694 30.2147 54.3092 28.931C53.109 27.3551 51.6792 25.7896 50.5103 24.8086C48.6213 23.2118 44.2692 19.966 44.0292 19.966C43.8831 19.966 41.0443 22.0533 38.8735 23.7545C37.141 25.1008 35.8991 26.2906 34.6154 27.8143C33.7074 28.8997 32.6638 30.4339 32.3611 31.1331C31.9436 32.0933 31.474 36.0905 31.5575 38.0213C31.5992 38.9084 31.6618 39.0962 32.4655 40.6513C32.4863 40.693 32.2672 40.8496 31.9749 40.9957C31.6305 41.1627 31.4322 41.3401 31.3905 41.4966C31.2861 41.9558 30.399 47.936 30.399 48.176C30.399 48.3221 30.7017 48.7918 31.1609 49.3554C31.5679 49.8668 32.288 50.7434 32.7368 51.307L33.5613 52.3298L33.2691 52.6325C33.1125 52.7994 32.9455 52.9142 32.9038 52.8934C32.8307 52.8516 29.6685 48.9483 29.3867 48.5622C29.251 48.3743 29.4284 46.7045 30.2007 40.9435C30.9417 35.3495 31.4949 31.8324 31.8184 30.5904C32.0271 29.7659 32.6429 28.5449 33.2795 27.6891C34.5215 26.0296 37.882 22.8569 40.2616 21.1036C41.0756 20.5087 43.9874 18.5049 44.0396 18.5049C44.0605 18.5049 44.4466 18.7449 44.885 19.0476ZM45.6468 22.5856C48.3082 24.4537 50.5938 26.2071 50.5103 26.301C50.479 26.3219 49.905 26.2488 49.2266 26.134C45.459 25.4974 43.8413 25.5391 40.4181 26.3636C38.8318 26.7498 37.0054 27.0316 36.8906 26.9063C36.8488 26.8646 37.0054 26.6767 37.235 26.468C38.3621 25.4974 43.7996 21.5419 44.0292 21.5315C44.0918 21.5315 44.8224 22.0116 45.6468 22.5856ZM47.5567 27.1046C49.3623 27.5743 50.1137 27.6473 51.0217 27.4803L51.7209 27.3446L52.0758 27.7204C52.2636 27.9291 52.4202 28.1483 52.4202 28.19C52.4202 28.2422 52.034 28.3152 51.5644 28.3466C51.053 28.3779 50.3329 28.5135 49.811 28.6805C49.0179 28.9414 48.8717 28.9623 48.3812 28.858C48.0786 28.7953 47.6089 28.597 47.348 28.4092C46.7636 28.0126 45.793 27.6891 45.1772 27.6891C44.4362 27.6891 43.236 28.0543 42.0254 28.6492L40.8878 29.2024L39.6876 29.1919C38.2682 29.1815 35.3251 28.9936 35.2416 28.9101C35.1477 28.8162 35.6173 28.1065 35.7739 28.1065C36.5044 28.1065 38.4456 27.8039 40.1572 27.4281C42.0984 27.0002 43.0273 26.8124 43.81 26.708C44.6449 26.5932 46.1478 26.7498 47.5567 27.1046ZM46.0434 29.0667C46.3043 29.2024 46.7218 29.5676 46.9827 29.8807C47.2541 30.2147 47.5254 30.4443 47.6089 30.4234C47.7028 30.4026 48.1516 30.3504 48.6108 30.2982C49.07 30.246 49.9571 30.1103 50.5833 29.9851C51.2095 29.8703 52.0862 29.7764 52.5245 29.7764H53.3282L53.4534 30.2043C53.5265 30.4443 53.5578 30.653 53.5369 30.6739C53.516 30.7052 53.0568 30.7887 52.535 30.8722C51.3556 31.0705 50.2494 31.3627 49.644 31.6654C48.2769 32.3229 47.0453 34.358 46.5548 36.748L46.3148 37.9273L45.1981 38.5431C44.5927 38.8875 44.0501 39.1693 44.0187 39.1693C43.7891 39.1693 41.6705 37.8543 41.6705 37.7082C41.6705 37.2176 41.0965 35.1512 40.773 34.4624C40.439 33.7423 40.4077 33.617 40.5121 33.3248C40.9608 32.0202 42.9438 30.6009 44.3423 30.58C45.0207 30.5591 45.3755 30.7887 45.6677 31.4253C45.9912 32.1246 45.9912 33.9823 45.6677 34.692C45.3859 35.3078 44.7389 36.0279 44.3005 36.2157C43.9979 36.341 43.9144 36.3305 43.6013 36.1844C42.8812 35.8505 42.1923 34.7964 42.1923 34.0449C42.1923 33.1474 42.8916 32.3333 43.6639 32.3333C43.8935 32.3333 44.144 32.4064 44.2379 32.5003C44.4779 32.7404 44.5928 33.377 44.4779 33.7944C44.384 34.1284 44.3423 34.1597 44.0083 34.1597C43.6743 34.1597 43.6222 34.118 43.4656 33.7318C43.3299 33.377 43.2882 33.3352 43.2256 33.4918C43.1003 33.8153 43.1212 34.4624 43.2777 34.8277C43.5387 35.4643 44.2483 35.4434 44.8328 34.7859C45.699 33.8362 45.5529 31.9994 44.5719 31.4567C44.3214 31.3105 44.2275 31.321 43.5595 31.5297C42.1193 31.9994 41.3574 32.7299 41.3574 33.6588C41.3574 34.2745 42.2654 36.7897 42.7246 37.4577C43.1734 38.1152 43.6639 38.2091 44.3423 37.7499C45.6468 36.8837 46.9097 35.0781 47.2019 33.6692C47.348 32.9908 47.1601 32.1663 46.6279 31.0601C46.2209 30.2356 45.7303 29.7346 45.1563 29.5781C44.4466 29.3798 42.0984 30.2669 40.8251 31.1957C40.3138 31.5715 39.7502 32.1559 39.6667 32.4064C39.6354 32.5003 39.5101 32.4481 39.2284 32.2081C38.5187 31.5715 37.4541 31.1853 35.6173 30.8618C35.0746 30.7678 34.5945 30.6739 34.5632 30.653C34.5215 30.6322 34.5215 30.4861 34.5528 30.3399L34.605 30.0582L36.3896 30.1312C37.3706 30.1625 38.4978 30.2669 38.9048 30.3504C40.2094 30.6322 40.6686 30.5695 41.5661 30.0477C41.994 29.7868 42.5681 29.4633 42.8498 29.3067C43.977 28.691 45.1459 28.6075 46.0434 29.0667ZM37.6003 32.3959C39.3327 33.1996 40.4599 34.932 40.679 37.0924C40.7208 37.4577 40.7625 37.9482 40.7834 38.1778C40.8147 38.47 40.8982 38.6474 41.0652 38.7518C41.5348 39.0649 42.8185 40.0668 43.4134 40.5887L44.0187 41.1314L44.9058 40.3486C45.3964 39.9207 46.1061 39.3571 46.4922 39.0962L47.181 38.6266L47.2541 37.8856C47.3584 36.6958 47.6924 35.4434 48.0994 34.6711C49.1535 32.6569 51.3348 31.655 53.3177 32.2603C54.3196 32.5629 54.6327 32.8969 54.9041 33.9301C55.2067 35.0573 55.5407 36.8837 55.6242 37.7917C55.6868 38.5431 55.6764 38.5744 55.238 39.4406C54.998 39.9207 54.758 40.3173 54.7058 40.3173C54.6536 40.3173 54.4136 40.2129 54.1526 40.0877L53.6934 39.8685L54.09 39.3884C54.7267 38.637 54.9563 38.0004 54.9563 37.0715C54.9354 35.6313 54.257 33.6796 53.6726 33.377C52.7228 32.8865 50.4164 33.2413 49.4771 34.0345C48.6734 34.7129 47.922 36.4662 47.8907 37.729C47.8803 38.3344 47.9116 38.47 48.1203 38.6683C48.3186 38.8771 48.4543 38.9084 49.0596 38.8979C49.905 38.8771 52.3158 38.3135 52.7959 38.0213C53.2342 37.7499 53.516 37.0507 53.4221 36.4871C53.2864 35.7252 53.0255 35.099 52.7646 34.8903C51.9505 34.2537 50.0302 35.2243 49.8528 36.3618C49.7693 36.8524 50.1137 37.2907 50.5833 37.2907C50.8756 37.2907 51.8983 36.7689 51.8983 36.6123C51.8983 36.581 51.7105 36.5914 51.4809 36.6228C50.4268 36.7897 50.5833 35.7565 51.6374 35.5582C52.1175 35.4747 52.3993 35.5791 52.5872 35.9548C52.7959 36.3618 52.7124 36.8628 52.3471 37.3011C51.9714 37.7395 51.5226 37.9169 50.7712 37.9169C49.4666 37.9169 49.0805 37.6873 49.0805 36.9045C49.0805 35.9235 49.8215 34.9946 51.126 34.358C51.9297 33.9614 52.7333 33.8988 53.1925 34.191C53.8395 34.6189 54.2466 36.1949 53.9857 37.2698C53.683 38.5744 52.942 39.1067 51.2095 39.2841C48.663 39.545 46.8679 39.9729 46.6592 40.3486C46.4191 40.8078 45.7408 42.9473 45.4903 44.0745C45.0415 46.12 44.9267 47.9777 45.1772 49.4493C45.2294 49.7311 45.1876 49.7833 44.718 50.0442C44.0918 50.399 43.9457 50.399 43.3404 50.0859L42.8812 49.8355L42.8707 47.769C42.8603 45.9113 42.829 45.546 42.5785 44.3354C42.2863 42.9578 41.5453 40.5782 41.3157 40.2651C41.0234 39.8685 37.642 39.2423 35.7739 39.2319C35.4294 39.2319 35.2311 39.211 35.3355 39.1902C35.586 39.138 35.5547 38.9919 35.2625 38.9188C34.8554 38.8144 34.2919 38.0943 34.0936 37.4264C33.7492 36.2262 34.1457 34.6398 34.9181 34.1493C35.3564 33.8675 36.0452 33.9406 36.9323 34.358C38.2264 34.9633 39.0092 35.9861 38.9361 36.9776C38.8944 37.6351 38.55 37.8543 37.5168 37.896C36.8384 37.9273 36.6401 37.896 36.2539 37.6873C35.6173 37.3638 35.3564 36.9776 35.3564 36.3827C35.3564 36.0174 35.4086 35.8713 35.6069 35.7148C35.9304 35.4434 36.4522 35.4643 36.8801 35.7565C37.5481 36.2053 37.3185 36.8002 36.5462 36.5914C36.0243 36.4558 36.0243 36.5601 36.5566 36.9254C37.4437 37.5412 38.3517 37.1863 38.1847 36.2992C38.0908 35.8296 37.475 35.1303 36.9219 34.8798C36.4418 34.6607 35.5442 34.6294 35.2938 34.8172C34.8972 35.1199 34.5006 36.414 34.6154 37.0193C34.6989 37.4472 35.012 37.8647 35.419 38.0734C35.92 38.3344 38.3412 38.8875 39.0196 38.8979C40.1155 38.9188 40.3764 38.4283 40.0633 36.9359C39.6563 35.0573 38.8318 33.9301 37.4854 33.4605C35.7634 32.8656 34.3023 33.0534 33.8535 33.9301C33.4361 34.7442 33.1125 36.1114 33.1125 37.0298C33.1125 38.0108 33.1856 38.2822 33.6657 38.9919C33.9892 39.4719 34.0101 39.4824 34.4171 39.4406L34.8346 39.3884L34.4797 39.4928C34.2084 39.5763 34.1562 39.6285 34.2501 39.7224C34.344 39.8163 34.2501 39.8998 33.8744 40.0668C33.603 40.1921 33.3317 40.2756 33.29 40.2442C33.2378 40.2129 33.0186 39.8059 32.789 39.3467C32.3089 38.3552 32.2985 38.1256 32.6011 36.4453C33.0499 33.9092 33.3839 32.8865 33.864 32.6047C34.8659 31.9994 36.5253 31.9054 37.6003 32.3959ZM38.0282 40.2756C39.5623 40.5573 40.2303 40.7974 40.6269 41.2044C40.8147 41.4027 40.94 41.601 40.9086 41.6427C40.8669 41.6845 40.6164 41.6114 40.3555 41.4862C39.4893 41.0583 37.8716 40.9435 36.6401 41.2044C35.8156 41.3714 34.3545 41.9872 34.3962 42.1437C34.4484 42.3002 35.3981 42.8012 35.993 42.9786C36.2852 43.0726 37.4646 43.3022 38.6126 43.5005C40.5642 43.8344 41.42 44.0536 41.7644 44.3249C41.8897 44.4189 41.9001 44.9511 41.8479 47.4977L41.7958 50.5556L42.829 51.067C43.3925 51.3592 43.9248 51.5888 43.9979 51.5888C44.0814 51.5888 44.6241 51.3488 45.2189 51.067L46.2939 50.5347L46.2209 50.0442C46.1895 49.7728 46.1269 48.4265 46.0956 47.0489C46.033 44.6798 46.033 44.5337 46.2209 44.3771C46.5548 44.0849 47.6924 43.7822 49.7275 43.4483C50.7921 43.2708 51.9401 43.0412 52.2636 42.9264C52.9316 42.6968 53.6726 42.3002 53.6726 42.175C53.6726 42.0811 52.7541 41.6532 51.9401 41.361C50.7295 40.9331 48.6108 41.0166 47.5985 41.5279C46.9932 41.8306 46.9201 41.6741 47.4419 41.1835C48.0681 40.5782 50.9591 39.952 51.9714 40.2025C52.7541 40.4008 55.1754 41.6845 55.2798 41.9558C55.3111 42.0289 54.8832 42.3942 54.2988 42.8116L53.2551 43.5422L50.312 44.1893C48.6839 44.5441 47.2749 44.8676 47.181 44.9198C47.014 45.0138 46.9932 45.2225 46.9723 46.6836C46.9305 49.9398 46.9097 49.7415 47.1706 49.7624C47.4941 49.7833 47.9325 50.1068 47.9325 50.3155C47.9325 50.6704 47.7342 50.7956 47.0036 50.9209C46.4609 51.0148 46.1061 51.1505 45.6886 51.4322C44.5614 52.1732 43.2151 52.1315 42.1402 51.3174C41.8062 51.067 41.1069 50.8687 40.5538 50.8582C40.2824 50.8582 40.2094 50.806 40.1155 50.5347C40.0528 50.3468 40.0007 50.1903 40.0007 50.1694C40.0007 50.0651 40.7625 49.6998 40.8878 49.752C41.0234 49.8041 41.0443 49.5745 41.0339 48.2178C41.0234 47.3411 40.9921 46.2348 40.9608 45.7443L40.8878 44.8676L37.9655 44.231C36.3479 43.8762 34.9598 43.5631 34.8554 43.5213C34.5736 43.417 32.6951 42.0706 32.6951 41.9767C32.6951 41.768 34.9285 40.526 35.7739 40.2651C36.3583 40.0773 37.0158 40.0773 38.0282 40.2756ZM38.9048 41.935C39.124 41.9767 39.458 42.0811 39.6354 42.175C39.8024 42.2689 40.2303 42.3733 40.5642 42.4046C41.1278 42.4568 41.1904 42.4777 41.2844 42.749C41.3365 42.916 41.3574 43.0621 41.3365 43.083C41.3052 43.1247 38.2786 42.6238 37.1515 42.3942C36.8175 42.3211 36.5253 42.2376 36.5044 42.1854C36.4731 42.1437 36.7236 42.0498 37.0471 41.9872C37.3811 41.9141 37.7046 41.841 37.7568 41.8306C37.8612 41.7993 38.1951 41.8306 38.9048 41.935ZM51.0739 42.008C51.3035 42.0706 51.4809 42.1646 51.4809 42.2063C51.4809 42.3107 50.7712 42.4568 48.7674 42.7803C47.8803 42.9264 47.0245 43.083 46.8679 43.1352C46.5966 43.2187 46.5966 43.2187 46.6905 42.8951C46.7427 42.7073 46.7844 42.5507 46.7844 42.5403C46.7844 42.5194 46.9932 42.509 47.2541 42.509C47.5359 42.509 47.9116 42.4151 48.1725 42.2794C48.4125 42.1541 48.7569 42.0185 48.9239 41.9767C49.4249 41.8619 50.6355 41.8724 51.0739 42.008ZM33.5613 44.1893C33.77 44.2415 33.9475 44.3145 33.9475 44.3458C33.9475 44.3771 33.77 44.6693 33.5404 44.9929C32.7055 46.2244 32.455 46.9132 32.6116 47.4768C32.8934 48.5204 33.8327 49.4806 34.8763 49.7833C35.9826 50.1068 37.9447 49.6789 38.8318 48.917C39.4058 48.4265 39.5623 47.936 39.3849 47.1533C39.0822 45.7965 37.7568 45.2747 36.3792 45.9739C35.7843 46.2661 35.4816 46.6627 35.4921 47.1115C35.5025 47.5916 35.8156 47.8629 36.3687 47.8734C36.6192 47.8734 36.9114 47.8421 37.0262 47.8003C37.2141 47.7273 37.2037 47.696 36.8906 47.4977C36.2957 47.1219 36.5253 46.5792 37.3602 46.4123C37.6211 46.3601 37.7464 46.4123 38.0282 46.6627C38.3308 46.9341 38.383 47.0489 38.383 47.4455C38.383 48.0612 38.0699 48.4056 37.2976 48.6352C35.2103 49.2406 33.7074 47.7794 34.678 46.0887C35.0015 45.5147 35.3355 45.2329 36.0556 44.9094C37.0367 44.4606 38.55 44.8259 39.3953 45.713C40.6477 47.028 40.2094 49.6789 38.6126 50.3886C37.6003 50.8269 35.8573 51.1191 34.8033 51.0148C34.104 50.9417 34.104 50.9417 33.3839 50.2007C32.4759 49.2614 31.7871 48.343 31.641 47.8316C31.5366 47.4977 31.547 47.3307 31.6932 46.8715C31.9645 46.0574 32.9142 44.0745 33.0499 44.0745C33.1125 44.0745 33.3421 44.1266 33.5613 44.1893ZM55.4572 44.9303C56.073 46.1618 56.3861 47.0384 56.3861 47.5498C56.3861 48.1134 55.8747 48.917 54.7371 50.1381L53.9126 51.0148H52.7228C50.8547 51.0148 49.3309 50.5764 48.6421 49.8459C48.2455 49.4389 47.9429 48.6874 47.8698 47.9569C47.7028 46.4018 48.7569 45.1077 50.4372 44.7946C51.4391 44.6172 52.1593 44.8363 52.8794 45.5669C54.4136 47.1011 53.5682 48.9066 51.3974 48.75C50.2911 48.6666 49.6023 48.2073 49.6023 47.5498C49.6023 46.5271 50.6146 46.0365 51.2722 46.7358C51.5748 47.0489 51.5122 47.2889 51.0739 47.529C50.7503 47.696 50.7399 47.7273 50.9173 47.8003C51.0217 47.8421 51.3452 47.8838 51.6166 47.8838C52.0236 47.8838 52.1697 47.8316 52.3262 47.6333C52.7646 47.0906 52.4828 46.4123 51.6166 45.9844C49.9885 45.1912 48.4438 46.1096 48.5795 47.7899C48.6421 48.5309 48.997 48.9901 49.8423 49.3762C51.1887 50.0129 52.7959 50.0755 53.7769 49.5432C54.6849 49.0527 55.4468 47.9673 55.4468 47.1741C55.4468 46.7462 54.831 45.473 54.2988 44.805L53.9648 44.3876L54.2153 44.2936C54.3509 44.2519 54.5284 44.1788 54.6119 44.1475C54.9563 44.0223 55.0398 44.1058 55.4572 44.9303ZM31.0148 52.2359L32.1628 53.7283L31.8914 54.0101C31.7349 54.1771 31.5575 54.3023 31.4844 54.3023C31.3696 54.3023 29.4806 52.0584 29.2093 51.6201C29.1362 51.4949 29.6372 50.7539 29.7937 50.7539C29.8354 50.7539 30.3781 51.4218 31.0148 52.2359ZM58.7865 51.547C58.7865 51.6201 58.296 52.288 57.6906 53.0395C56.5113 54.5006 56.4904 54.511 56.0312 54.0101C55.9164 53.8744 55.8747 53.7387 55.9269 53.6552C56.0521 53.4465 57.7428 51.2548 57.9933 50.9835L58.2125 50.7434L58.4943 51.0878C58.6508 51.2757 58.7865 51.4844 58.7865 51.547ZM40.3346 51.6514C40.3659 51.6723 40.1885 52.1524 39.9276 52.7159C39.6667 53.2691 39.3745 53.9892 39.2701 54.3023C39.1136 54.8554 39.0822 54.8763 38.6543 54.9598C38.4039 55.012 38.1847 55.0224 38.1534 54.9911C38.0177 54.8659 38.4874 53.4674 38.9883 52.4968L39.5101 51.4636L39.8859 51.5366C40.0946 51.5784 40.2929 51.6305 40.3346 51.6514ZM49.0909 52.6846C49.4979 53.5091 49.9571 54.9181 49.8632 55.0224C49.8319 55.0433 49.5919 55.0224 49.331 54.9702L48.8509 54.8763L48.6213 54.1458C48.4856 53.7387 48.2142 53.0395 47.9951 52.5907C47.7863 52.1315 47.6507 51.7245 47.6924 51.6827C47.8594 51.5262 48.4021 51.5262 48.5482 51.6932C48.6213 51.7766 48.8717 52.2254 49.0909 52.6846ZM38.7274 51.6618C38.7065 51.714 38.4352 52.2567 38.1325 52.8829C37.8194 53.5091 37.4854 54.3023 37.3915 54.6467C37.2245 55.2625 37.2141 55.2833 36.7236 55.419C36.4418 55.5025 36.2017 55.5442 36.1704 55.5129C35.993 55.3355 36.9219 52.1628 37.2245 51.9123C37.475 51.7036 38.8109 51.4844 38.7274 51.6618ZM50.2702 51.7245L50.7816 51.8497L51.1887 52.9142C51.5748 53.937 51.8983 55.3773 51.7731 55.5025C51.7418 55.5338 51.5018 55.5129 51.2513 55.4503C50.7921 55.3355 50.7816 55.3251 50.5625 54.605C50.4372 54.2084 50.1033 53.4152 49.811 52.8307C49.5292 52.2567 49.2892 51.7349 49.2892 51.6827C49.2892 51.5575 49.6232 51.5784 50.2702 51.7245ZM41.4722 52.0689C41.7018 52.1837 41.7749 52.2776 41.7227 52.4028C41.587 52.7368 41.2635 53.7283 41.1487 54.1562C41.0443 54.5632 41.0234 54.5945 40.5538 54.6571C40.2929 54.6885 40.0424 54.6989 40.0111 54.6676C39.8337 54.4797 40.7938 51.9019 41.0443 51.9019C41.1069 51.9019 41.3052 51.9749 41.4722 52.0689ZM47.3897 52.6533C47.7446 53.4882 48.089 54.605 48.0055 54.678C47.9742 54.7093 47.7133 54.6989 47.4211 54.6571C46.9097 54.5945 46.8888 54.5737 46.8262 54.2084C46.7844 53.9996 46.6174 53.4674 46.4609 53.0186L46.1582 52.215L46.5026 52.0689C46.6801 51.9854 46.8888 51.9123 46.9514 51.9123C47.014 51.9019 47.2123 52.2463 47.3897 52.6533ZM36.1809 52.8099C35.6904 54.0831 35.5234 54.6154 35.3981 55.2416C35.2938 55.7843 35.2416 55.8678 34.9598 55.9617L34.6467 56.0765L34.7198 55.4086C34.8033 54.5841 35.1372 53.2378 35.3877 52.7473C35.5442 52.4342 35.9617 52.1628 36.3687 52.1211C36.4105 52.1106 36.327 52.4237 36.1809 52.8099ZM52.0966 52.3194C52.3784 52.455 52.5454 52.6429 52.6602 52.9142C52.942 53.6448 53.4638 56.0765 53.3282 56.0765C53.3073 56.0765 53.1507 56.0243 52.9837 55.9721C52.702 55.8782 52.6602 55.7843 52.4932 55.0224C52.3889 54.5632 52.1384 53.7596 51.9401 53.2273C51.4704 51.9541 51.46 51.9958 52.0966 52.3194ZM43.0481 52.9873C43.2047 53.1021 43.2256 53.2169 43.1525 53.7387L43.0794 54.3545L42.5054 54.4171C42.1923 54.4484 41.9106 54.4588 41.8897 54.438C41.8271 54.3962 42.0671 53.123 42.1923 52.7786C42.2967 52.5281 42.3071 52.5176 42.5785 52.6846C42.7455 52.7786 42.9542 52.9142 43.0481 52.9873ZM45.8869 53.1856C45.9704 53.4882 46.0539 53.8848 46.0747 54.0831L46.1061 54.4484L45.532 54.4171C45.2189 54.4067 44.9267 54.3545 44.8954 54.3232C44.8537 54.2814 44.8015 53.9996 44.7806 53.697C44.7284 53.1438 44.7284 53.1438 45.1563 52.8516C45.3964 52.6846 45.6155 52.5698 45.6573 52.6011C45.699 52.622 45.8034 52.8829 45.8869 53.1856ZM30.1485 54.5632C30.7539 55.3981 31.2966 56.0765 31.3383 56.0765C31.3801 56.0765 31.6618 55.8156 31.9645 55.4921C32.2672 55.179 32.5281 54.9389 32.549 54.9598C32.5803 54.9807 32.4863 55.4503 32.3402 55.9826C32.1419 56.7758 32.048 56.9845 31.8497 57.0784C31.1818 57.402 31.2444 57.4437 29.6267 55.7008L28.103 54.0623L28.5309 53.5613C28.7709 53.2795 28.9692 53.0499 28.9901 53.0499C29.011 53.0499 29.5328 53.7283 30.1485 54.5632ZM34.3545 53.9892C34.1875 54.511 33.9996 55.252 33.9266 55.6486C33.8118 56.3479 33.7909 56.3792 33.4152 56.5253C33.196 56.6088 32.9977 56.661 32.9769 56.6401C32.9038 56.567 33.1125 55.4295 33.3421 54.6363C33.5196 54.0205 33.6448 53.8118 34.0101 53.4674C34.2606 53.2378 34.511 53.0499 34.5632 53.0499C34.6154 53.0499 34.5215 53.4778 34.3545 53.9892ZM53.9544 53.4882C54.2883 53.8327 54.4449 54.1249 54.6432 54.7719C54.7893 55.2312 54.9354 55.8574 54.9771 56.1704C55.0502 56.6923 55.0398 56.7236 54.8623 56.6505C54.7475 56.6088 54.5388 56.5357 54.3927 56.4731C54.1526 56.3896 54.1109 56.2957 54.0483 55.826C54.017 55.5234 53.85 54.8033 53.6726 54.2188C53.5056 53.6344 53.3595 53.1334 53.3595 53.1021C53.3595 52.956 53.5682 53.0917 53.9544 53.4882ZM59.4649 53.6239L59.851 54.104L59.3709 54.6467C59.11 54.9494 58.4421 55.6799 57.8681 56.2748L56.8453 57.3707L56.3548 57.235C55.9582 57.1202 55.8538 57.0367 55.8016 56.8175C55.7703 56.6714 55.6555 56.1913 55.5511 55.7634C55.4468 55.3355 55.3737 54.9702 55.3842 54.9494C55.405 54.9389 55.6973 55.2103 56.0417 55.5547L56.6574 56.2018L57.7846 54.678C58.4108 53.8431 58.9535 53.1543 58.9952 53.1543C59.037 53.1543 59.2457 53.363 59.4649 53.6239ZM45.7512 55.3564C48.1934 55.6799 48.2977 55.7217 47.9951 56.2748L47.8594 56.5149L43.9874 56.5357L40.1155 56.5462L39.9485 56.1913C39.8546 55.993 39.8232 55.7947 39.865 55.753C39.9067 55.7112 40.6269 55.5756 41.4618 55.4608C42.2967 55.346 43.0899 55.2312 43.236 55.2103C43.7891 55.1164 44.1962 55.1477 45.7512 55.3564ZM38.7796 56.3687C38.8735 56.5357 38.9988 57.0158 39.0614 57.4437C39.5101 60.3868 40.8565 64.3423 42.1297 66.4713C42.3906 66.9097 42.6098 67.2958 42.6098 67.3271C42.6098 67.348 42.3593 67.348 42.0671 67.3167C41.3783 67.2332 41.2948 67.1393 40.5121 65.5216C39.4684 63.3508 38.79 61.0339 38.55 58.7691C38.4143 57.5794 38.4039 56.0765 38.5187 56.0765C38.5604 56.0765 38.6752 56.2122 38.7796 56.3687ZM49.4979 57.7464C49.2996 60.5538 48.663 62.9438 47.4732 65.4172C46.6383 67.1393 46.5653 67.2332 45.8764 67.3167C45.5738 67.348 45.3233 67.348 45.3233 67.3167C45.3233 67.2854 45.532 66.9305 45.7825 66.5235C46.3357 65.626 47.181 63.7683 47.6298 62.495C48.0577 61.2531 48.7152 58.6439 48.8717 57.5689C48.997 56.7027 49.3205 55.9617 49.5084 56.1496C49.571 56.2122 49.5606 56.8071 49.4979 57.7464ZM30.232 57.5481L31.474 58.8944L31.8497 58.5604L32.2254 58.2264L32.2985 59.7084C32.382 61.4931 32.6116 63.1421 32.9664 64.4988C33.1021 65.052 33.2065 65.5216 33.1751 65.5425C33.1543 65.5634 32.8307 65.5007 32.4759 65.3964L31.808 65.1981L31.7453 64.5719C31.7036 64.2379 31.6618 63.2986 31.6514 62.495C31.641 61.6914 31.5992 60.773 31.5575 60.4494L31.4949 59.865L29.8772 58.5291C28.9901 57.7985 28.27 57.1515 28.2908 57.0889C28.343 56.9323 28.8753 56.1809 28.9379 56.1913C28.9692 56.1913 29.5537 56.8071 30.232 57.5481ZM59.4231 56.7131L59.7675 57.1515L59.3501 57.5272C59.1205 57.7359 58.369 58.3621 57.6802 58.9153L56.4174 59.938L56.3548 61.0443C56.313 61.6601 56.2817 62.6411 56.2817 63.2256C56.2817 63.81 56.2504 64.5093 56.2191 64.7597L56.1565 65.2398L55.4781 65.4172C55.1128 65.5216 54.7893 65.5842 54.7684 65.5634C54.7475 65.532 54.8519 65.0728 54.9876 64.5301C55.3633 63.0795 55.5616 61.6601 55.6346 59.8546L55.7077 58.2682L56.1043 58.5917L56.4904 58.9153L57.5654 57.7881C58.1498 57.1724 58.6926 56.5879 58.7656 56.4835C58.9639 56.2018 59.037 56.2331 59.4231 56.7131ZM37.5272 57.7151C37.6629 60.4807 38.3412 63.1525 39.5832 65.7512C40.2616 67.1706 40.2616 67.1497 39.3745 66.9619C39.0614 66.8992 38.9883 66.8053 38.4874 65.7408C37.2558 63.1316 36.5566 60.1468 36.5566 57.5168C36.5566 56.5566 36.567 56.5044 36.7966 56.4627C37.4959 56.327 37.4541 56.2644 37.5272 57.7151ZM51.1573 56.5044C51.4391 56.6088 51.4809 56.661 51.4809 56.9949C51.4809 57.9238 51.2408 59.9902 51.0112 61.1174C50.5312 63.4447 49.2475 66.7323 48.7465 66.9201C48.5169 67.0036 47.9951 67.0767 47.8072 67.0453C47.7655 67.0349 47.9638 66.5757 48.2351 66.0121C49.5814 63.2882 50.1868 60.9295 50.4998 57.0889C50.5625 56.3374 50.5938 56.3061 51.1573 56.5044ZM35.6486 58.2891C35.7217 59.7919 35.8887 60.8669 36.3061 62.495C36.5983 63.6326 37.1724 65.2398 37.5585 66.0121C37.9342 66.7531 37.9133 66.7844 37.0575 66.5548C36.8384 66.4922 36.4522 65.6573 35.9304 64.1022C35.3042 62.2237 34.9911 60.5747 34.9181 58.6752L34.8554 57.0471L35.1581 56.9427C35.3251 56.8801 35.4921 56.8488 35.5234 56.8697C35.5547 56.8906 35.6173 57.5272 35.6486 58.2891ZM52.9003 57.0158L53.182 57.1306L53.109 58.3517C52.9838 60.3868 52.6915 62.0149 52.1175 63.8726C51.794 64.9372 51.1469 66.4087 50.9695 66.5026C50.7921 66.5966 50.1241 66.7322 50.1241 66.6801C50.1241 66.6696 50.312 66.2313 50.5312 65.7095C51.6061 63.236 52.1697 60.8565 52.368 57.9238C52.4097 57.3707 52.4828 56.9114 52.5245 56.9114C52.5767 56.9114 52.7437 56.9636 52.9003 57.0158ZM46.0852 57.5272C46.2 57.642 45.6364 59.9485 45.1146 61.4409C44.6554 62.7664 44.1231 63.9039 43.9666 63.9039C43.6952 63.9039 42.6829 61.2739 42.2028 59.291C41.7331 57.3498 41.7123 57.4959 42.4533 57.4124C43.2464 57.3289 45.9704 57.4124 46.0852 57.5272ZM33.9475 58.3934C33.9579 60.439 34.4902 63.0377 35.3773 65.3964C35.5338 65.7825 35.6277 66.1269 35.586 66.1582C35.5547 66.1895 35.2625 66.1582 34.9494 66.0852L34.3649 65.9599L34.104 65.1146C33.5509 63.2986 33.2169 60.9817 33.2169 59.0092C33.2169 57.8507 33.2795 57.5689 33.5196 57.5063C33.937 57.3915 33.9475 57.4124 33.9475 58.3934ZM54.4657 57.5585L54.7475 57.6838L54.6849 59.625C54.6223 61.6601 54.4762 62.7559 54.0378 64.4362C53.6413 65.9912 53.6726 65.9391 52.9524 66.1165C52.201 66.3044 52.201 66.3044 52.5872 65.3546C53.2864 63.6535 53.8187 61.2531 53.9857 59.1031C54.0378 58.3308 54.09 57.6316 54.09 57.5585C54.09 57.402 54.1213 57.402 54.4657 57.5585ZM40.8982 57.9238C41.18 59.2075 41.7123 60.9504 42.2654 62.4428C42.6411 63.476 43.8413 65.8869 43.9666 65.8869C44.0814 65.8869 44.8745 64.3736 45.3651 63.2256C45.8869 62.0254 46.5444 60.0111 46.8888 58.6022L47.1288 57.642H47.5463H47.9533L47.8907 58.1325C47.6611 59.698 46.6905 62.6098 45.6782 64.6867C45.0728 65.9495 44.144 67.4524 43.9666 67.4524C43.5908 67.4524 41.7436 63.7996 41.0026 61.6079C40.5225 60.1885 39.9694 57.882 40.0633 57.7255C40.0946 57.6837 40.2824 57.642 40.4703 57.642C40.7834 57.642 40.846 57.6838 40.8982 57.9238ZM30.5138 60.5225C30.6286 61.0339 30.6182 64.7389 30.5034 64.7389C30.4512 64.7389 30.1381 64.6241 29.8146 64.478L29.2301 64.217L29.2823 63.7787C29.3241 63.5282 29.3762 62.9542 29.4075 62.495C29.4389 62.0358 29.491 61.514 29.5223 61.3365C29.5641 61.0443 29.5015 60.9713 28.7292 60.3659C28.27 60.0111 27.8942 59.6876 27.8942 59.6563C27.8942 59.6249 28.0404 59.364 28.2178 59.0822L28.5413 58.5813L29.5015 59.4058C30.159 59.9694 30.4721 60.3138 30.5138 60.5225ZM59.7571 59.1449C59.9136 59.3953 60.0389 59.6458 60.0389 59.698C60.0389 59.7606 59.6736 60.0946 59.2248 60.439L58.4108 61.0652L58.4943 61.994C58.536 62.495 58.5882 63.236 58.5986 63.6222L58.6299 64.3423L58.1081 64.5406C57.8263 64.6449 57.5237 64.7389 57.461 64.7389C57.3045 64.7389 57.2836 63.3299 57.3984 61.4618L57.461 60.3346L58.4003 59.5101C58.9117 59.0614 59.3605 58.6857 59.4022 58.6857C59.4335 58.6857 59.5901 58.8944 59.7571 59.1449ZM26.5479 64.2275C30.8895 66.1582 35.6591 67.4628 41.0443 68.2038C41.587 68.2769 42.902 68.329 43.9666 68.329C49.1118 68.329 56.073 66.6905 61.6983 64.144C62.6063 63.737 62.7524 63.7161 62.7524 64.0292C62.7524 64.1649 62.7837 64.4362 62.815 64.6449C62.8776 65.0207 62.8776 65.0311 62.2723 65.3129C57.221 67.6715 51.8462 69.164 46.1582 69.8006C44.384 69.9989 43.5282 69.9989 41.8271 69.8006C37.9864 69.3623 34.6884 68.6421 31.2861 67.5046C29.5745 66.9305 26.8297 65.8243 25.7026 65.2607C25.0659 64.9372 25.0659 64.9372 25.1286 64.551C25.2225 63.9457 25.2851 63.6952 25.3268 63.6952C25.3477 63.6952 25.9009 63.9352 26.5479 64.2275Z" fill="#565F42"/>
</svg>
