<svg width="11" height="17" viewBox="0 0 11 17" fill="none" xmlns="http://www.w3.org/2000/svg">
<path d="M10.236 2.83405C9.26511 1.15896 7.54068 0.135589 5.62307 0.09648C5.54121 0.0947931 5.45882 0.0947931 5.37692 0.09648C3.45934 0.135589 1.73491 1.15896 0.764028 2.83405C-0.228351 4.54624 -0.255502 6.60292 0.691385 8.3357L4.65825 15.5949C4.66003 15.5981 4.66181 15.6013 4.66365 15.6045C4.83818 15.9078 5.15084 16.0889 5.50006 16.0889C5.84924 16.0889 6.1619 15.9078 6.3364 15.6045C6.33825 15.6013 6.34003 15.5981 6.34181 15.5949L10.3087 8.3357C11.2555 6.60292 11.2283 4.54624 10.236 2.83405ZM5.5 7.34235C4.25957 7.34235 3.25041 6.33341 3.25041 5.09324C3.25041 3.85308 4.25957 2.84414 5.5 2.84414C6.74042 2.84414 7.74958 3.85308 7.74958 5.09324C7.74958 6.33341 6.74045 7.34235 5.5 7.34235Z" fill="#C0C233"/>
</svg>
