<svg width="15" height="16" viewBox="0 0 15 16" fill="none" xmlns="http://www.w3.org/2000/svg">
<path d="M14.4338 0.648889C14.0562 0.271252 13.6036 0.0825195 13.0764 0.0825195H1.92392C1.39655 0.0825195 0.944157 0.271321 0.566433 0.648889C0.188777 1.02635 0 1.47871 0 2.00586V13.1557C0 13.6827 0.188743 14.1352 0.566433 14.5127C0.944157 14.8902 1.39665 15.0791 1.92392 15.0791H13.0763C13.6034 15.0791 14.056 14.8902 14.4337 14.5127C14.8114 14.1352 15 13.6827 15 13.1557V2.00586C15 1.47861 14.8114 1.02649 14.4338 0.648889ZM5.38593 5.48649C5.97508 4.91704 6.68312 4.63218 7.50995 4.63218C8.34318 4.63218 9.05441 4.91704 9.64369 5.48649C10.233 6.05604 10.5274 6.74442 10.5274 7.5515C10.5274 8.35848 10.233 9.0469 9.64369 9.61628C9.05441 10.186 8.34342 10.4708 7.50995 10.4708C6.68315 10.4708 5.97518 10.1857 5.38593 9.61628C4.79665 9.04683 4.50205 8.35848 4.50205 7.5515C4.50205 6.74442 4.79665 6.05607 5.38593 5.48649ZM13.301 12.7555C13.301 12.9246 13.2423 13.0661 13.1252 13.1801C13.0078 13.294 12.868 13.351 12.7051 13.351H2.26576C2.09652 13.351 1.95481 13.294 1.84097 13.1801C1.72697 13.0664 1.67002 12.9246 1.67002 12.7555V6.42861H3.04694C2.91679 6.83874 2.85169 7.26514 2.85169 7.70765C2.85169 8.95765 3.30737 10.0233 4.21883 10.9054C5.13039 11.7872 6.22737 12.2283 7.50992 12.2283C8.35629 12.2283 9.13749 12.0265 9.85388 11.623C10.57 11.2192 11.1361 10.6709 11.553 9.97767C11.9698 9.28443 12.1781 8.52772 12.1781 7.70768C12.1781 7.26517 12.1128 6.83887 11.9826 6.42865H13.3011V12.7556H13.301V12.7555ZM13.301 4.03657C13.301 4.22534 13.236 4.38483 13.1055 4.51499C12.9754 4.64524 12.816 4.71029 12.627 4.71029H10.9279C10.7392 4.71029 10.5795 4.64521 10.4493 4.51499C10.3192 4.38483 10.2541 4.22534 10.2541 4.03657V2.42576C10.2541 2.24349 10.3192 2.08567 10.4493 1.9522C10.5795 1.8188 10.7392 1.75201 10.9279 1.75201H12.627C12.816 1.75201 12.9754 1.81877 13.1055 1.9522C13.2359 2.08567 13.301 2.24349 13.301 2.42576V4.03657Z" fill="white"/>
</svg>
