<svg width="15" height="13" viewBox="0 0 15 13" fill="none" xmlns="http://www.w3.org/2000/svg">
<path d="M0.313213 1.85829C2.37191 3.60124 5.98428 6.66761 7.046 7.62371C7.18853 7.75275 7.34141 7.81836 7.50011 7.81836C7.65849 7.81836 7.81109 7.75337 7.9533 7.62494C9.01593 6.66791 12.6283 3.60124 14.687 1.85829C14.8152 1.74999 14.8347 1.55961 14.731 1.4272C14.4911 1.12123 14.1334 0.945801 13.7501 0.945801H1.2501C0.866808 0.945801 0.509122 1.12123 0.269267 1.42723C0.165498 1.55961 0.185039 1.74999 0.313213 1.85829Z" fill="#C0C233"/>
<path d="M14.8187 2.8033C14.708 2.75175 14.5777 2.76973 14.4855 2.84846C12.2024 4.78334 9.28863 7.26346 8.37188 8.08931C7.85733 8.55366 7.14322 8.55366 6.62748 8.0887C5.65031 7.20851 2.3782 4.4276 0.514512 2.84843C0.421729 2.7697 0.291123 2.75233 0.18126 2.80327C0.0708105 2.85455 0 2.965 0 3.08672V10.9434C0 11.6327 0.560596 12.1931 1.25001 12.1931H13.75C14.4394 12.1931 15 11.6327 15 10.9434V3.08672C15 2.965 14.9292 2.85426 14.8187 2.8033Z" fill="#C0C233"/>
</svg>
