<svg width="15" height="16" viewBox="0 0 15 16" fill="none" xmlns="http://www.w3.org/2000/svg">
<path d="M15 1.85788C14.4422 2.15897 13.8478 2.35854 13.2281 2.45544C13.8656 1.98709 14.3522 1.2511 14.5809 0.363994C13.9866 0.800048 13.3303 1.10806 12.6309 1.27994C12.0666 0.540492 11.2622 0.0825195 10.3847 0.0825195C8.68219 0.0825195 7.31156 1.7829 7.31156 3.86743C7.31156 4.16736 7.33219 4.45575 7.38281 4.73031C4.82625 4.57688 2.56406 3.06915 1.04437 0.772362C0.779062 1.33877 0.623438 1.98709 0.623438 2.685C0.623438 3.99547 1.17188 5.15713 1.98937 5.82967C1.49531 5.81814 1.01063 5.64164 0.6 5.36362C0.6 5.37516 0.6 5.39016 0.6 5.40515C0.6 7.24396 1.66594 8.77131 3.06375 9.12315C2.81344 9.20736 2.54063 9.24774 2.2575 9.24774C2.06063 9.24774 1.86187 9.2339 1.67531 9.18314C2.07375 10.6816 3.20438 11.7833 4.54875 11.8191C3.5025 12.8262 2.17406 13.4329 0.735938 13.4329C0.48375 13.4329 0.241875 13.4191 0 13.381C1.36219 14.4619 2.97656 15.0791 4.7175 15.0791C10.3763 15.0791 13.47 9.31119 13.47 4.31156C13.47 4.14429 13.4653 3.98278 13.4587 3.82244C14.0691 3.28948 14.5819 2.62386 15 1.85788Z" fill="white"/>
</svg>
