<svg width="15" height="10" viewBox="0 0 15 10" fill="none" xmlns="http://www.w3.org/2000/svg">
<path d="M14.3625 0.963401C13.9556 0.261754 13.5141 0.132695 12.615 0.083616C11.7169 0.0245395 9.45844 0 7.50187 0C5.54156 0 3.28219 0.0245395 2.385 0.0827072C1.48781 0.132695 1.04531 0.260845 0.634687 0.963401C0.215625 1.66414 0 2.87112 0 4.99605C0 4.99787 0 4.99878 0 4.99878C0 5.0006 0 5.00151 0 5.00151V5.00332C0 7.11917 0.215625 8.33524 0.634687 9.0287C1.04531 9.73035 1.48687 9.85759 2.38406 9.91667C3.28219 9.96757 5.54156 9.99756 7.50187 9.99756C9.45844 9.99756 11.7169 9.96757 12.6159 9.91758C13.515 9.8585 13.9566 9.73126 14.3634 9.02961C14.7863 8.33615 15 7.12008 15 5.00423C15 5.00423 15 5.00151 15 4.99969C15 4.99969 15 4.99787 15 4.99696C15 2.87112 14.7863 1.66414 14.3625 0.963401ZM5.625 7.72539V2.27217L10.3125 4.99878L5.625 7.72539Z" fill="white"/>
</svg>
