<svg width="15" height="16" fill="none" xmlns="http://www.w3.org/2000/svg"><path d="M14.434.649a1.852 1.852 0 00-1.358-.566H1.924C1.397.083.944.27.566.649A1.85 1.85 0 000 2.006v11.15c0 .527.189.98.566 1.357.378.377.83.566 1.358.566h11.152c.527 0 .98-.189 1.358-.566A1.85 1.85 0 0015 13.156V2.006c0-.527-.189-.98-.566-1.357zM5.386 5.486a2.947 2.947 0 012.124-.854c.833 0 1.544.285 2.134.854.589.57.883 1.258.883 2.066 0 .806-.294 1.495-.883 2.064-.59.57-1.3.855-2.134.855a2.948 2.948 0 01-2.124-.855c-.59-.57-.884-1.258-.884-2.064 0-.808.295-1.496.884-2.066zm7.915 7.27c0 .169-.059.31-.176.424a.582.582 0 01-.42.171H2.265a.577.577 0 01-.424-.17.576.576 0 01-.171-.425V6.428h1.377c-.13.41-.195.836-.195 1.279 0 1.25.455 2.315 1.367 3.197.911.882 2.008 1.323 3.29 1.323.847 0 1.628-.201 2.345-.605a4.56 4.56 0 001.699-1.645c.417-.694.625-1.45.625-2.27 0-.443-.065-.87-.195-1.28H13.3v6.328zm0-8.72a.65.65 0 01-.196.479.65.65 0 01-.478.195h-1.7a.651.651 0 01-.478-.195.65.65 0 01-.195-.478V2.426c0-.183.065-.34.195-.474.13-.133.29-.2.479-.2h1.699c.189 0 .348.067.478.2.13.134.196.291.196.474v1.61z" fill="#fff"/></svg>