<svg width="275" height="70" fill="none" xmlns="http://www.w3.org/2000/svg"><path d="M15.708 41.44c-4.195 0-7.48-1.012-9.856-3.036-2.347-2.053-3.593-5.016-3.74-8.888-.03-.792-.044-2.083-.044-3.872 0-1.819.015-3.139.044-3.96.147-3.813 1.423-6.747 3.828-8.8 2.405-2.083 5.661-3.124 9.768-3.124 2.581 0 4.899.44 6.952 1.32 2.053.85 3.667 2.083 4.84 3.696 1.203 1.584 1.819 3.447 1.848 5.588v.088c0 .235-.103.44-.308.616a.933.933 0 01-.616.22h-5.94c-.381 0-.675-.073-.88-.22-.205-.176-.381-.484-.528-.924-.41-1.496-1.056-2.537-1.936-3.124-.88-.616-2.039-.924-3.476-.924-3.461 0-5.25 1.936-5.368 5.808-.03.792-.044 2.01-.044 3.652 0 1.643.015 2.89.044 3.74.117 3.872 1.907 5.808 5.368 5.808 1.437 0 2.61-.308 3.52-.924.91-.645 1.54-1.687 1.892-3.124.117-.44.279-.733.484-.88.205-.176.513-.264.924-.264h5.94c.264 0 .484.088.66.264a.72.72 0 01.264.66c-.03 2.141-.645 4.019-1.848 5.632-1.173 1.584-2.787 2.816-4.84 3.696-2.053.85-4.37 1.276-6.952 1.276zm29.135 0c-4.195 0-7.48-1.012-9.857-3.036-2.346-2.053-3.593-5.016-3.74-8.888-.029-.792-.043-2.083-.043-3.872 0-1.819.014-3.139.044-3.96.146-3.813 1.422-6.747 3.828-8.8 2.405-2.083 5.66-3.124 9.767-3.124 2.582 0 4.9.44 6.953 1.32 2.053.85 3.666 2.083 4.84 3.696 1.202 1.584 1.818 3.447 1.848 5.588v.088c0 .235-.103.44-.308.616a.933.933 0 01-.616.22h-5.94c-.382 0-.675-.073-.88-.22-.206-.176-.382-.484-.528-.924-.411-1.496-1.056-2.537-1.936-3.124-.88-.616-2.04-.924-3.477-.924-3.46 0-5.25 1.936-5.367 5.808-.03.792-.044 2.01-.044 3.652 0 1.643.014 2.89.044 3.74.117 3.872 1.906 5.808 5.367 5.808 1.438 0 2.611-.308 3.52-.924.91-.645 1.54-1.687 1.893-3.124.117-.44.278-.733.483-.88.206-.176.514-.264.924-.264h5.94c.264 0 .484.088.66.264a.719.719 0 01.264.66c-.029 2.141-.645 4.019-1.847 5.632-1.174 1.584-2.787 2.816-4.84 3.696-2.054.85-4.371 1.276-6.953 1.276zm43.126-1.936c.088.117.132.279.132.484 0 .293-.103.543-.308.748-.176.176-.41.264-.704.264h-6.512c-.41 0-.719-.073-.924-.22a6.033 6.033 0 01-.616-.616l-6.732-11.22H69.27V39.9c0 .323-.117.587-.352.792-.205.205-.47.308-.792.308H62.45c-.323 0-.587-.103-.792-.308-.205-.205-.308-.47-.308-.792V11.3c0-.323.103-.587.308-.792.235-.205.499-.308.792-.308h5.676c.323 0 .587.103.792.308.235.205.352.47.352.792v10.604l2.684.044 6.468-10.912c.323-.557.865-.836 1.628-.836h6.38c.264 0 .484.088.66.264a.895.895 0 01.264.66c0 .117-.059.293-.176.528l-8.184 13.376 8.976 14.476z" fill="#C0C233"/><path d="M99.148 41c-.293 0-.557-.103-.792-.308a1.172 1.172 0 01-.308-.792V11.3c0-.323.102-.587.308-.792.235-.205.499-.308.792-.308h21.12c.322 0 .586.103.792.308.205.205.308.47.308.792v4.4c0 .323-.103.601-.308.836-.206.205-.47.308-.792.308h-14.3v5.192h6.116c3.52 0 6.292.836 8.316 2.508 2.024 1.672 3.036 3.96 3.036 6.864 0 1.819-.44 3.461-1.32 4.928-.88 1.437-2.171 2.581-3.872 3.432-1.702.821-3.755 1.232-6.16 1.232H99.148zm12.232-5.72c1.202 0 2.141-.381 2.816-1.144.704-.763 1.056-1.687 1.056-2.772 0-1.085-.338-1.98-1.012-2.684-.675-.704-1.628-1.056-2.86-1.056h-5.412v7.656h5.412zm38.422-25.08c.264 0 .484.103.66.308.205.176.308.381.308.616 0 .147-.074.41-.22.792l-8.756 20.108c-1.027 2.376-2.01 4.195-2.948 5.456-.91 1.232-2.024 2.127-3.344 2.684-1.291.557-3.022.836-5.192.836h-2.332a1.17 1.17 0 01-.792-.308 1.169 1.169 0 01-.308-.792v-4.664c0-.323.102-.587.308-.792a1.17 1.17 0 01.792-.308h1.672c.85 0 1.584-.176 2.2-.528.616-.381 1.173-.983 1.672-1.804l-10.912-20.24a.869.869 0 01-.088-.396c0-.235.102-.455.308-.66.205-.205.454-.308.748-.308h6.072c.557 0 .982.308 1.276.924l6.38 12.408 5.412-12.408c.234-.616.674-.924 1.32-.924h5.764zM170.937 41c-.293 0-.557-.103-.792-.308a1.173 1.173 0 01-.308-.792V17.24h-8.184v4.004c0 4.957-.322 8.83-.968 11.616-.645 2.757-1.833 4.796-3.564 6.116-1.701 1.29-4.18 1.965-7.436 2.024a1.23 1.23 0 01-.836-.308 1.145 1.145 0 01-.352-.836v-4.62c0-.616.367-.997 1.1-1.144 1.584-.264 2.714-1.555 3.388-3.872.675-2.347 1.012-5.676 1.012-9.988V11.3c0-.323.103-.587.308-.792a1.23 1.23 0 01.836-.308h21.472c.323 0 .587.103.792.308.235.205.352.47.352.792v28.6c0 .323-.117.587-.352.792-.205.205-.469.308-.792.308h-5.676zm9.403 0a.996.996 0 01-.66-.264.997.997 0 01-.264-.66c0-.176.015-.308.044-.396l10.34-28.248c.088-.352.279-.645.572-.88.293-.235.675-.352 1.144-.352h6.512c.469 0 .851.117 1.144.352.293.235.484.528.572.88L210.04 39.68l.088.396c0 .235-.103.455-.308.66a.895.895 0 01-.66.264h-5.412c-.704 0-1.173-.308-1.408-.924l-1.716-4.488h-11.748l-1.672 4.488c-.235.616-.719.924-1.452.924h-5.412zm18.524-11.748l-4.092-11.616-4.092 11.616h8.184zM219.712 41c-.293 0-.557-.103-.792-.308a1.173 1.173 0 01-.308-.792V17.108h-7.832c-.293 0-.557-.103-.792-.308a1.173 1.173 0 01-.308-.792V11.3c0-.323.103-.587.308-.792.235-.205.499-.308.792-.308h23.672c.323 0 .587.103.792.308.205.205.308.47.308.792v4.708c0 .323-.103.587-.308.792-.205.205-.469.308-.792.308h-7.832V39.9c0 .293-.103.557-.308.792-.205.205-.469.308-.792.308h-5.808zM6.176 67.12c-1.104 0-1.96-.284-2.568-.852-.6-.568-.92-1.368-.96-2.4a32.274 32.274 0 01-.012-1.056c0-.496.004-.856.012-1.08.04-1.024.364-1.82.972-2.388.616-.576 1.468-.864 2.556-.864.712 0 1.332.124 1.86.372.528.24.936.572 1.224.996.288.416.44.888.456 1.416v.024c0 .064-.028.12-.084.168a.254.254 0 01-.168.06h-1.14c-.096 0-.168-.02-.216-.06-.048-.04-.088-.116-.12-.228-.128-.504-.34-.856-.636-1.056-.296-.208-.692-.312-1.188-.312-1.152 0-1.752.644-1.8 1.932-.008.216-.012.548-.012.996 0 .448.004.788.012 1.02.048 1.288.648 1.932 1.8 1.932.496 0 .892-.104 1.188-.312.304-.208.516-.56.636-1.056.024-.112.06-.188.108-.228a.385.385 0 01.228-.06h1.14c.072 0 .132.024.18.072.056.048.08.108.072.18a2.63 2.63 0 01-.456 1.428c-.288.416-.696.748-1.224.996-.528.24-1.148.36-1.86.36zm6.271-.12a.278.278 0 01-.204-.084.278.278 0 01-.084-.204V58.9a.32.32 0 01.072-.216.292.292 0 01.216-.084h6.288c.088 0 .16.028.216.084a.292.292 0 01.084.216v7.812c0 .088-.028.16-.084.216a.32.32 0 01-.216.072h-1.08a.278.278 0 01-.204-.084.278.278 0 01-.084-.204V60.1h-3.54v6.612c0 .08-.028.148-.084.204a.254.254 0 01-.204.084h-1.092zm12.702.12c-1.088 0-1.936-.276-2.544-.828-.608-.552-.928-1.372-.96-2.46a32.08 32.08 0 01-.012-1.02c0-.456.004-.8.012-1.032.032-1.064.36-1.88.984-2.448.624-.568 1.464-.852 2.52-.852s1.896.284 2.52.852c.632.568.964 1.384.996 2.448.016.464.024.808.024 1.032 0 .216-.008.556-.024 1.02-.04 1.088-.364 1.908-.972 2.46s-1.456.828-2.544.828zm0-1.38c.536 0 .964-.16 1.284-.48.32-.328.492-.824.516-1.488.016-.48.024-.804.024-.972 0-.184-.008-.508-.024-.972-.024-.664-.196-1.156-.516-1.476-.32-.328-.748-.492-1.284-.492-.528 0-.952.164-1.272.492-.32.32-.492.812-.516 1.476-.008.232-.012.556-.012.972 0 .408.004.732.012.972.024.664.192 1.16.504 1.488.32.32.748.48 1.284.48zM31.573 67a.278.278 0 01-.204-.084.278.278 0 01-.084-.204V58.9a.32.32 0 01.072-.216.292.292 0 01.216-.084h3.216c.96 0 1.716.228 2.268.684.552.448.828 1.108.828 1.98 0 .872-.276 1.532-.828 1.98-.544.44-1.3.66-2.268.66h-1.788v2.808c0 .08-.028.148-.084.204a.254.254 0 01-.204.084h-1.14zm3.156-4.428c.464 0 .82-.108 1.068-.324.248-.224.372-.552.372-.984 0-.416-.12-.74-.36-.972-.24-.24-.6-.36-1.08-.36h-1.752v2.64h1.752zM42.351 67a.278.278 0 01-.204-.084.278.278 0 01-.084-.204v-6.636h-2.22a.278.278 0 01-.204-.084.278.278 0 01-.084-.204V58.9a.32.32 0 01.072-.216.292.292 0 01.216-.084h6.12c.088 0 .16.028.216.084a.292.292 0 01.084.216v.888c0 .08-.028.148-.084.204a.292.292 0 01-.216.084h-2.208v6.636c0 .08-.028.148-.084.204a.292.292 0 01-.216.084h-1.104zm6.438 0a.292.292 0 01-.216-.084.32.32 0 01-.072-.216v-7.8c0-.088.028-.16.084-.216a.292.292 0 01.216-.084h1.08c.088 0 .156.028.204.084a.292.292 0 01.084.216v5.508l3.948-5.616a.404.404 0 01.348-.192h.996c.088 0 .156.028.204.084a.292.292 0 01.084.216v7.812c0 .08-.028.148-.084.204a.254.254 0 01-.204.084h-1.08a.32.32 0 01-.216-.072.292.292 0 01-.084-.216v-5.4l-3.936 5.496a.611.611 0 01-.144.144.366.366 0 01-.204.048h-1.008zm10.137 0a.278.278 0 01-.204-.084.278.278 0 01-.084-.204V58.9a.32.32 0 01.072-.216.292.292 0 01.216-.084h3.48c.936 0 1.632.208 2.088.624.464.408.696.968.696 1.68 0 .416-.104.772-.312 1.068a1.8 1.8 0 01-.708.624c.336.152.616.4.84.744.232.344.348.736.348 1.176 0 .744-.252 1.344-.756 1.8-.496.456-1.196.684-2.1.684h-3.576zm3.264-4.956c.416 0 .732-.1.948-.3.216-.2.324-.468.324-.804 0-.344-.108-.608-.324-.792-.216-.192-.532-.288-.948-.288h-1.884v2.184h1.884zm.12 3.684c.416 0 .74-.112.972-.336.232-.232.348-.524.348-.876 0-.36-.116-.652-.348-.876-.232-.232-.556-.348-.972-.348h-2.004v2.436h2.004zM68.173 67a.278.278 0 01-.204-.084.278.278 0 01-.084-.204V58.9a.32.32 0 01.072-.216.292.292 0 01.216-.084h1.092c.088 0 .156.028.204.084a.292.292 0 01.084.216v3.096h3.54V58.9a.32.32 0 01.072-.216.292.292 0 01.216-.084h1.08c.088 0 .16.028.216.084a.292.292 0 01.084.216v7.812c0 .088-.028.16-.084.216a.32.32 0 01-.216.072h-1.08a.278.278 0 01-.204-.084.278.278 0 01-.084-.204v-3.216h-3.54v3.216c0 .08-.028.148-.084.204a.254.254 0 01-.204.084h-1.092zm12.702.12c-1.088 0-1.936-.276-2.544-.828-.608-.552-.928-1.372-.96-2.46a32.08 32.08 0 01-.012-1.02c0-.456.004-.8.012-1.032.032-1.064.36-1.88.984-2.448.624-.568 1.464-.852 2.52-.852s1.896.284 2.52.852c.632.568.964 1.384.996 2.448.016.464.024.808.024 1.032 0 .216-.008.556-.024 1.02-.04 1.088-.364 1.908-.972 2.46s-1.456.828-2.544.828zm0-1.38c.536 0 .964-.16 1.284-.48.32-.328.492-.824.516-1.488.016-.48.024-.804.024-.972 0-.184-.008-.508-.024-.972-.024-.664-.196-1.156-.516-1.476-.32-.328-.748-.492-1.284-.492-.528 0-.952.164-1.272.492-.32.32-.492.812-.516 1.476-.008.232-.012.556-.012.972 0 .408.004.732.012.972.024.664.192 1.16.504 1.488.32.32.748.48 1.284.48zm13.138 1.38c-1.104 0-1.96-.284-2.568-.852-.6-.568-.92-1.368-.96-2.4a32.274 32.274 0 01-.012-1.056c0-.496.004-.856.012-1.08.04-1.024.364-1.82.972-2.388.616-.576 1.468-.864 2.556-.864.712 0 1.332.124 1.86.372.528.24.936.572 1.224.996.288.416.44.888.456 1.416v.024c0 .064-.028.12-.084.168a.254.254 0 01-.168.06h-1.14c-.096 0-.168-.02-.216-.06-.048-.04-.088-.116-.12-.228-.128-.504-.34-.856-.636-1.056-.296-.208-.692-.312-1.188-.312-1.152 0-1.752.644-1.8 1.932-.008.216-.012.548-.012.996 0 .448.004.788.012 1.02.048 1.288.648 1.932 1.8 1.932.496 0 .892-.104 1.188-.312.304-.208.516-.56.636-1.056.024-.112.06-.188.108-.228a.385.385 0 01.228-.06h1.14c.072 0 .132.024.18.072.056.048.08.108.072.18a2.63 2.63 0 01-.456 1.428c-.288.416-.696.748-1.224.996-.528.24-1.148.36-1.86.36zm8.119-.12a.278.278 0 01-.204-.084.278.278 0 01-.084-.204v-6.636h-2.22a.278.278 0 01-.204-.084.278.278 0 01-.084-.204V58.9a.32.32 0 01.072-.216.292.292 0 01.216-.084h6.12c.088 0 .16.028.216.084a.292.292 0 01.084.216v.888c0 .08-.028.148-.084.204a.292.292 0 01-.216.084h-2.208v6.636c0 .08-.028.148-.084.204a.292.292 0 01-.216.084h-1.104zm6.437 0a.278.278 0 01-.204-.084.278.278 0 01-.084-.204V58.9a.32.32 0 01.072-.216.292.292 0 01.216-.084h3.216c.96 0 1.716.228 2.268.684.552.448.828 1.108.828 1.98 0 .872-.276 1.532-.828 1.98-.544.44-1.3.66-2.268.66h-1.788v2.808c0 .08-.028.148-.084.204a.254.254 0 01-.204.084h-1.14zm3.156-4.428c.464 0 .82-.108 1.068-.324.248-.224.372-.552.372-.984 0-.416-.12-.74-.36-.972-.24-.24-.6-.36-1.08-.36h-1.752v2.64h1.752zM117.5 67a.278.278 0 01-.204-.084.278.278 0 01-.084-.204v-7.824c0-.088.028-.156.084-.204a.278.278 0 01.204-.084h1.128c.088 0 .156.028.204.084a.254.254 0 01.084.204v7.824c0 .08-.028.148-.084.204a.254.254 0 01-.204.084H117.5zm9.874 0a.278.278 0 01-.204-.084.278.278 0 01-.084-.204V60.1h-2.604v1.512c0 1.32-.092 2.364-.276 3.132-.176.76-.48 1.32-.912 1.68-.432.352-1.032.54-1.8.564a.275.275 0 01-.216-.072.292.292 0 01-.084-.216v-.9a.26.26 0 01.072-.192.375.375 0 01.204-.096c.472-.08.82-.452 1.044-1.116.232-.672.348-1.672.348-3v-2.508c0-.088.028-.156.084-.204a.278.278 0 01.204-.084h5.304c.088 0 .16.028.216.084a.292.292 0 01.084.216v7.812c0 .088-.028.16-.084.216a.32.32 0 01-.216.072h-1.08zm4.564 0a.278.278 0 01-.204-.084.278.278 0 01-.084-.204V58.9a.32.32 0 01.072-.216.292.292 0 01.216-.084h5.28c.088 0 .16.028.216.084a.292.292 0 01.084.216v.792c0 .088-.028.16-.084.216a.32.32 0 01-.216.072h-3.948v2.124h3.684c.088 0 .16.028.216.084a.254.254 0 01.084.204v.744c0 .088-.028.16-.084.216a.32.32 0 01-.216.072h-3.684v2.196h4.044c.088 0 .16.028.216.084a.292.292 0 01.084.216v.792c0 .088-.028.16-.084.216a.32.32 0 01-.216.072h-5.376zm14.569 1.68a.278.278 0 01-.204-.084.254.254 0 01-.084-.204V67h-5.796a.292.292 0 01-.216-.084.32.32 0 01-.072-.216v-7.812c0-.088.028-.156.084-.204a.278.278 0 01.204-.084h1.092c.088 0 .156.028.204.084a.254.254 0 01.084.204V65.5h3.54v-6.612c0-.088.028-.156.084-.204a.278.278 0 01.204-.084h1.08c.088 0 .16.028.216.084a.254.254 0 01.084.204V65.5h.576c.088 0 .16.028.216.084a.278.278 0 01.084.204v2.604c0 .08-.028.148-.084.204a.292.292 0 01-.216.084h-1.08zm4.018-1.68a.278.278 0 01-.204-.084.278.278 0 01-.084-.204v-7.824c0-.088.028-.156.084-.204a.278.278 0 01.204-.084h1.092c.088 0 .156.028.204.084a.254.254 0 01.084.204v2.748h1.548c.96 0 1.696.224 2.208.672.52.448.78 1.104.78 1.968 0 .52-.116.988-.348 1.404-.224.408-.56.732-1.008.972-.448.232-.992.348-1.632.348h-2.928zm2.856-1.332c.424 0 .752-.128.984-.384.24-.256.36-.596.36-1.02 0-.864-.448-1.296-1.344-1.296h-1.476v2.7h1.476zm12.154.924a.216.216 0 01.036.132.264.264 0 01-.084.192.24.24 0 01-.192.084h-1.236a.393.393 0 01-.216-.048.922.922 0 01-.144-.156l-2.064-3.3h-1.14v3.216c0 .08-.028.148-.084.204a.254.254 0 01-.204.084h-1.092a.278.278 0 01-.204-.084.278.278 0 01-.084-.204V58.9a.32.32 0 01.072-.216.292.292 0 01.216-.084h1.092c.088 0 .156.028.204.084a.292.292 0 01.084.216v3.096l1.056.012 1.944-3.192c.08-.144.224-.216.432-.216h1.188c.08 0 .14.024.18.072a.244.244 0 01.072.18c0 .032-.016.08-.048.144l-2.268 3.66 2.484 3.936zm2.639.408a.292.292 0 01-.216-.084.32.32 0 01-.072-.216v-7.8c0-.088.028-.16.084-.216a.292.292 0 01.216-.084h1.08c.088 0 .156.028.204.084a.292.292 0 01.084.216v5.508l3.948-5.616a.404.404 0 01.348-.192h.996c.088 0 .156.028.204.084a.292.292 0 01.084.216v7.812c0 .08-.028.148-.084.204a.254.254 0 01-.204.084h-1.08a.32.32 0 01-.216-.072.292.292 0 01-.084-.216v-5.4l-3.936 5.496a.611.611 0 01-.144.144.366.366 0 01-.204.048h-1.008zm10.137 0a.292.292 0 01-.216-.084.32.32 0 01-.072-.216v-7.8c0-.088.028-.16.084-.216a.292.292 0 01.216-.084h1.08c.088 0 .156.028.204.084a.292.292 0 01.084.216v5.508l3.948-5.616a.404.404 0 01.348-.192h.996c.088 0 .156.028.204.084a.292.292 0 01.084.216v7.812c0 .08-.028.148-.084.204a.254.254 0 01-.204.084h-1.08a.32.32 0 01-.216-.072.292.292 0 01-.084-.216v-5.4l-3.936 5.496a.611.611 0 01-.144.144.366.366 0 01-.204.048h-1.008zm3.36-8.88c-.696 0-1.204-.148-1.524-.444-.32-.304-.48-.692-.48-1.164 0-.064.02-.116.06-.156a.207.207 0 01.168-.072h.696c.072 0 .128.024.168.072.04.04.06.092.06.156 0 .456.284.684.852.684.56 0 .84-.228.84-.684 0-.064.02-.116.06-.156a.207.207 0 01.168-.072h.696c.072 0 .128.024.168.072.04.04.06.092.06.156 0 .472-.16.86-.48 1.164-.32.296-.824.444-1.512.444zm16.96 8.472a.216.216 0 01.036.132.264.264 0 01-.084.192.24.24 0 01-.192.084h-1.236a.393.393 0 01-.216-.048.922.922 0 01-.144-.156l-2.064-3.3h-1.14v3.216c0 .08-.028.148-.084.204a.254.254 0 01-.204.084h-1.092a.278.278 0 01-.204-.084.278.278 0 01-.084-.204V58.9a.32.32 0 01.072-.216.292.292 0 01.216-.084h1.092c.088 0 .156.028.204.084a.292.292 0 01.084.216v3.096l1.056.012 1.944-3.192c.08-.144.224-.216.432-.216h1.188c.08 0 .14.024.18.072a.244.244 0 01.072.18c0 .032-.016.08-.048.144l-2.268 3.66 2.484 3.936zm7.907.408a.278.278 0 01-.204-.084.278.278 0 01-.084-.204V60.1h-2.604v1.512c0 1.32-.092 2.364-.276 3.132-.176.76-.48 1.32-.912 1.68-.432.352-1.032.54-1.8.564a.275.275 0 01-.216-.072.292.292 0 01-.084-.216v-.9a.26.26 0 01.072-.192.375.375 0 01.204-.096c.472-.08.82-.452 1.044-1.116.232-.672.348-1.672.348-3v-2.508c0-.088.028-.156.084-.204a.278.278 0 01.204-.084h5.304c.088 0 .16.028.216.084a.292.292 0 01.084.216v7.812c0 .088-.028.16-.084.216a.32.32 0 01-.216.072h-1.08zm10.528-8.4a.23.23 0 01.168.072.216.216 0 01.084.168.569.569 0 01-.048.204l-2.412 5.508c-.28.64-.54 1.128-.78 1.464a2.183 2.183 0 01-.84.744c-.328.16-.756.24-1.284.24h-.564a.278.278 0 01-.204-.084.278.278 0 01-.084-.204v-.888c0-.088.028-.16.084-.216a.278.278 0 01.204-.084h.444c.272 0 .504-.072.696-.216.192-.144.376-.384.552-.72l-3.036-5.604a.283.283 0 01-.036-.12c0-.072.024-.132.072-.18a.264.264 0 01.192-.084h1.176c.136 0 .24.076.312.228l2.124 3.96 1.74-3.96c.056-.152.164-.228.324-.228h1.116zm2.486 8.4a.278.278 0 01-.204-.084.278.278 0 01-.084-.204V58.9a.32.32 0 01.072-.216.292.292 0 01.216-.084h5.496c.088 0 .156.028.204.084a.292.292 0 01.084.216v.84c0 .08-.028.148-.084.204a.254.254 0 01-.204.084h-4.116v1.92h2.028c.904 0 1.612.224 2.124.672.512.448.768 1.056.768 1.824 0 .456-.112.88-.336 1.272-.216.384-.544.696-.984.936-.432.232-.956.348-1.572.348h-3.408zm3.24-1.272c.408 0 .732-.124.972-.372.248-.256.372-.568.372-.936 0-.368-.116-.664-.348-.888-.232-.224-.564-.336-.996-.336h-1.86v2.532h1.86z" fill="#fff"/><path d="M2.088 48h224v4h-224v-4z" fill="#C0C233"/></svg>