<svg width="15" height="13" fill="none" xmlns="http://www.w3.org/2000/svg"><path d="M.313 1.858c2.059 1.743 5.671 4.81 6.733 5.766a.673.673 0 00.454.194.672.672 0 00.453-.193c1.063-.957 4.675-4.024 6.734-5.767a.312.312 0 00.044-.43 1.241 1.241 0 00-.98-.482H1.25c-.384 0-.742.175-.982.481a.312.312 0 00.044.431z" fill="#C0C233"/><path d="M14.819 2.803a.311.311 0 00-.334.045C12.203 4.783 9.29 7.263 8.372 8.09c-.515.465-1.229.465-1.745 0C5.65 7.21 2.378 4.429.515 2.85A.313.313 0 000 3.086v7.856c0 .69.56 1.25 1.25 1.25h12.5c.69 0 1.25-.56 1.25-1.25V3.087a.312.312 0 00-.181-.284z" fill="#C0C233"/></svg>