<svg width="15" height="16" fill="none" xmlns="http://www.w3.org/2000/svg"><path d="M15 1.858c-.558.301-1.152.5-1.772.597.638-.468 1.124-1.204 1.353-2.091a5.505 5.505 0 01-1.95.916C12.067.54 11.262.083 10.385.083c-1.703 0-3.073 1.7-3.073 3.784 0 .3.02.589.07.863C4.827 4.577 2.565 3.07 1.045.772a4.5 4.5 0 00-.42 1.913c0 1.31.548 2.472 1.365 3.145A2.616 2.616 0 01.6 5.364v.041c0 1.839 1.066 3.366 2.464 3.718a2.53 2.53 0 01-.807.125c-.196 0-.395-.014-.582-.065.399 1.499 1.53 2.6 2.874 2.636-1.047 1.007-2.375 1.614-3.813 1.614-.252 0-.494-.014-.736-.052 1.362 1.08 2.977 1.698 4.718 1.698 5.658 0 8.752-5.768 8.752-10.767 0-.168-.005-.33-.011-.49.61-.533 1.123-1.198 1.541-1.964z" fill="#fff"/></svg>