<svg width="377" height="88" fill="none" xmlns="http://www.w3.org/2000/svg"><path d="M117.708 50.44c-4.195 0-7.48-1.012-9.856-3.036-2.347-2.053-3.593-5.016-3.74-8.888a119.33 119.33 0 01-.044-3.872c0-1.819.015-3.139.044-3.96.147-3.813 1.423-6.747 3.828-8.8 2.405-2.083 5.661-3.124 9.768-3.124 2.581 0 4.899.44 6.952 1.32 2.053.85 3.667 2.083 4.84 3.696 1.203 1.584 1.819 3.447 1.848 5.588v.088c0 .235-.103.44-.308.616a.932.932 0 01-.616.22h-5.94c-.381 0-.675-.073-.88-.22-.205-.176-.381-.484-.528-.924-.411-1.496-1.056-2.537-1.936-3.124-.88-.616-2.039-.924-3.476-.924-3.461 0-5.251 1.936-5.368 5.808-.029.792-.044 2.01-.044 3.652 0 1.643.015 2.89.044 3.74.117 3.872 1.907 5.808 5.368 5.808 1.437 0 2.611-.308 3.52-.924.909-.645 1.54-1.687 1.892-3.124.117-.44.279-.733.484-.88.205-.176.513-.264.924-.264h5.94c.264 0 .484.088.66.264a.72.72 0 01.264.66c-.029 2.141-.645 4.019-1.848 5.632-1.173 1.584-2.787 2.816-4.84 3.696-2.053.85-4.371 1.276-6.952 1.276zm29.135 0c-4.195 0-7.48-1.012-9.856-3.036-2.347-2.053-3.594-5.016-3.74-8.888-.03-.792-.044-2.083-.044-3.872 0-1.819.014-3.139.044-3.96.146-3.813 1.422-6.747 3.828-8.8 2.405-2.083 5.661-3.124 9.768-3.124 2.581 0 4.898.44 6.952 1.32 2.053.85 3.666 2.083 4.84 3.696 1.202 1.584 1.818 3.447 1.848 5.588v.088c0 .235-.103.44-.308.616a.934.934 0 01-.616.22h-5.94c-.382 0-.675-.073-.88-.22-.206-.176-.382-.484-.528-.924-.411-1.496-1.056-2.537-1.936-3.124-.88-.616-2.039-.924-3.476-.924-3.462 0-5.251 1.936-5.368 5.808-.03.792-.044 2.01-.044 3.652 0 1.643.014 2.89.044 3.74.117 3.872 1.906 5.808 5.368 5.808 1.437 0 2.61-.308 3.52-.924.909-.645 1.54-1.687 1.892-3.124.117-.44.278-.733.484-.88.205-.176.513-.264.924-.264h5.94c.264 0 .484.088.66.264a.72.72 0 01.264.66c-.03 2.141-.646 4.019-1.848 5.632-1.174 1.584-2.787 2.816-4.84 3.696-2.054.85-4.371 1.276-6.952 1.276zm43.126-1.936c.088.117.132.279.132.484 0 .293-.103.543-.308.748-.176.176-.411.264-.704.264h-6.512c-.411 0-.719-.073-.924-.22a6.074 6.074 0 01-.616-.616l-6.732-11.22h-3.036V48.9c0 .323-.117.587-.352.792-.205.205-.469.308-.792.308h-5.676c-.323 0-.587-.103-.792-.308-.205-.205-.308-.47-.308-.792V20.3c0-.323.103-.587.308-.792.235-.205.499-.308.792-.308h5.676c.323 0 .587.103.792.308.235.205.352.47.352.792v10.604l2.684.044 6.468-10.912c.323-.557.865-.836 1.628-.836h6.38c.264 0 .484.088.66.264a.895.895 0 01.264.66c0 .117-.059.293-.176.528l-8.184 13.376 8.976 14.476z" fill="#C0C233"/><path d="M201.148 50a1.17 1.17 0 01-.792-.308 1.169 1.169 0 01-.308-.792V20.3c0-.323.102-.587.308-.792a1.17 1.17 0 01.792-.308h21.12c.322 0 .586.103.792.308.205.205.308.47.308.792v4.4c0 .323-.103.601-.308.836-.206.205-.47.308-.792.308h-14.3v5.192h6.116c3.52 0 6.292.836 8.316 2.508 2.024 1.672 3.036 3.96 3.036 6.864 0 1.819-.44 3.461-1.32 4.928-.88 1.437-2.171 2.581-3.872 3.432-1.702.821-3.755 1.232-6.16 1.232h-12.936zm12.232-5.72c1.202 0 2.141-.381 2.816-1.144.704-.763 1.056-1.687 1.056-2.772 0-1.085-.338-1.98-1.012-2.684-.675-.704-1.628-1.056-2.86-1.056h-5.412v7.656h5.412zm38.422-25.08c.264 0 .484.103.66.308.205.176.308.381.308.616 0 .147-.074.41-.22.792l-8.756 20.108c-1.027 2.376-2.01 4.195-2.948 5.456-.91 1.232-2.024 2.127-3.344 2.684-1.291.557-3.022.836-5.192.836h-2.332a1.17 1.17 0 01-.792-.308 1.169 1.169 0 01-.308-.792v-4.664c0-.323.102-.587.308-.792a1.17 1.17 0 01.792-.308h1.672c.85 0 1.584-.176 2.2-.528.616-.381 1.173-.983 1.672-1.804l-10.912-20.24a.869.869 0 01-.088-.396c0-.235.102-.455.308-.66.205-.205.454-.308.748-.308h6.072c.557 0 .982.308 1.276.924l6.38 12.408 5.412-12.408c.234-.616.674-.924 1.32-.924h5.764zM272.937 50c-.293 0-.557-.103-.792-.308a1.173 1.173 0 01-.308-.792V26.24h-8.184v4.004c0 4.957-.322 8.83-.968 11.616-.645 2.757-1.833 4.796-3.564 6.116-1.701 1.29-4.18 1.965-7.436 2.024a1.23 1.23 0 01-.836-.308 1.145 1.145 0 01-.352-.836v-4.62c0-.616.367-.997 1.1-1.144 1.584-.264 2.714-1.555 3.388-3.872.675-2.347 1.012-5.676 1.012-9.988V20.3c0-.323.103-.587.308-.792a1.23 1.23 0 01.836-.308h21.472c.323 0 .587.103.792.308.235.205.352.47.352.792v28.6c0 .323-.117.587-.352.792-.205.205-.469.308-.792.308h-5.676zm9.403 0a.996.996 0 01-.66-.264.997.997 0 01-.264-.66c0-.176.015-.308.044-.396l10.34-28.248c.088-.352.279-.645.572-.88.293-.235.675-.352 1.144-.352h6.512c.469 0 .851.117 1.144.352.293.235.484.528.572.88L312.04 48.68l.088.396c0 .235-.103.455-.308.66a.895.895 0 01-.66.264h-5.412c-.704 0-1.173-.308-1.408-.924l-1.716-4.488h-11.748l-1.672 4.488c-.235.616-.719.924-1.452.924h-5.412zm18.524-11.748l-4.092-11.616-4.092 11.616h8.184zM321.712 50c-.293 0-.557-.103-.792-.308a1.173 1.173 0 01-.308-.792V26.108h-7.832c-.293 0-.557-.103-.792-.308a1.173 1.173 0 01-.308-.792V20.3c0-.323.103-.587.308-.792.235-.205.499-.308.792-.308h23.672c.323 0 .587.103.792.308.205.205.308.47.308.792v4.708c0 .323-.103.587-.308.792-.205.205-.469.308-.792.308h-7.832V48.9c0 .293-.103.557-.308.792-.205.205-.469.308-.792.308h-5.808zM108.176 76.12c-1.104 0-1.96-.284-2.568-.852-.6-.568-.92-1.368-.96-2.4a32.274 32.274 0 01-.012-1.056c0-.496.004-.856.012-1.08.04-1.024.364-1.82.972-2.388.616-.576 1.468-.864 2.556-.864.712 0 1.332.124 1.86.372.528.24.936.572 1.224.996.288.416.44.888.456 1.416v.024c0 .064-.028.12-.084.168a.254.254 0 01-.168.06h-1.14c-.096 0-.168-.02-.216-.06-.048-.04-.088-.116-.12-.228-.128-.504-.34-.856-.636-1.056-.296-.208-.692-.312-1.188-.312-1.152 0-1.752.644-1.8 1.932-.008.216-.012.548-.012.996 0 .448.004.788.012 1.02.048 1.288.648 1.932 1.8 1.932.496 0 .892-.104 1.188-.312.304-.208.516-.56.636-1.056.024-.112.06-.188.108-.228a.385.385 0 01.228-.06h1.14c.072 0 .132.024.18.072.056.048.08.108.072.18a2.63 2.63 0 01-.456 1.428c-.288.416-.696.748-1.224.996-.528.24-1.148.36-1.86.36zm6.271-.12a.278.278 0 01-.204-.084.278.278 0 01-.084-.204V67.9a.32.32 0 01.072-.216.292.292 0 01.216-.084h6.288c.088 0 .16.028.216.084a.292.292 0 01.084.216v7.812c0 .088-.028.16-.084.216a.32.32 0 01-.216.072h-1.08a.278.278 0 01-.204-.084.278.278 0 01-.084-.204V69.1h-3.54v6.612c0 .08-.028.148-.084.204a.254.254 0 01-.204.084h-1.092zm12.702.12c-1.088 0-1.936-.276-2.544-.828-.608-.552-.928-1.372-.96-2.46a32.08 32.08 0 01-.012-1.02c0-.456.004-.8.012-1.032.032-1.064.36-1.88.984-2.448.624-.568 1.464-.852 2.52-.852s1.896.284 2.52.852c.632.568.964 1.384.996 2.448.016.464.024.808.024 1.032 0 .216-.008.556-.024 1.02-.04 1.088-.364 1.908-.972 2.46s-1.456.828-2.544.828zm0-1.38c.536 0 .964-.16 1.284-.48.32-.328.492-.824.516-1.488.016-.48.024-.804.024-.972 0-.184-.008-.508-.024-.972-.024-.664-.196-1.156-.516-1.476-.32-.328-.748-.492-1.284-.492-.528 0-.952.164-1.272.492-.32.32-.492.812-.516 1.476-.008.232-.012.556-.012.972 0 .408.004.732.012.972.024.664.192 1.16.504 1.488.32.32.748.48 1.284.48zm6.424 1.26a.278.278 0 01-.204-.084.278.278 0 01-.084-.204V67.9a.32.32 0 01.072-.216.292.292 0 01.216-.084h3.216c.96 0 1.716.228 2.268.684.552.448.828 1.108.828 1.98 0 .872-.276 1.532-.828 1.98-.544.44-1.3.66-2.268.66h-1.788v2.808c0 .08-.028.148-.084.204a.254.254 0 01-.204.084h-1.14zm3.156-4.428c.464 0 .82-.108 1.068-.324.248-.224.372-.552.372-.984 0-.416-.12-.74-.36-.972-.24-.24-.6-.36-1.08-.36h-1.752v2.64h1.752zM144.351 76a.278.278 0 01-.204-.084.278.278 0 01-.084-.204v-6.636h-2.22a.278.278 0 01-.204-.084.278.278 0 01-.084-.204V67.9a.32.32 0 01.072-.216.292.292 0 01.216-.084h6.12c.088 0 .16.028.216.084a.292.292 0 01.084.216v.888c0 .08-.028.148-.084.204a.292.292 0 01-.216.084h-2.208v6.636c0 .08-.028.148-.084.204a.292.292 0 01-.216.084h-1.104zm6.438 0a.292.292 0 01-.216-.084.32.32 0 01-.072-.216v-7.8c0-.088.028-.16.084-.216a.292.292 0 01.216-.084h1.08c.088 0 .156.028.204.084a.292.292 0 01.084.216v5.508l3.948-5.616a.404.404 0 01.348-.192h.996c.088 0 .156.028.204.084a.292.292 0 01.084.216v7.812c0 .08-.028.148-.084.204a.254.254 0 01-.204.084h-1.08a.32.32 0 01-.216-.072.292.292 0 01-.084-.216v-5.4l-3.936 5.496a.611.611 0 01-.144.144.366.366 0 01-.204.048h-1.008zm10.137 0a.278.278 0 01-.204-.084.278.278 0 01-.084-.204V67.9a.32.32 0 01.072-.216.292.292 0 01.216-.084h3.48c.936 0 1.632.208 2.088.624.464.408.696.968.696 1.68 0 .416-.104.772-.312 1.068a1.8 1.8 0 01-.708.624c.336.152.616.4.84.744.232.344.348.736.348 1.176 0 .744-.252 1.344-.756 1.8-.496.456-1.196.684-2.1.684h-3.576zm3.264-4.956c.416 0 .732-.1.948-.3.216-.2.324-.468.324-.804 0-.344-.108-.608-.324-.792-.216-.192-.532-.288-.948-.288h-1.884v2.184h1.884zm.12 3.684c.416 0 .74-.112.972-.336.232-.232.348-.524.348-.876 0-.36-.116-.652-.348-.876-.232-.232-.556-.348-.972-.348h-2.004v2.436h2.004zM170.173 76a.278.278 0 01-.204-.084.278.278 0 01-.084-.204V67.9a.32.32 0 01.072-.216.292.292 0 01.216-.084h1.092c.088 0 .156.028.204.084a.292.292 0 01.084.216v3.096h3.54V67.9a.32.32 0 01.072-.216.292.292 0 01.216-.084h1.08c.088 0 .16.028.216.084a.292.292 0 01.084.216v7.812c0 .088-.028.16-.084.216a.32.32 0 01-.216.072h-1.08a.278.278 0 01-.204-.084.278.278 0 01-.084-.204v-3.216h-3.54v3.216c0 .08-.028.148-.084.204a.254.254 0 01-.204.084h-1.092zm12.702.12c-1.088 0-1.936-.276-2.544-.828-.608-.552-.928-1.372-.96-2.46a32.08 32.08 0 01-.012-1.02c0-.456.004-.8.012-1.032.032-1.064.36-1.88.984-2.448.624-.568 1.464-.852 2.52-.852s1.896.284 2.52.852c.632.568.964 1.384.996 2.448.016.464.024.808.024 1.032 0 .216-.008.556-.024 1.02-.04 1.088-.364 1.908-.972 2.46s-1.456.828-2.544.828zm0-1.38c.536 0 .964-.16 1.284-.48.32-.328.492-.824.516-1.488.016-.48.024-.804.024-.972 0-.184-.008-.508-.024-.972-.024-.664-.196-1.156-.516-1.476-.32-.328-.748-.492-1.284-.492-.528 0-.952.164-1.272.492-.32.32-.492.812-.516 1.476-.008.232-.012.556-.012.972 0 .408.004.732.012.972.024.664.192 1.16.504 1.488.32.32.748.48 1.284.48zm13.138 1.38c-1.104 0-1.96-.284-2.568-.852-.6-.568-.92-1.368-.96-2.4a32.274 32.274 0 01-.012-1.056c0-.496.004-.856.012-1.08.04-1.024.364-1.82.972-2.388.616-.576 1.468-.864 2.556-.864.712 0 1.332.124 1.86.372.528.24.936.572 1.224.996.288.416.44.888.456 1.416v.024c0 .064-.028.12-.084.168a.254.254 0 01-.168.06h-1.14c-.096 0-.168-.02-.216-.06-.048-.04-.088-.116-.12-.228-.128-.504-.34-.856-.636-1.056-.296-.208-.692-.312-1.188-.312-1.152 0-1.752.644-1.8 1.932-.008.216-.012.548-.012.996 0 .448.004.788.012 1.02.048 1.288.648 1.932 1.8 1.932.496 0 .892-.104 1.188-.312.304-.208.516-.56.636-1.056.024-.112.06-.188.108-.228a.385.385 0 01.228-.06h1.14c.072 0 .132.024.18.072.056.048.08.108.072.18a2.63 2.63 0 01-.456 1.428c-.288.416-.696.748-1.224.996-.528.24-1.148.36-1.86.36zm8.119-.12a.278.278 0 01-.204-.084.278.278 0 01-.084-.204v-6.636h-2.22a.278.278 0 01-.204-.084.278.278 0 01-.084-.204V67.9a.32.32 0 01.072-.216.292.292 0 01.216-.084h6.12c.088 0 .16.028.216.084a.292.292 0 01.084.216v.888c0 .08-.028.148-.084.204a.292.292 0 01-.216.084h-2.208v6.636c0 .08-.028.148-.084.204a.292.292 0 01-.216.084h-1.104zm6.437 0a.278.278 0 01-.204-.084.278.278 0 01-.084-.204V67.9a.32.32 0 01.072-.216.292.292 0 01.216-.084h3.216c.96 0 1.716.228 2.268.684.552.448.828 1.108.828 1.98 0 .872-.276 1.532-.828 1.98-.544.44-1.3.66-2.268.66h-1.788v2.808c0 .08-.028.148-.084.204a.254.254 0 01-.204.084h-1.14zm3.156-4.428c.464 0 .82-.108 1.068-.324.248-.224.372-.552.372-.984 0-.416-.12-.74-.36-.972-.24-.24-.6-.36-1.08-.36h-1.752v2.64h1.752zM219.5 76a.278.278 0 01-.204-.084.278.278 0 01-.084-.204v-7.824c0-.088.028-.156.084-.204a.278.278 0 01.204-.084h1.128c.088 0 .156.028.204.084a.254.254 0 01.084.204v7.824c0 .08-.028.148-.084.204a.254.254 0 01-.204.084H219.5zm9.874 0a.278.278 0 01-.204-.084.278.278 0 01-.084-.204V69.1h-2.604v1.512c0 1.32-.092 2.364-.276 3.132-.176.76-.48 1.32-.912 1.68-.432.352-1.032.54-1.8.564a.275.275 0 01-.216-.072.292.292 0 01-.084-.216v-.9a.26.26 0 01.072-.192.375.375 0 01.204-.096c.472-.08.82-.452 1.044-1.116.232-.672.348-1.672.348-3v-2.508c0-.088.028-.156.084-.204a.278.278 0 01.204-.084h5.304c.088 0 .16.028.216.084a.292.292 0 01.084.216v7.812c0 .088-.028.16-.084.216a.32.32 0 01-.216.072h-1.08zm4.564 0a.278.278 0 01-.204-.084.278.278 0 01-.084-.204V67.9a.32.32 0 01.072-.216.292.292 0 01.216-.084h5.28c.088 0 .16.028.216.084a.292.292 0 01.084.216v.792c0 .088-.028.16-.084.216a.32.32 0 01-.216.072h-3.948v2.124h3.684c.088 0 .16.028.216.084a.254.254 0 01.084.204v.744c0 .088-.028.16-.084.216a.32.32 0 01-.216.072h-3.684v2.196h4.044c.088 0 .16.028.216.084a.292.292 0 01.084.216v.792c0 .088-.028.16-.084.216a.32.32 0 01-.216.072h-5.376zm14.569 1.68a.278.278 0 01-.204-.084.254.254 0 01-.084-.204V76h-5.796a.292.292 0 01-.216-.084.32.32 0 01-.072-.216v-7.812c0-.088.028-.156.084-.204a.278.278 0 01.204-.084h1.092c.088 0 .156.028.204.084a.254.254 0 01.084.204V74.5h3.54v-6.612c0-.088.028-.156.084-.204a.278.278 0 01.204-.084h1.08c.088 0 .16.028.216.084a.254.254 0 01.084.204V74.5h.576c.088 0 .16.028.216.084a.278.278 0 01.084.204v2.604c0 .08-.028.148-.084.204a.292.292 0 01-.216.084h-1.08zm4.018-1.68a.278.278 0 01-.204-.084.278.278 0 01-.084-.204v-7.824c0-.088.028-.156.084-.204a.278.278 0 01.204-.084h1.092c.088 0 .156.028.204.084a.254.254 0 01.084.204v2.748h1.548c.96 0 1.696.224 2.208.672.52.448.78 1.104.78 1.968 0 .52-.116.988-.348 1.404-.224.408-.56.732-1.008.972-.448.232-.992.348-1.632.348h-2.928zm2.856-1.332c.424 0 .752-.128.984-.384.24-.256.36-.596.36-1.02 0-.864-.448-1.296-1.344-1.296h-1.476v2.7h1.476zm12.154.924a.216.216 0 01.036.132.264.264 0 01-.084.192.24.24 0 01-.192.084h-1.236a.393.393 0 01-.216-.048.922.922 0 01-.144-.156l-2.064-3.3h-1.14v3.216c0 .08-.028.148-.084.204a.254.254 0 01-.204.084h-1.092a.278.278 0 01-.204-.084.278.278 0 01-.084-.204V67.9a.32.32 0 01.072-.216.292.292 0 01.216-.084h1.092c.088 0 .156.028.204.084a.292.292 0 01.084.216v3.096l1.056.012 1.944-3.192c.08-.144.224-.216.432-.216h1.188c.08 0 .14.024.18.072a.244.244 0 01.072.18c0 .032-.016.08-.048.144l-2.268 3.66 2.484 3.936zm2.639.408a.292.292 0 01-.216-.084.32.32 0 01-.072-.216v-7.8c0-.088.028-.16.084-.216a.292.292 0 01.216-.084h1.08c.088 0 .156.028.204.084a.292.292 0 01.084.216v5.508l3.948-5.616a.404.404 0 01.348-.192h.996c.088 0 .156.028.204.084a.292.292 0 01.084.216v7.812c0 .08-.028.148-.084.204a.254.254 0 01-.204.084h-1.08a.32.32 0 01-.216-.072.292.292 0 01-.084-.216v-5.4l-3.936 5.496a.611.611 0 01-.144.144.366.366 0 01-.204.048h-1.008zm10.137 0a.292.292 0 01-.216-.084.32.32 0 01-.072-.216v-7.8c0-.088.028-.16.084-.216a.292.292 0 01.216-.084h1.08c.088 0 .156.028.204.084a.292.292 0 01.084.216v5.508l3.948-5.616a.404.404 0 01.348-.192h.996c.088 0 .156.028.204.084a.292.292 0 01.084.216v7.812c0 .08-.028.148-.084.204a.254.254 0 01-.204.084h-1.08a.32.32 0 01-.216-.072.292.292 0 01-.084-.216v-5.4l-3.936 5.496a.611.611 0 01-.144.144.366.366 0 01-.204.048h-1.008zm3.36-8.88c-.696 0-1.204-.148-1.524-.444-.32-.304-.48-.692-.48-1.164 0-.064.02-.116.06-.156a.207.207 0 01.168-.072h.696c.072 0 .128.024.168.072.04.04.06.092.06.156 0 .456.284.684.852.684.56 0 .84-.228.84-.684 0-.064.02-.116.06-.156a.207.207 0 01.168-.072h.696c.072 0 .128.024.168.072.04.04.06.092.06.156 0 .472-.16.86-.48 1.164-.32.296-.824.444-1.512.444zm16.96 8.472a.216.216 0 01.036.132.264.264 0 01-.084.192.24.24 0 01-.192.084h-1.236a.393.393 0 01-.216-.048.922.922 0 01-.144-.156l-2.064-3.3h-1.14v3.216c0 .08-.028.148-.084.204a.254.254 0 01-.204.084h-1.092a.278.278 0 01-.204-.084.278.278 0 01-.084-.204V67.9a.32.32 0 01.072-.216.292.292 0 01.216-.084h1.092c.088 0 .156.028.204.084a.292.292 0 01.084.216v3.096l1.056.012 1.944-3.192c.08-.144.224-.216.432-.216h1.188c.08 0 .14.024.18.072a.244.244 0 01.072.18c0 .032-.016.08-.048.144l-2.268 3.66 2.484 3.936zm7.907.408a.278.278 0 01-.204-.084.278.278 0 01-.084-.204V69.1h-2.604v1.512c0 1.32-.092 2.364-.276 3.132-.176.76-.48 1.32-.912 1.68-.432.352-1.032.54-1.8.564a.275.275 0 01-.216-.072.292.292 0 01-.084-.216v-.9a.26.26 0 01.072-.192.375.375 0 01.204-.096c.472-.08.82-.452 1.044-1.116.232-.672.348-1.672.348-3v-2.508c0-.088.028-.156.084-.204a.278.278 0 01.204-.084h5.304c.088 0 .16.028.216.084a.292.292 0 01.084.216v7.812c0 .088-.028.16-.084.216a.32.32 0 01-.216.072h-1.08zm10.528-8.4a.23.23 0 01.168.072.216.216 0 01.084.168.569.569 0 01-.048.204l-2.412 5.508c-.28.64-.54 1.128-.78 1.464a2.183 2.183 0 01-.84.744c-.328.16-.756.24-1.284.24h-.564a.278.278 0 01-.204-.084.278.278 0 01-.084-.204v-.888c0-.088.028-.16.084-.216a.278.278 0 01.204-.084h.444c.272 0 .504-.072.696-.216.192-.144.376-.384.552-.72l-3.036-5.604a.283.283 0 01-.036-.12c0-.072.024-.132.072-.18a.264.264 0 01.192-.084h1.176c.136 0 .24.076.312.228l2.124 3.96 1.74-3.96c.056-.152.164-.228.324-.228h1.116zm2.486 8.4a.278.278 0 01-.204-.084.278.278 0 01-.084-.204V67.9a.32.32 0 01.072-.216.292.292 0 01.216-.084h5.496c.088 0 .156.028.204.084a.292.292 0 01.084.216v.84c0 .08-.028.148-.084.204a.254.254 0 01-.204.084h-4.116v1.92h2.028c.904 0 1.612.224 2.124.672.512.448.768 1.056.768 1.824 0 .456-.112.88-.336 1.272-.216.384-.544.696-.984.936-.432.232-.956.348-1.572.348h-3.408zm3.24-1.272c.408 0 .732-.124.972-.372.248-.256.372-.568.372-.936 0-.368-.116-.664-.348-.888-.232-.224-.564-.336-.996-.336h-1.86v2.532h1.86z" fill="#fff"/><path d="M104.088 57h224v4h-224v-4z" fill="#C0C233"/><path fill-rule="evenodd" clip-rule="evenodd" d="M44 2.316C20.978 2.316 2.316 20.978 2.316 44S20.978 85.684 44 85.684 85.684 67.022 85.684 44 67.022 2.316 44 2.316zM0 44C0 19.7 19.7 0 44 0s44 19.7 44 44-19.7 44-44 44S0 68.3 0 44z" fill="#C0C233"/><path d="M83.74 44c0 21.948-17.792 39.74-39.74 39.74S4.26 65.948 4.26 44 22.052 4.26 44 4.26 83.74 22.052 83.74 44z" fill="#C0C233"/><path fill-rule="evenodd" clip-rule="evenodd" d="M52.026 8.224a36.67 36.67 0 00-7.929-.863c-20.181 0-36.542 16.36-36.542 36.542H9.58c0-19.063 15.454-34.517 34.517-34.517 2.609 0 5.15.29 7.594.838l.335-2zm2.22 2.678a34.507 34.507 0 0114.428 8.764l1.443-1.42a36.528 36.528 0 00-15.533-9.358l-.338 2.014zM77.928 37.02a34.402 34.402 0 00-7.742-15.718l1.446-1.423a36.418 36.418 0 018.36 17.14h-2.064zm.402 2.43c.187 1.457.284 2.944.284 4.453 0 19.064-15.454 34.517-34.517 34.517a34.85 34.85 0 01-4.465-.286l-.332 1.999c1.57.206 3.171.312 4.797.312 20.181 0 36.542-16.36 36.542-36.542a36.91 36.91 0 00-.269-4.454h-2.04zm-39.7 38.54l-.332 1.997a36.43 36.43 0 01-19.295-9.52l1.614-1.263A34.408 34.408 0 0038.63 77.99zM18.133 66.65A34.375 34.375 0 019.73 47.141H7.697a36.39 36.39 0 008.84 20.756l1.597-1.249z" fill="#565F42"/><path d="M39.552 20.644c-4.822 3.852-5.03 4.04-6.168 5.375-1.534 1.795-2.213 2.891-2.453 3.914-.208.929-1.377 8.641-2.557 16.855l-.25 1.722.522.668.521.668-.761.7-.762.698.334.407c.188.22.334.45.334.512-.01.052-.313.459-.679.887-.375.428-.678.835-.678.887 0 .063.209.324.47.574.26.25.47.501.47.553 0 .042-.303.449-.68.887l-.688.804.584.532c.314.292.575.564.575.595 0 .042-.24.47-.522.95-.293.49-.554.96-.585 1.043-.041.105.25.376.898.856.95.7.96.7.897 1.075a10.49 10.49 0 00-.062 1.18c0 .605-.032.814-.136.814-.177 0-1.774-.69-2.88-1.242-.595-.303-.867-.397-.898-.303-.063.209-.365 2.714-.365 3.09 0 .229.052.333.156.333.094 0 .439.146.783.313 4.32 2.181 9.936 3.851 15.655 4.655 1.92.271 4.905.26 7.003-.042 3.538-.5 6.523-1.19 9.539-2.212 2.265-.762 3.517-1.274 5.823-2.338.45-.209.856-.376.898-.376.073 0-.24-3.037-.355-3.308-.031-.115-.146-.094-.48.073-1.044.543-3.267 1.46-3.34 1.388-.041-.052-.094-.595-.104-1.232l-.031-1.148.887-.647c.48-.355.887-.699.908-.751.02-.052-.23-.553-.553-1.117l-.585-1.012.595-.543.605-.543-.699-.845-.7-.835.533-.584.532-.585-.688-.814c-.376-.438-.69-.866-.69-.95 0-.083.116-.302.262-.49.146-.188.26-.386.26-.449 0-.052-.302-.376-.678-.71-.376-.334-.678-.647-.678-.699 0-.052.209-.355.47-.668.26-.313.47-.616.47-.689 0-.532-2.412-17.147-2.652-18.305-.188-.93-.678-1.879-1.586-3.08-.804-1.074-2.265-2.63-3.027-3.245a16555.8 16555.8 0 00-6.596-5.302c-1.043-.855-1.92-1.544-1.93-1.534-.01 0-2.035 1.618-4.488 3.59zm5.333-1.596c3.235 2.16 5.406 3.892 7.337 5.844 2.776 2.787 3.767 4.279 4.164 6.252.209 1.064.71 4.31 1.044 6.877.396 2.933 1.252 9.957 1.252 10.239 0 .24-1.2 1.826-3.277 4.32l-.355.418-.271-.25c-.146-.147-.272-.303-.272-.366 0-.115.366-.595 2.036-2.62.521-.636.98-1.2 1.022-1.262.053-.094-.626-5.23-.918-6.889-.042-.25-.146-.365-.47-.511-.647-.292-.678-.376-.313-.981.595-1.023.668-1.409.595-3.34-.073-1.9-.303-3.997-.543-4.957-.219-.835-.647-1.607-1.607-2.891-1.2-1.576-2.63-3.141-3.799-4.122-1.889-1.597-6.24-4.843-6.48-4.843-.147 0-2.986 2.087-5.157 3.788-1.732 1.347-2.974 2.537-4.258 4.06-.908 1.086-1.951 2.62-2.254 3.32-.417.96-.887 4.956-.803 6.887.041.887.104 1.075.907 2.63.021.042-.198.199-.49.345-.345.167-.543.344-.585.5-.104.46-.991 6.44-.991 6.68 0 .146.303.616.762 1.18.407.51 1.127 1.387 1.576 1.951l.824 1.023-.292.303c-.157.166-.323.281-.365.26-.073-.041-3.236-3.945-3.517-4.33-.136-.189.041-1.858.814-7.62.74-5.593 1.294-9.11 1.617-10.353.21-.824.825-2.045 1.461-2.9 1.242-1.66 4.603-4.833 6.983-6.586.814-.595 3.725-2.6 3.778-2.6.02 0 .407.24.845.544zm.762 3.538c2.661 1.868 4.947 3.621 4.863 3.715-.031.02-.605-.052-1.283-.167-3.768-.637-5.386-.595-8.809.23-1.586.386-3.413.668-3.527.542-.042-.041.114-.23.344-.438 1.127-.97 6.565-4.926 6.794-4.936.063 0 .793.48 1.618 1.054zm1.91 4.519c1.805.47 2.557.542 3.465.375l.699-.135.355.375c.188.21.344.428.344.47 0 .052-.386.125-.856.157a8.108 8.108 0 00-1.753.333c-.793.261-.94.282-1.43.178a3.244 3.244 0 01-1.033-.449c-.584-.396-1.555-.72-2.17-.72-.742 0-1.942.365-3.153.96l-1.137.553-1.2-.01c-1.42-.01-4.363-.198-4.446-.282-.094-.094.375-.803.532-.803.73 0 2.672-.303 4.383-.679 1.941-.428 2.87-.616 3.653-.72.835-.115 2.338.042 3.747.397zm-1.514 1.962c.261.135.679.5.94.814.271.334.542.563.626.542.094-.02.543-.073 1.002-.125a28.822 28.822 0 001.972-.313c.627-.115 1.503-.209 1.942-.209h.803l.125.428c.073.24.105.449.084.47-.021.031-.48.115-1.002.198-1.18.198-2.286.49-2.891.793-1.367.658-2.599 2.693-3.09 5.083l-.24 1.18-1.116.615c-.605.345-1.148.626-1.18.626-.229 0-2.348-1.315-2.348-1.46 0-.491-.574-2.558-.897-3.247-.334-.72-.365-.845-.26-1.137.448-1.305 2.43-2.724 3.83-2.745.678-.02 1.032.209 1.325.845.323.7.323 2.557 0 3.267-.282.616-.93 1.336-1.367 1.524-.303.125-.387.114-.7-.032-.72-.334-1.409-1.388-1.409-2.14 0-.897.7-1.71 1.472-1.71.23 0 .48.072.574.166.24.24.355.877.24 1.294-.094.334-.136.366-.47.366-.334 0-.386-.042-.542-.428-.136-.355-.178-.397-.24-.24-.126.323-.105.97.052 1.336.26.636.97.615 1.555-.042.866-.95.72-2.787-.261-3.33-.25-.145-.345-.135-1.013.074-1.44.47-2.202 1.2-2.202 2.129 0 .616.908 3.13 1.368 3.799.448.657.939.751 1.617.292 1.305-.866 2.568-2.672 2.86-4.08.146-.68-.042-1.504-.574-2.61-.407-.824-.898-1.325-1.472-1.482-.71-.198-3.058.689-4.33 1.618-.512.375-1.076.96-1.16 1.21-.03.094-.156.042-.438-.198-.71-.636-1.774-1.023-3.61-1.346-.543-.094-1.024-.188-1.055-.209-.041-.02-.041-.167-.01-.313l.052-.282 1.785.073c.98.032 2.108.136 2.515.22 1.304.281 1.764.219 2.661-.303a42.13 42.13 0 011.284-.741c1.127-.616 2.296-.7 3.193-.24zM37.6 32.396c1.733.804 2.86 2.536 3.079 4.696.042.366.084.856.104 1.086.032.292.115.47.282.574.47.313 1.754 1.315 2.348 1.837l.606.542.887-.782c.49-.428 1.2-.992 1.586-1.253l.689-.47.073-.74c.104-1.19.438-2.443.845-3.215 1.055-2.014 3.236-3.016 5.219-2.41 1.002.302 1.315.636 1.586 1.67.303 1.126.637 2.953.72 3.86.063.752.052.783-.386 1.65-.24.48-.48.876-.532.876-.052 0-.292-.104-.553-.23l-.46-.219.397-.48c.637-.751.866-1.388.866-2.316-.02-1.44-.699-3.392-1.283-3.695-.95-.49-3.257-.136-4.196.657-.804.679-1.555 2.432-1.586 3.695-.01.605.02.741.23.94.198.208.333.24.939.229.845-.02 3.256-.585 3.736-.877.438-.271.72-.97.626-1.534-.136-.762-.396-1.388-.657-1.597-.815-.636-2.735.334-2.912 1.472-.084.49.26.929.73.929.293 0 1.315-.522 1.315-.679 0-.031-.188-.02-.417.01-1.054.168-.898-.865.156-1.064.48-.083.762.021.95.397.209.407.125.908-.24 1.346-.376.438-.824.616-1.576.616-1.304 0-1.69-.23-1.69-1.013 0-.98.74-1.91 2.045-2.546.804-.397 1.607-.46 2.067-.167.647.428 1.054 2.004.793 3.079-.303 1.304-1.044 1.837-2.776 2.014-2.547.261-4.342.689-4.55 1.065-.24.459-.92 2.598-1.17 3.726-.449 2.045-.563 3.903-.313 5.374.052.282.01.334-.459.595-.626.355-.772.355-1.378.042l-.459-.25-.01-2.067c-.01-1.858-.042-2.223-.293-3.434-.292-1.377-1.033-3.757-1.262-4.07-.293-.397-3.674-1.023-5.542-1.033-.345 0-.543-.021-.438-.042.25-.052.219-.198-.073-.271-.408-.105-.971-.825-1.17-1.493-.344-1.2.053-2.786.825-3.277.438-.282 1.127-.208 2.014.209 1.294.605 2.077 1.628 2.004 2.62-.042.657-.386.876-1.42.918-.678.031-.876 0-1.262-.209-.637-.323-.898-.71-.898-1.304 0-.366.053-.512.25-.668.324-.272.846-.25 1.274.041.668.45.438 1.044-.334.835-.522-.135-.522-.03.01.334.888.616 1.796.261 1.629-.626-.094-.47-.71-1.169-1.263-1.42-.48-.218-1.378-.25-1.628-.062-.397.303-.793 1.597-.679 2.202.084.428.397.846.804 1.054.501.261 2.922.815 3.6.825 1.096.02 1.357-.47 1.044-1.962-.407-1.879-1.231-3.006-2.578-3.475-1.722-.595-3.183-.408-3.632.47-.417.813-.74 2.18-.74 3.099 0 .98.073 1.252.553 1.962.323.48.344.49.751.449l.418-.053-.355.105c-.272.083-.324.136-.23.23.094.093 0 .177-.376.344-.271.125-.542.209-.584.177-.052-.031-.271-.438-.501-.897-.48-.992-.49-1.221-.188-2.902.449-2.536.783-3.559 1.263-3.84 1.002-.606 2.661-.7 3.736-.21zm.428 7.88c1.534.281 2.202.521 2.599.928.188.199.313.397.282.439-.042.041-.293-.032-.553-.157-.867-.428-2.484-.542-3.716-.282-.824.167-2.285.783-2.244.94.052.156 1.002.657 1.597.835.292.094 1.472.323 2.62.522 1.951.333 2.807.553 3.151.824.126.094.136.626.084 3.173l-.052 3.058 1.033.511c.563.292 1.096.522 1.169.522.083 0 .626-.24 1.22-.522l1.076-.532-.073-.49c-.031-.272-.094-1.619-.125-2.996-.063-2.37-.063-2.515.125-2.672.334-.292 1.471-.595 3.507-.929 1.064-.177 2.212-.407 2.536-.522.668-.23 1.409-.626 1.409-.751 0-.094-.919-.522-1.733-.814-1.21-.428-3.33-.344-4.341.167-.606.303-.679.146-.157-.344.626-.606 3.517-1.232 4.53-.981.782.198 3.203 1.481 3.308 1.753.031.073-.397.438-.981.856l-1.044.73-2.943.647c-1.628.355-3.037.679-3.131.73-.167.095-.188.303-.209 1.765-.041 3.256-.062 3.058.199 3.078.323.021.761.345.761.553 0 .355-.198.48-.928.606-.543.094-.898.23-1.315.511-1.128.741-2.474.7-3.549-.115-.334-.25-1.033-.448-1.586-.459-.272 0-.345-.052-.439-.323a4.406 4.406 0 01-.114-.366c0-.104.762-.47.887-.417.135.052.156-.178.146-1.534a62.533 62.533 0 00-.073-2.474l-.073-.876-2.922-.637c-1.618-.355-3.006-.668-3.11-.71-.282-.104-2.16-1.45-2.16-1.544 0-.209 2.233-1.451 3.078-1.712.584-.188 1.242-.188 2.254.01zm.877 1.659c.219.042.553.146.73.24.167.094.595.198.93.23.563.052.625.073.72.344.052.167.072.313.052.334-.032.042-3.058-.46-4.186-.689-.334-.073-.626-.156-.647-.209-.03-.041.22-.135.543-.198.334-.073.658-.146.71-.156.104-.032.438 0 1.148.104zm12.169.073c.23.063.407.157.407.198 0 .105-.71.25-2.714.574-.887.146-1.742.303-1.9.355-.27.084-.27.084-.176-.24.052-.188.093-.344.093-.355 0-.02.21-.031.47-.031.282 0 .658-.094.919-.23.24-.125.584-.26.75-.302.502-.115 1.712-.105 2.15.031zM33.56 44.189c.209.053.386.126.386.157s-.177.323-.407.647c-.834 1.231-1.085 1.92-.928 2.484.281 1.043 1.22 2.004 2.264 2.306 1.107.324 3.069-.104 3.956-.866.574-.49.73-.981.553-1.764-.303-1.356-1.628-1.878-3.006-1.18-.595.293-.897.69-.887 1.139.01.48.324.75.877.761.25 0 .542-.03.657-.073.188-.073.178-.104-.135-.302-.595-.376-.366-.919.47-1.086.26-.052.385 0 .667.25.303.272.355.387.355.784 0 .615-.313.96-1.085 1.19-2.088.605-3.59-.857-2.62-2.547.324-.574.658-.856 1.378-1.18.98-.448 2.494-.083 3.34.804 1.252 1.315.813 3.966-.783 4.676-1.013.438-2.756.73-3.81.626-.699-.073-.699-.073-1.42-.814-.907-.94-1.596-1.858-1.742-2.37-.104-.333-.094-.5.052-.96.271-.814 1.221-2.797 1.357-2.797.063 0 .292.053.511.115zm21.896.741c.616 1.232.93 2.108.93 2.62 0 .563-.512 1.367-1.65 2.588l-.824.877h-1.19c-1.868 0-3.392-.439-4.08-1.17-.398-.406-.7-1.158-.773-1.888-.167-1.555.887-2.85 2.567-3.162 1.002-.178 1.722.041 2.442.772 1.535 1.534.69 3.34-1.482 3.183-1.106-.083-1.795-.543-1.795-1.2 0-1.023 1.013-1.514 1.67-.814.303.313.24.553-.198.793-.324.167-.334.198-.157.271.105.042.428.084.7.084.407 0 .553-.052.71-.25.438-.543.156-1.222-.71-1.65-1.628-.793-3.173.126-3.037 1.806.062.74.417 1.2 1.262 1.586 1.347.637 2.954.7 3.935.167.908-.49 1.67-1.576 1.67-2.369 0-.428-.616-1.701-1.148-2.369l-.334-.417.25-.094c.136-.042.313-.115.397-.146.344-.126.428-.042.845.782zm-24.442 7.306l1.148 1.492-.272.282c-.156.167-.333.292-.407.292-.114 0-2.003-2.244-2.275-2.682-.073-.125.428-.866.585-.866.041 0 .584.668 1.22 1.482zm27.771-.689c0 .073-.49.741-1.095 1.492-1.18 1.462-1.2 1.472-1.66.971-.115-.136-.156-.271-.104-.355.125-.209 1.816-2.4 2.066-2.672l.22-.24.281.345c.157.188.292.396.292.459zm-18.451.104c.03.021-.147.501-.407 1.065a18.4 18.4 0 00-.658 1.586c-.156.553-.188.574-.616.658-.25.052-.47.062-.5.031-.136-.125.333-1.524.834-2.494l.522-1.033.376.073c.209.041.407.093.449.114zm8.756 1.034c.407.824.866 2.233.772 2.337-.031.021-.271 0-.532-.052l-.48-.094-.23-.73a15.159 15.159 0 00-.626-1.555c-.209-.46-.344-.867-.303-.908.167-.157.71-.157.856.01.073.084.324.532.543.992zm-10.364-1.023c-.02.052-.292.595-.594 1.22-.314.627-.648 1.42-.742 1.765-.166.616-.177.636-.667.772-.282.084-.522.125-.554.094-.177-.177.752-3.35 1.054-3.6.251-.21 1.587-.429 1.503-.251zm11.543.063l.512.125.407 1.064c.386 1.023.71 2.463.584 2.588-.031.032-.271.01-.522-.052-.459-.114-.47-.125-.688-.845-.126-.397-.46-1.19-.752-1.774-.282-.574-.522-1.096-.522-1.148 0-.126.334-.105.981.041zm-8.798.344c.23.115.303.209.25.334a23.043 23.043 0 00-.573 1.753c-.105.407-.126.438-.595.501-.261.032-.512.042-.543.01-.177-.187.783-2.765 1.033-2.765.063 0 .261.073.428.167zm5.918.584c.355.835.699 1.952.615 2.025-.03.031-.292.02-.584-.02-.511-.064-.532-.084-.595-.45-.042-.208-.209-.74-.365-1.19l-.303-.803.345-.146c.177-.084.386-.157.448-.157.063-.01.261.334.439.741zm-11.21.157c-.49 1.273-.657 1.805-.782 2.432-.104.542-.156.626-.438.72l-.313.114.073-.667c.083-.825.417-2.171.668-2.662.156-.313.574-.584.98-.626.042-.01-.041.303-.187.689zm15.917-.49c.281.135.448.323.563.594.282.73.804 3.163.668 3.163-.02 0-.177-.053-.344-.105-.282-.094-.324-.188-.49-.95a17.204 17.204 0 00-.554-1.795c-.47-1.273-.48-1.231.157-.908zm-9.049.667c.157.115.178.23.105.752l-.074.616-.574.062c-.313.031-.594.042-.615.021-.063-.042.177-1.315.302-1.66.105-.25.115-.26.386-.093.167.094.376.23.47.302zm2.839.199c.083.302.167.699.188.897l.031.365-.574-.03c-.313-.011-.605-.063-.637-.095-.041-.042-.094-.323-.114-.626-.053-.553-.053-.553.375-.845.24-.167.46-.282.501-.25.042.02.146.28.23.584zm-15.739 1.377c.606.835 1.149 1.514 1.19 1.514.042 0 .324-.261.627-.585.302-.313.563-.553.584-.532.031.02-.063.49-.209 1.023-.198.793-.292 1.002-.49 1.095-.668.324-.606.366-2.223-1.377l-1.524-1.639.428-.5c.24-.282.438-.512.46-.512.02 0 .542.678 1.157 1.513zm4.207-.574a16.326 16.326 0 00-.428 1.66c-.115.699-.136.73-.512.876-.219.084-.417.136-.438.115-.073-.073.136-1.21.365-2.004.178-.616.303-.824.668-1.169.25-.23.501-.417.553-.417.052 0-.041.428-.209.94zm19.6-.5c.333.344.49.636.688 1.283.146.46.292 1.085.334 1.398.073.522.063.554-.115.48-.114-.041-.323-.114-.47-.177-.24-.083-.281-.177-.344-.647-.031-.303-.198-1.023-.375-1.607-.167-.585-.314-1.086-.314-1.117 0-.146.21-.01.595.386zm5.51.135l.386.48-.48.543a50.26 50.26 0 01-1.503 1.628l-1.023 1.096-.49-.136c-.397-.115-.501-.198-.553-.417a62.927 62.927 0 00-.25-1.055c-.105-.427-.178-.793-.168-.814.021-.01.313.261.658.606l.615.647 1.128-1.524c.626-.835 1.169-1.524 1.21-1.524.042 0 .25.209.47.47zM45.75 55.356c2.442.324 2.547.366 2.244.919l-.136.24-3.872.02-3.872.011-.166-.355c-.094-.198-.126-.396-.084-.438.042-.042.762-.177 1.597-.292.835-.115 1.628-.23 1.774-.25.553-.095.96-.063 2.515.145zm-6.97 1.014c.093.167.219.647.281 1.075.45 2.943 1.795 6.898 3.069 9.027.26.439.48.825.48.856 0 .021-.25.021-.543-.01-.689-.084-.772-.178-1.555-1.795-1.044-2.171-1.722-4.488-1.962-6.753-.136-1.19-.146-2.692-.031-2.692.041 0 .156.135.26.292zm10.718 1.377c-.198 2.808-.835 5.198-2.025 7.671-.835 1.722-.908 1.816-1.597 1.9-.302.031-.553.031-.553 0 0-.032.209-.386.46-.793.553-.898 1.398-2.756 1.847-4.029.428-1.242 1.085-3.851 1.242-4.926.125-.866.449-1.607.636-1.42.063.063.053.658-.01 1.597zm-19.266-.198l1.242 1.346.376-.334.375-.334.073 1.482c.084 1.785.314 3.434.668 4.79.136.554.24 1.024.21 1.044-.022.021-.345-.041-.7-.146l-.668-.198-.063-.626c-.041-.334-.083-1.273-.094-2.077-.01-.804-.052-1.722-.093-2.046l-.063-.584-1.618-1.336c-.887-.73-1.607-1.378-1.586-1.44.052-.157.584-.908.647-.898.031 0 .616.616 1.294 1.357zm29.191-.835l.344.438-.417.376c-.23.209-.981.835-1.67 1.388l-1.263 1.023-.062 1.106a38.988 38.988 0 00-.073 2.182c0 .584-.032 1.283-.063 1.534l-.063.48-.678.177c-.365.105-.689.167-.71.146-.02-.031.084-.49.22-1.033.375-1.45.574-2.87.647-4.675l.073-1.587.396.324.386.323 1.075-1.127c.585-.616 1.128-1.2 1.2-1.304.199-.282.272-.25.658.23zm-21.896 1.002c.136 2.766.814 5.438 2.056 8.036.679 1.42.679 1.399-.209 1.21-.313-.062-.386-.156-.887-1.22-1.231-2.61-1.93-5.594-1.93-8.224 0-.96.01-1.013.24-1.054.699-.136.657-.199.73 1.252zm13.63-1.21c.282.104.324.156.324.49 0 .929-.24 2.995-.47 4.122-.48 2.328-1.764 5.615-2.265 5.803-.23.084-.75.157-.939.125-.041-.01.157-.47.428-1.033 1.346-2.724 1.952-5.083 2.265-8.923.063-.752.094-.783.657-.585zM35.65 58.288c.073 1.503.24 2.578.657 4.206.292 1.138.866 2.745 1.253 3.517.375.741.354.772-.502.543-.219-.063-.605-.898-1.127-2.453-.626-1.878-.939-3.527-1.012-5.427l-.063-1.628.303-.104c.167-.063.334-.094.365-.073.032.02.094.657.126 1.42zm17.25-1.272l.282.115-.073 1.22c-.125 2.036-.418 3.664-.992 5.522-.323 1.064-.97 2.536-1.148 2.63-.177.094-.845.23-.845.177 0-.01.188-.449.407-.97 1.075-2.474 1.639-4.853 1.837-7.786.042-.553.115-1.013.157-1.013.052 0 .219.053.375.105zm-6.815.511c.115.115-.449 2.422-.97 3.914-.46 1.325-.992 2.463-1.148 2.463-.272 0-1.284-2.63-1.764-4.613-.47-1.941-.49-1.795.25-1.879.793-.083 3.517 0 3.632.115zm-12.138.866c.01 2.046.543 4.645 1.43 7.003.157.386.25.73.209.762-.031.031-.323 0-.637-.073l-.584-.125-.261-.845c-.553-1.816-.887-4.133-.887-6.106 0-1.158.063-1.44.303-1.503.417-.114.427-.094.427.887zm20.519-.834l.282.125-.063 1.941c-.063 2.035-.209 3.13-.647 4.811-.397 1.555-.365 1.503-1.086 1.68-.751.188-.751.188-.365-.761.7-1.702 1.232-4.102 1.399-6.252.052-.772.104-1.471.104-1.544 0-.157.031-.157.376 0zm-13.568.365c.282 1.284.814 3.026 1.367 4.519.376 1.033 1.576 3.444 1.702 3.444.114 0 .907-1.513 1.398-2.661.522-1.2 1.18-3.215 1.524-4.624l.24-.96h.824l-.062.49c-.23 1.566-1.2 4.478-2.213 6.555-.605 1.263-1.534 2.765-1.711 2.765-.376 0-2.223-3.652-2.964-5.844-.48-1.42-1.034-3.726-.94-3.883.032-.041.22-.083.407-.083.313 0 .376.042.428.282zm-10.384 2.599c.115.51.104 4.216-.01 4.216-.053 0-.366-.115-.69-.261l-.584-.261.052-.438c.042-.25.094-.825.125-1.284.032-.46.084-.981.115-1.158.042-.293-.02-.366-.793-.971-.459-.355-.835-.678-.835-.71 0-.031.146-.292.324-.574l.323-.5.96.824c.658.563.971.908 1.013 1.117zm29.243-1.378c.157.25.282.5.282.553 0 .063-.365.397-.814.741l-.814.626.083.929c.042.501.094 1.242.105 1.628l.03.72-.52.199c-.283.104-.585.198-.648.198-.157 0-.177-1.41-.063-3.277l.063-1.127.94-.825c.51-.449.96-.824 1.001-.824.032 0 .188.208.355.459zm-33.21 5.083c4.343 1.93 9.112 3.235 14.497 3.976.543.073 1.858.125 2.923.125 5.145 0 12.106-1.638 17.731-4.185.908-.407 1.054-.428 1.054-.115 0 .136.032.407.063.616.063.376.063.386-.543.668-5.051 2.358-10.426 3.851-16.114 4.488-1.774.198-2.63.198-4.33 0-3.842-.439-7.14-1.159-10.542-2.296-1.712-.575-4.456-1.68-5.583-2.244-.637-.324-.637-.324-.574-.71.093-.605.156-.856.198-.856.02 0 .574.24 1.22.533z" fill="#565F42"/></svg>