<svg width="20" height="13" viewBox="0 0 20 13" fill="none" xmlns="http://www.w3.org/2000/svg">
<path d="M18.186 3.58154H16.3635V5.39517H14.5493V7.21713H16.3635V9.03076H18.186V7.21713H20.0002V5.39517H18.186V3.58154Z" fill="white"/>
<path d="M6.25 12.5791C9.85667 12.5791 12.2525 10.048 12.2525 6.47553C12.2525 6.06646 12.21 5.7507 12.1508 5.43578H6.25083V7.58361H9.79834C9.65334 8.49589 8.72417 10.2771 6.25083 10.2771C4.12 10.2771 2.38 8.51256 2.38 6.33057C2.38 4.14858 4.11917 2.38316 6.25083 2.38316C7.47 2.38316 8.28 2.90304 8.74084 3.34627L10.4375 1.71831C9.345 0.696054 7.93833 0.0820312 6.25 0.0820312C2.79667 0.0820312 0 2.87804 0 6.33057C0 9.78309 2.79667 12.5791 6.25 12.5791Z" fill="white"/>
</svg>
