<svg width="14" height="15" viewBox="0 0 14 15" fill="none" xmlns="http://www.w3.org/2000/svg">
<path d="M12.8766 9.27407C12.0195 9.27407 11.1779 9.14004 10.3804 8.87655C9.98956 8.74329 9.50915 8.86554 9.27064 9.11045L7.69648 10.2985C5.87091 9.32422 4.74639 8.20034 3.7852 6.38891L4.93856 4.85614C5.23821 4.55696 5.34569 4.11993 5.21692 3.70988C4.95223 2.90836 4.81777 2.06736 4.81777 1.21007C4.81781 0.590755 4.31385 0.0869141 3.69442 0.0869141H1.12339C0.503962 0.0869141 0 0.590755 0 1.21003C0 8.30856 5.77637 14.0835 12.8766 14.0835C13.496 14.0835 14 13.5797 14 12.9604V10.3971C14 9.77791 13.496 9.27407 12.8766 9.27407Z" fill="#C0C233"/>
</svg>
